<svg xmlns="http://www.w3.org/2000/svg" width="124" height="124" viewBox="0 0 124 124" fill="none">
                        <path d="M56.2669 53.7275C56.3228 53.532 56.3788 53.3223 57.1758 53.3223C59.65 53.3223 60.1247 55.0412 60.1247 56.4532C60.1247 57.3056 59.6635 61.6105 55.2607 61.6105C54.6039 61.6105 54.2681 61.5269 54.2681 61.0656C54.2681 60.8418 54.4502 60.2268 54.5756 59.7655L56.2669 53.7275ZM53.7097 53.1261C54.4225 53.182 54.786 53.2521 54.786 53.7275C54.786 54.0074 54.6741 54.4403 54.6322 54.5941L52.9133 60.7723C52.676 61.6388 52.4662 61.6806 51.7811 61.8061V62.03H55.3173C59.4267 62.03 61.677 59.4439 61.677 56.6211C61.677 55.1537 60.8105 52.9028 57.5959 52.9028H53.7104V53.1261H53.7097ZM64.5693 60.5902C64.0244 61.415 63.4094 62.1837 62.6265 62.1837C61.9697 62.1837 61.9697 61.5687 61.9697 61.3172C61.9697 60.6604 63.0736 57.1936 63.0736 56.8025C63.0736 56.5092 62.9617 56.439 62.1929 56.439V56.2152C62.7243 56.1875 63.8842 55.9636 64.429 55.8659L64.4709 55.8935L63.2409 60.394C63.1849 60.5896 63.017 61.1486 63.017 61.3165C63.017 61.4143 63.1148 61.5262 63.2409 61.5262C63.4088 61.5262 63.814 61.2464 64.3872 60.4359L64.5693 60.5902ZM64.2901 54.3702C63.9408 54.3702 63.6191 54.1322 63.6191 53.6433C63.6191 53.1544 63.9408 52.8887 64.2759 52.8887C64.7372 52.8887 64.9746 53.3499 64.9746 53.6574C64.9746 53.9366 64.7507 54.3702 64.2901 54.3702ZM71.0968 60.5761C70.3982 61.5127 69.9087 62.1554 69.1541 62.1554C68.5108 62.1554 68.4831 61.736 68.4831 61.3307C68.4831 60.9955 69.5175 57.5848 69.5175 57.0257C69.5175 56.7742 69.4339 56.5786 69.1682 56.5786C68.4973 56.5786 67.6166 57.781 67.1135 58.5632C66.4709 59.5275 66.2888 60.129 65.7163 62.0293H64.6684C65.1013 60.45 66.0379 57.1795 66.0379 56.8855C66.0379 56.6758 65.8983 56.522 65.1437 56.522V56.2982C65.8983 56.1586 66.6529 56.019 67.4082 55.8652L67.45 55.8929L66.5551 58.8141L66.5828 58.8418C67.2396 57.8073 68.5256 55.8646 69.6854 55.8646C70.3287 55.8646 70.6497 56.1997 70.6497 56.7871C70.6497 57.3879 69.5317 60.8405 69.5317 61.2599C69.5317 61.4696 69.7273 61.4979 69.7556 61.4979C70.0354 61.4979 70.3847 61.0508 70.9019 60.3934L71.0968 60.5761ZM72.8859 58.5072C73.4031 57.2631 74.3532 56.1875 75.1085 56.1875C75.4578 56.1875 75.5974 56.4532 75.5974 56.7465C75.5974 56.8585 75.5279 58.5356 72.6485 59.1229L72.8859 58.5072ZM75.7646 60.506C75.066 61.0792 74.4787 61.5545 73.7241 61.5545C73.1367 61.5545 72.4105 61.2329 72.4105 60.2821C72.4105 60.0023 72.4806 59.7231 72.5501 59.4297L72.9412 59.3738C75.2056 59.0521 76.5192 57.9199 76.5192 56.816C76.5192 56.201 76.0856 55.8652 75.3729 55.8652C73.4024 55.8652 71.194 58.2133 71.194 60.212C71.194 61.0927 71.6411 62.1824 73.1091 62.1824C74.507 62.1824 75.7788 60.8965 75.9325 60.6726L75.7646 60.506ZM76.6176 62.0293L77.7498 57.9482C77.8894 57.431 77.9731 56.9563 77.9731 56.8302C77.9731 56.6346 77.9036 56.4114 77.47 56.4114C77.3163 56.4114 77.1625 56.4532 77.0088 56.4809V56.2435C77.7215 56.1457 78.5463 55.9636 79.1754 55.8659L79.2172 55.8935L78.5327 58.6751L78.5604 58.7028L78.6723 58.423C79.1336 57.5005 80.1963 55.8652 81.0763 55.8652C81.398 55.8652 81.7473 56.0749 81.7473 56.5497C81.7473 57.2766 81.2443 57.2766 81.0905 57.2766C80.4897 57.2766 80.6994 56.7736 80.3636 56.7736C79.9306 56.7736 79.0918 58.3252 78.9798 58.5349C78.4485 59.541 78.2529 60.1702 77.6797 62.0293H76.6176ZM81.0339 59.9888C81.1317 60.6038 81.3555 61.8897 82.4877 61.8897C83.27 61.8897 83.4939 61.2187 83.4939 60.7575C83.4939 59.835 81.8309 58.4931 81.8309 57.4169C81.8309 56.9839 82.0265 55.8652 83.508 55.8652C84.1372 55.8652 84.4164 56.1032 84.8358 56.1032C85.0738 56.1032 85.1574 55.9636 85.2269 55.8511H85.4225L85.1426 57.7945H84.9188C84.8493 56.9974 84.5135 56.1869 83.6052 56.1869C83.2977 56.1869 82.8506 56.3123 82.8506 56.9974C82.8506 57.8781 84.5553 59.1222 84.5553 60.3098C84.5553 61.8331 83.2552 62.1831 82.473 62.1831C82.0535 62.1831 81.4945 61.9174 81.0892 61.9174C80.8937 61.9174 80.8377 62.057 80.7541 62.2114H80.5302L80.81 59.9888H81.0339ZM96.9819 55.4882C96.9543 55.0971 96.8282 53.2238 94.8294 53.2238C92.0343 53.2238 90.6081 56.6063 90.6081 58.661C90.6081 60.4925 91.3769 61.6523 93.0404 61.6523C94.6197 61.6523 95.5982 60.6597 96.2692 60.0029L96.5065 60.1985C95.9893 60.8135 94.7452 62.2808 92.7046 62.2808C91.0829 62.2808 89.043 61.3024 89.043 58.5072C89.043 55.8099 91.5165 52.7208 94.7175 52.7208C95.7236 52.7208 96.5767 53.0559 96.8977 53.0559C97.3029 53.0559 97.3866 52.888 97.4567 52.7484H97.75L97.2328 55.5301L96.9819 55.4882ZM99.5532 60.4359C98.8404 61.5121 98.2949 62.1831 97.4284 62.1831C96.8134 62.1831 96.7574 61.7077 96.7574 61.3165C96.7574 61.0225 98.7845 53.7269 98.7845 53.4335C98.7845 53.0707 98.1971 53.0707 97.8337 53.0842V52.8604C98.5606 52.7767 99.2875 52.6507 100.014 52.4834L100.084 52.5529L97.9733 60.6456C97.9456 60.7717 97.8337 61.1486 97.8337 61.3024C97.8337 61.386 97.8337 61.5822 98.0434 61.5822C98.3927 61.5822 98.6867 61.1911 99.3711 60.3098L99.5532 60.4359ZM106.011 60.5201C105.13 61.7919 104.767 62.1554 104.068 62.1554C103.439 62.1554 103.411 61.6382 103.411 61.4285C103.411 61.1769 103.691 60.0029 104.012 58.8566H103.97C103.019 60.4359 101.986 62.1831 100.727 62.1831C100.224 62.1831 99.9585 61.9733 99.9585 61.3583C99.9585 60.7434 101.021 57.2206 101.021 56.8437C101.021 56.4384 100.755 56.4384 100.182 56.4384V56.2435C100.888 56.1582 101.588 56.0321 102.279 55.8659L102.321 55.8935L101.048 60.9672C101.006 61.1486 101.048 61.442 101.342 61.442C101.943 61.442 102.824 60.1284 103.299 59.4014C103.984 58.367 104.292 57.4863 104.837 55.9907H105.871L104.767 60.1702C104.684 60.45 104.501 61.065 104.501 61.2747C104.501 61.3442 104.515 61.4986 104.669 61.4986C104.935 61.4986 105.326 61.009 105.816 60.394L106.011 60.5201ZM111.084 57.7385C111.084 58.9125 109.757 61.862 107.841 61.862C107.185 61.862 107.185 61.4986 107.185 61.4008C107.185 59.9334 108.527 56.5503 110.064 56.5503C110.945 56.5503 111.084 57.3056 111.084 57.7385ZM107.199 53.0424C108.009 53.0566 108.107 53.1261 108.107 53.4477C108.107 53.6433 107.982 53.9926 107.884 54.3843L105.983 61.3867V61.4426C105.983 61.7501 107.059 62.1837 107.8 62.1837C109.939 62.1837 112.273 59.7655 112.273 57.5571C112.273 56.5368 111.588 55.8659 110.61 55.8659C109.352 55.8659 108.471 57.166 108.01 57.8923L107.982 57.8787C108.458 56.2988 109.1 53.6992 109.408 52.5535L109.338 52.484C108.611 52.6236 107.899 52.7214 107.2 52.8057V53.0424H107.199ZM51.7856 72.6971C52.4707 72.571 52.6805 72.5292 52.9178 71.6627L54.6367 65.4845C54.7204 65.2046 54.7905 64.8695 54.7905 64.6179C54.7905 64.129 54.4135 64.0872 53.812 64.0171V63.7932H57.2646V64.0171C56.5801 64.1432 56.3563 64.1708 56.1183 65.0515L54.3994 71.2433C54.3157 71.5231 54.2456 71.8023 54.2456 72.1381C54.2456 72.5852 54.5949 72.6277 55.1964 72.6971V72.921H51.7856V72.6971Z" fill="currentColor"></path>
                        <path d="M61.9189 71.4675C61.2197 72.4041 60.7308 73.0474 59.9755 73.0474C59.3329 73.0474 59.3046 72.628 59.3046 72.2227C59.3046 71.8876 60.339 68.4768 60.339 67.9178C60.339 67.6662 60.2554 67.4707 59.9897 67.4707C59.3187 67.4707 58.438 68.673 57.935 69.4553C57.2917 70.4196 57.1103 71.0204 56.5371 72.9214H55.4891C55.9221 71.3421 56.8587 68.0709 56.8587 67.7775C56.8587 67.5678 56.7191 67.4141 55.9645 67.4141V67.1902C56.7191 67.0506 57.4737 66.9104 58.229 66.7566L58.2708 66.7849L57.3766 69.7061L57.4042 69.7344C58.0611 68.7 59.347 66.7572 60.5069 66.7572C61.1502 66.7572 61.4718 67.093 61.4718 67.6804C61.4718 68.2812 60.3538 71.7338 60.3538 72.1533C60.3538 72.363 60.5493 72.3906 60.5776 72.3906C60.8575 72.3906 61.2068 71.9435 61.7234 71.2867L61.9189 71.4675ZM65.6507 67.3857H64.4767L63.2467 72.04C63.2326 72.0818 63.2326 72.1095 63.2326 72.152C63.2326 72.2774 63.302 72.3893 63.4564 72.3893C63.7363 72.3893 64.2252 71.7325 64.5745 71.2854L64.7559 71.3832C64.0431 72.4595 63.4982 73.0745 62.7713 73.0745C62.4915 73.0745 62.1003 72.9349 62.1003 72.5154C62.1003 72.3057 62.366 71.4533 62.422 71.2295L63.4281 67.3857H62.3937C62.3802 67.3021 62.3802 67.232 62.422 67.1619C62.5056 67.0358 62.8967 66.938 63.1348 66.8126C63.596 66.5745 64.267 65.946 64.6581 65.4565C64.7141 65.387 64.77 65.2609 64.8955 65.2892C64.9933 65.2609 65.0216 65.387 64.9933 65.4989L64.6021 66.9387H65.7202L65.6507 67.3857ZM66.8942 69.3986C67.4114 68.1545 68.3622 67.0783 69.1168 67.0783C69.4661 67.0783 69.6064 67.3439 69.6064 67.6373C69.6064 67.7492 69.5363 69.4263 66.6575 70.0136L66.8942 69.3986ZM69.7736 71.3974C69.075 71.9706 68.4877 72.4453 67.7331 72.4453C67.1458 72.4453 66.4195 72.1237 66.4195 71.1735C66.4195 70.8937 66.4889 70.6145 66.5591 70.3211L66.9502 70.2652C69.2146 69.9435 70.5282 68.8113 70.5282 67.7068C70.5282 67.0918 70.0947 66.756 69.3819 66.756C67.4114 66.756 65.2023 69.104 65.2023 71.1027C65.2023 71.9834 65.6494 73.0732 67.1175 73.0732C68.5153 73.0732 69.7872 71.7872 69.9409 71.564L69.7736 71.3974ZM70.9059 72.9207L72.0381 68.8396C72.1777 68.3224 72.2619 67.847 72.2619 67.7216C72.2619 67.526 72.1918 67.3021 71.7589 67.3021C71.6051 67.3021 71.4514 67.3439 71.2976 67.3722V67.1342C72.0104 67.0364 72.8351 66.8544 73.4643 66.7566L73.5061 66.7849L72.8216 69.5665L72.8493 69.5942L72.9612 69.3144C73.4225 68.3919 74.4845 66.756 75.3652 66.756C75.6869 66.756 76.0362 66.9657 76.0362 67.4411C76.0362 68.168 75.5331 68.168 75.3794 68.168C74.7785 68.168 74.9882 67.6649 74.6531 67.6649C74.2195 67.6649 73.3806 69.2166 73.2693 69.4263C72.738 70.4324 72.5424 71.0616 71.9692 72.9207H70.9059Z" fill="currentColor"></path>
                        <path d="M81.64 71.4673C80.9414 72.404 80.4519 73.0473 79.6973 73.0473C79.0539 73.0473 79.0263 72.6278 79.0263 72.2225C79.0263 71.8874 80.0607 68.4766 80.0607 67.9175C80.0607 67.666 79.9771 67.4704 79.7114 67.4704C79.0411 67.4704 78.1597 68.6728 77.6567 69.455C77.014 70.4194 76.832 71.0202 76.2588 72.9212H75.2108C75.6444 71.3419 76.5804 68.0706 76.5804 67.7773C76.5804 67.5676 76.4408 67.4138 75.6856 67.4138V67.1899C76.4402 67.0503 77.1954 66.9101 77.95 66.7563L77.9918 66.7847L77.097 69.7059L77.1247 69.7342C77.7815 68.6998 79.0675 66.757 80.228 66.757C80.8713 66.757 81.1923 67.0928 81.1923 67.6801C81.1923 68.281 80.0742 71.7336 80.0742 72.1531C80.0742 72.3628 80.2698 72.3905 80.2981 72.3905C80.5779 72.3905 80.9273 71.9434 81.4445 71.2865L81.64 71.4673Z" fill="currentColor"></path>
                        <path d="M82.7163 71.3971C82.7163 70.1388 83.9746 67.0645 85.6099 67.0645C86.0151 67.0645 86.4069 67.3301 86.4069 68.0011C86.4069 69.3707 85.0373 72.3897 83.5552 72.3897C83.1776 72.3897 82.7163 72.1382 82.7163 71.3971ZM87.79 71.3829C87.1609 71.9979 86.881 72.3479 86.6719 72.3479C86.56 72.3479 86.4764 72.2642 86.4764 72.1658C86.4764 71.7329 87.7623 66.966 87.8042 66.7988L87.7064 66.757L86.854 66.8548L86.8122 66.8966L86.6726 67.5122H86.6449C86.6031 67.1204 86.1419 66.757 85.541 66.757C83.6819 66.757 81.5436 69.3707 81.5436 71.4254C81.5436 71.8307 81.5854 73.0742 82.9833 73.0742C83.8221 73.0742 84.5626 72.6547 85.7224 70.95L85.7501 70.9776C85.5262 71.83 85.4568 72.1375 85.4568 72.4592C85.4568 72.6965 85.4568 73.06 86.0441 73.06C86.6449 73.06 87.1203 72.5569 87.9592 71.5225L87.79 71.3829ZM91.9412 67.3855H90.7672L89.5372 72.0397C89.5231 72.0815 89.5231 72.1092 89.5231 72.1517C89.5231 72.2771 89.5932 72.389 89.7469 72.389C90.0268 72.389 90.5157 71.7322 90.865 71.2851L91.0464 71.3829C90.3336 72.4592 89.7887 73.0742 89.0618 73.0742C88.782 73.0742 88.3908 72.9346 88.3908 72.5151C88.3908 72.3054 88.6565 71.453 88.7125 71.2292L89.7186 67.3855H88.6842C88.6707 67.3018 88.6707 67.2317 88.7125 67.1616C88.7961 67.0355 89.1872 66.9377 89.4253 66.8123C89.8865 66.5743 90.5575 65.9458 90.9486 65.4562C91.0046 65.3867 91.0605 65.2607 91.1866 65.289C91.2844 65.2607 91.3121 65.3867 91.2844 65.4987L90.8933 66.9384H92.0113L91.9412 67.3855ZM94.6251 71.4813C94.0795 72.3061 93.4652 73.0748 92.6823 73.0748C92.0255 73.0748 92.0255 72.4598 92.0255 72.2083C92.0255 71.5515 93.1294 68.0854 93.1294 67.6936C93.1294 67.3996 93.0174 67.3301 92.2487 67.3301V67.1063C92.7794 67.0786 93.9393 66.8548 94.4848 66.757L94.5266 66.7853L93.2966 71.2858C93.2407 71.4813 93.0728 72.0404 93.0728 72.2083C93.0728 72.3061 93.1706 72.418 93.2966 72.418C93.4645 72.418 93.8698 72.1382 94.4424 71.3276L94.6251 71.4813ZM94.3452 65.2613C93.9959 65.2613 93.6743 65.0239 93.6743 64.5344C93.6743 64.0455 93.9959 63.7798 94.3311 63.7798C94.7923 63.7798 95.0297 64.241 95.0297 64.5485C95.0303 64.8277 94.8065 65.2613 94.3452 65.2613ZM99.1957 67.0503C99.866 67.0503 100.174 67.6653 100.174 68.3922C100.174 69.8879 99.0702 72.7808 97.4768 72.7808C96.7782 72.7808 96.3587 72.2777 96.3587 71.4807C96.3581 69.8319 97.6299 67.0503 99.1957 67.0503ZM99.2935 66.7563C97.2529 66.7563 95.1841 69.0072 95.1841 71.0613C95.1841 72.2211 95.8132 73.0735 97.2947 73.0735C99.4331 73.0735 101.348 70.5441 101.348 68.8245C101.348 67.9027 100.915 66.7563 99.2935 66.7563Z" fill="currentColor"></path>
                        <path d="M107.442 71.4676C106.743 72.4043 106.254 73.0476 105.499 73.0476C104.856 73.0476 104.828 72.6282 104.828 72.2229C104.828 71.8877 105.863 68.4769 105.863 67.9179C105.863 67.6664 105.779 67.4708 105.513 67.4708C104.843 67.4708 103.962 68.6731 103.459 69.4554C102.815 70.4197 102.634 71.0206 102.061 72.9215H101.013C101.447 71.3422 102.383 68.071 102.383 67.7777C102.383 67.5679 102.243 67.4142 101.488 67.4142V67.1903C102.242 67.0507 102.998 66.9105 103.752 66.7567L103.794 66.785L102.899 69.7063L102.927 69.7346C103.584 68.7002 104.87 66.7574 106.03 66.7574C106.673 66.7574 106.994 67.0932 106.994 67.6805C106.994 68.2814 105.876 71.734 105.876 72.1534C105.876 72.3631 106.072 72.3908 106.1 72.3908C106.38 72.3908 106.729 71.9437 107.247 71.2869L107.442 71.4676ZM108.798 71.3975C108.798 70.1392 110.056 67.0649 111.691 67.0649C112.096 67.0649 112.488 67.3306 112.488 68.0015C112.488 69.3711 111.118 72.3901 109.636 72.3901C109.259 72.3901 108.798 72.1386 108.798 71.3975ZM113.871 71.3834C113.242 71.9984 112.962 72.3483 112.753 72.3483C112.641 72.3483 112.558 72.2647 112.558 72.1663C112.558 71.7333 113.844 66.9665 113.885 66.7992L113.788 66.7574L112.935 66.8552L112.893 66.897L112.753 67.5126H112.726C112.684 67.1208 112.222 66.7574 111.622 66.7574C109.762 66.7574 107.624 69.3711 107.624 71.4258C107.624 71.8311 107.666 73.0746 109.064 73.0746C109.902 73.0746 110.643 72.6552 111.803 70.9504L111.831 70.9781C111.607 71.8305 111.537 72.138 111.537 72.4596C111.537 72.697 111.537 73.0605 112.124 73.0605C112.726 73.0605 113.2 72.5574 114.039 71.523L113.871 71.3834ZM117.044 71.3274C116.331 72.4036 115.786 73.0746 114.92 73.0746C114.305 73.0746 114.249 72.5999 114.249 72.2081C114.249 71.9147 116.275 64.6184 116.275 64.3251C116.275 63.9616 115.688 63.9616 115.324 63.9757V63.7519C116.058 63.667 116.786 63.5409 117.505 63.3743L117.575 63.4444L115.464 71.5371C115.436 71.6626 115.324 72.0402 115.324 72.1939C115.324 72.2776 115.324 72.4738 115.534 72.4738C115.883 72.4738 116.177 72.0826 116.862 71.202L117.044 71.3274ZM119.004 63.6895H119.148C119.281 63.6895 119.389 63.7557 119.389 63.9552C119.389 64.1404 119.323 64.2729 119.151 64.2729H119.004V63.6895ZM118.613 63.6753C118.784 63.6927 118.781 63.6895 118.781 63.8432V64.6782C118.781 64.8281 118.784 64.8281 118.613 64.8461V64.8982H119.172V64.8461C118.998 64.8288 119.004 64.8288 119.004 64.6782V64.336H119.168C119.388 64.6609 119.476 64.8982 119.588 64.8982H119.808V64.8667C119.741 64.8178 119.637 64.6995 119.546 64.5734L119.346 64.3006C119.504 64.2485 119.622 64.1153 119.622 63.9378C119.622 63.721 119.43 63.6232 119.224 63.6232H118.612V63.6753H118.613ZM120.353 64.28C120.353 63.6193 119.84 63.0815 119.175 63.0815C119.018 63.0811 118.862 63.1119 118.717 63.172C118.572 63.2322 118.44 63.3206 118.329 63.432C118.219 63.5435 118.131 63.6759 118.072 63.8214C118.012 63.967 117.983 64.1229 117.984 64.28C117.984 64.94 118.505 65.4714 119.175 65.4714C119.84 65.4714 120.353 64.94 120.353 64.28ZM120.161 64.28C120.161 64.8352 119.724 65.3247 119.175 65.3247C118.616 65.3247 118.176 64.8352 118.176 64.28C118.176 63.7242 118.613 63.2282 119.175 63.2282C119.728 63.2282 120.161 63.721 120.161 64.28Z" fill="currentColor"></path>
                        <path d="M34.4191 76.6048C42.4147 76.644 48.9712 70.0868 48.9153 62.1086C48.9706 53.9123 42.4147 47.3558 34.4191 47.3584H18.3977C10.3063 47.3565 3.74978 53.9123 3.64685 62.1086C3.74978 70.0868 10.3063 76.6434 18.3971 76.6048H34.4191Z" fill="currentColor"></path>
                        <path d="M4.66455 62.1086C4.74432 54.4617 10.855 48.3503 18.3977 48.3761C25.9321 48.3503 32.0434 54.4617 32.1303 62.1093C32.0434 69.5387 25.9321 75.6501 18.3977 75.5877C10.855 75.6501 4.74432 69.5381 4.66455 62.1086Z" fill="#EFF6FE"></path>
                        <path d="M15.3453 53.9707C12.1847 55.3969 9.81353 58.4461 9.75049 62.1085C9.81353 65.6331 12.0715 68.7377 15.3453 69.9921V53.9707ZM21.4489 69.9928C24.715 68.7383 26.9723 65.6331 27.0437 62.1091C26.9723 58.3677 24.7143 55.2625 21.4489 53.9713V69.9928Z" fill="currentColor"></path>
                    </svg>
