<svg xmlns="http://www.w3.org/2000/svg" width="64" height="64" viewBox="0 0 64 64" fill="none">
                        <path d="M62.3524 11.2622H1.64759C0.736544 11.2622 0 11.9999 0 12.9098V51.0911C0 52.001 0.736544 52.7387 1.64759 52.7387H62.3524C63.2635 52.7387 64 52.001 64 51.0911V12.9098C64 11.9999 63.2635 11.2622 62.3524 11.2622ZM4.95524 23.7959H11.7858C12.7071 23.831 13.4493 24.1245 13.7054 25.1092L15.1909 32.2537C13.7314 28.5166 10.2142 25.4072 4.89858 24.12L4.95524 23.7959ZM13.2204 40.0905L9.27479 26.6106C12.111 28.4259 14.5269 31.3064 15.3779 33.3109L15.838 34.9755L20.153 23.9512H24.8215L17.8833 40.0871L13.2204 40.0905ZM28.2527 40.1019H23.847L26.6017 23.9342H31.0096L28.2527 40.1019ZM35.9195 40.3444C33.9445 40.324 32.0419 39.933 31.0108 39.4809L31.6306 35.8628L32.1983 36.12C33.6453 36.724 34.5824 36.9687 36.3467 36.9687C37.6125 36.9687 38.9688 36.4735 38.9813 35.3903C38.9892 34.682 38.4136 34.1767 36.698 33.3835C35.0255 32.6106 32.8113 31.3143 32.8385 28.9925C32.8623 25.8503 35.9309 23.6577 40.2856 23.6577C41.9921 23.6577 43.3598 24.0089 44.2323 24.3364L43.6374 27.8412L43.2397 27.6543C42.4283 27.3279 41.3847 27.0129 39.9422 27.0356C38.2176 27.0356 37.4176 27.754 37.4176 28.4259C37.4085 29.1829 38.3513 29.6815 39.8924 30.4316C42.434 31.5852 43.6091 32.9846 43.5932 34.8237C43.5592 38.1778 40.553 40.3444 35.9195 40.3444ZM55.013 40.1087C55.013 40.1087 54.6108 38.2503 54.4771 37.686C53.8357 37.686 49.3394 37.6792 48.834 37.6792C48.6629 38.1155 47.9082 40.1087 47.9082 40.1087H43.2816L49.8232 25.2928C50.2878 24.2401 51.0754 23.9512 52.1314 23.9512H55.5354L59.1014 40.1075L55.013 40.1087Z" fill="currentColor"></path>
                        <path d="M52.7388 29.7053L52.4419 28.3115C52.2175 28.92 51.8311 29.8979 51.8561 29.8549C51.8561 29.8549 50.4634 33.4435 50.1008 34.3738H53.7598C53.583 33.5636 52.7388 29.7053 52.7388 29.7053Z" fill="currentColor"></path>
                    </svg>
