<svg xmlns="http://www.w3.org/2000/svg" width="128" height="128" viewBox="0 0 128 128" fill="none">
                        <path fill-rule="evenodd" clip-rule="evenodd" d="M97.2657 86.1168H98.0532V82.0455H95.1633V82.8988H97.0685V83.4905C97.0685 84.7383 96.2796 85.4607 95.0325 85.4607C93.5875 85.4607 92.6678 84.213 92.6678 81.9134C92.6678 79.6815 93.5211 78.4337 95.0325 78.4337C96.0166 78.4337 96.6747 79.0241 97.0027 80.2718L97.9224 80.0746C97.4622 78.4337 96.5425 77.6455 95.0325 77.6455C92.9965 77.6455 91.7487 79.2213 91.7487 81.9798C91.7487 84.6725 92.9965 86.2483 95.0325 86.2483C95.9522 86.2483 96.6747 85.9203 97.1999 85.1978L97.2657 86.1168ZM100.286 86.1168H101.139V82.768C101.467 81.5203 102.125 80.8628 102.979 80.8628H103.045V80.0095H102.848C102.059 80.0095 101.534 80.4684 101.14 81.4545V80.0746H100.286V86.1168H100.286ZM103.965 83.0961C103.965 85.132 104.884 86.2476 106.46 86.2476C108.036 86.2476 108.956 85.132 108.956 83.0961C108.956 81.0601 108.036 79.9431 106.46 79.9431C104.884 79.9431 103.965 81.0594 103.965 83.0961ZM104.818 83.0961C104.818 81.5203 105.41 80.6656 106.46 80.6656C107.511 80.6656 108.102 81.5203 108.102 83.0961C108.102 84.6719 107.511 85.5252 106.46 85.5252C105.41 85.5252 104.818 84.6719 104.818 83.0961ZM115.062 80.0739H114.275V84.6068C113.683 85.1971 113.158 85.5252 112.567 85.5252C111.844 85.5252 111.583 85.132 111.583 84.2774V80.0739H110.728V84.541C110.728 85.658 111.32 86.2476 112.305 86.2476C113.028 86.2476 113.684 85.9196 114.34 85.1971V86.1168H115.062V80.0739ZM117.493 88.35H118.282V85.4601C118.675 85.9854 119.202 86.2476 119.858 86.2476C121.5 86.2476 122.354 85.132 122.354 83.1625C122.354 81.1265 121.434 79.9431 119.858 79.9431C119.136 79.9431 118.675 80.2712 118.282 80.7964L118.085 80.0739H117.493V88.35ZM118.282 84.6068V81.5847C118.675 80.993 119.201 80.665 119.857 80.665C120.974 80.665 121.5 81.5196 121.5 83.1618C121.5 84.7376 120.908 85.5252 119.924 85.5252C119.266 85.5252 118.74 85.2629 118.282 84.6068ZM5.64709 77.7106H7.61734C8.73361 77.7106 9.58758 77.8414 10.2443 78.3667C11.164 79.0892 11.7544 80.2705 11.7544 81.9127C11.7544 84.6712 10.3094 86.1162 7.42011 86.1162H5.64709V77.7106ZM6.56681 78.4981V85.2635H7.2893C8.34049 85.2635 9.12806 85.1971 9.71973 84.6719C10.4422 84.1466 10.836 83.1625 10.836 81.9134C10.836 80.5348 10.4422 79.6151 9.71973 79.0234C9.06298 78.5646 8.34049 78.4981 7.42078 78.4981H6.56681ZM18.1253 84.8027C17.5994 85.7224 16.8111 86.1826 15.6955 86.1826C14.1191 86.1826 13.2651 85.132 13.2651 83.0296C13.2651 81.0594 14.1841 79.9431 15.6298 79.9431C17.0748 79.9431 17.9945 80.9937 17.9945 82.9652V83.2275H14.1197V83.4248C14.1197 84.7389 14.7765 85.4607 15.7619 85.4607C16.4844 85.4607 17.1412 85.1327 17.4692 84.4102L18.1253 84.8027ZM17.0748 82.5044C17.0748 81.323 16.4838 80.665 15.6298 80.665C14.7107 80.665 14.1848 81.3224 14.1191 82.5044H17.0748ZM24.0367 86.1168H23.3142V85.1971C22.6574 85.8545 22 86.1826 21.2782 86.1826C20.2934 86.1826 19.7018 85.5909 19.7018 84.5404V80.0089H20.5557V84.2123C20.5557 85.0656 20.8187 85.4601 21.5405 85.4601C22.1322 85.4601 22.6574 85.1971 23.2485 84.5404V80.0089H24.0367V86.1168ZM28.8311 86.0504C28.5024 86.1826 28.2401 86.1826 27.9114 86.1826C26.9917 86.1826 26.5322 85.7881 26.5322 84.9999V80.7314H25.6125V80.0089H26.5322V78.0386H27.3862V80.0089H28.7654V80.7314H27.3862V84.6719C27.3862 85.2635 27.5176 85.4607 28.2401 85.4607C28.4367 85.4607 28.6339 85.3943 28.8311 85.3943V86.0504ZM30.2755 84.541C30.8014 85.1971 31.3267 85.5252 32.0485 85.5252C32.7703 85.5252 33.2305 85.0663 33.2305 84.4746C33.2305 83.6871 32.5737 83.6213 31.3917 83.2269C30.3405 82.9646 29.8153 82.3736 29.8153 81.5847C29.8153 80.6005 30.6035 79.9425 31.654 79.9425C32.5737 79.9425 33.2962 80.2705 33.8872 80.9279L33.2962 81.5196C32.8367 80.9279 32.3108 80.5999 31.7198 80.5999C31.1281 80.5999 30.735 80.993 30.735 81.5196C30.735 81.7819 30.8007 81.9785 30.9973 82.1099C31.3917 82.438 31.9827 82.5044 32.6395 82.7016C33.6243 83.0296 34.0845 83.5549 34.0845 84.4095C34.0845 85.4601 33.2962 86.1826 31.917 86.1826C30.9973 86.1826 30.144 85.7881 29.6187 85.0656L30.2755 84.541ZM37.7626 86.1826C36.1862 86.1826 35.2671 85.132 35.2671 83.0296C35.2671 81.0594 36.2526 79.9431 37.7626 79.9431C38.8138 79.9431 39.6021 80.5348 39.9301 81.5203L39.0761 81.8483C38.8796 81.0594 38.3543 80.6656 37.6969 80.6656C36.7121 80.6656 36.1862 81.4545 36.1862 83.0303C36.1862 84.6725 36.7121 85.4607 37.7626 85.4607C38.4194 85.4607 38.9447 85.0663 39.3391 84.2781L40.0616 84.6725C39.5357 85.7224 38.8132 86.1826 37.7626 86.1826ZM41.7031 77.7106H42.4914V80.9286C43.2138 80.2061 43.8048 79.9431 44.5931 79.9431C45.6436 79.9431 46.2353 80.5348 46.2353 81.5853V86.1168H45.3813V81.9134C45.3813 81.0601 45.1183 80.6656 44.3308 80.6656C43.7398 80.6656 43.083 80.9286 42.4914 81.5853V86.1168H41.7031V77.7106ZM52.8678 84.8027C52.3419 85.7224 51.5543 86.1826 50.4381 86.1826C48.8616 86.1826 47.9426 85.132 47.9426 83.0296C47.9426 81.0594 48.9273 79.9431 50.3723 79.9431C51.8173 79.9431 52.737 80.9937 52.737 82.9652V83.2275H48.8623V83.4248C48.8623 84.7389 49.519 85.4607 50.5045 85.4607C51.227 85.4607 51.8837 85.1327 52.2124 84.4102L52.8678 84.8027ZM51.8173 82.5044C51.8173 81.323 51.2263 80.665 50.3723 80.665C49.4526 80.665 48.9273 81.3224 48.8616 82.5044H51.8173ZM58.582 77.7106H60.8803C63.0477 77.7106 64.0983 78.3009 64.0983 79.8116C64.0983 80.7314 63.6388 81.3224 62.719 81.6511C63.7045 82.0455 64.3612 82.768 64.3612 83.8185C64.3612 85.3279 63.2443 86.1168 61.1426 86.1168H58.5813V77.7106H58.582ZM59.501 78.4331V81.323H61.2747C62.5225 81.323 63.1792 80.7964 63.1792 79.8123C63.1792 78.8926 62.4567 78.4337 61.0118 78.4337H59.501V78.4331ZM59.501 82.1099V85.3279H61.209C62.719 85.3279 63.3765 84.8691 63.3765 83.7521C63.3765 82.6352 62.654 82.1099 61.209 82.1099H59.501ZM66.8568 77.8421H67.7765V78.8926H66.8568V77.8421ZM68.6955 77.8421H69.6152V78.8926H68.6955V77.8421ZM68.2367 79.9431C69.8124 79.9431 70.7979 81.0601 70.7979 83.0296C70.7979 85.0656 69.8124 86.1826 68.2367 86.1826C66.6595 86.1826 65.6754 85.0656 65.6754 83.0296C65.6747 81.0594 66.6595 79.9431 68.2367 79.9431ZM68.2367 85.5252C69.2872 85.5252 69.8789 84.6719 69.8789 83.0961C69.8789 81.4539 69.2872 80.6656 68.2367 80.6656C67.1861 80.6656 66.5945 81.4545 66.5945 83.0303C66.5945 84.6719 67.1861 85.5252 68.2367 85.5252ZM72.5052 80.0089H73.3598V81.3874C73.8187 80.4033 74.3439 79.9425 75.1328 79.9425H75.3301V80.7958H75.2636C74.4103 80.7958 73.7529 81.4532 73.3598 82.7009V86.1162H72.5052V80.0089ZM76.6422 84.541C77.1024 85.1971 77.6927 85.5252 78.3502 85.5252C79.1391 85.5252 79.5979 85.0663 79.5979 84.4746C79.5979 83.6871 78.9418 83.6213 77.7585 83.2269C76.708 82.9646 76.1827 82.3736 76.1827 81.5847C76.1827 80.6005 76.9703 79.9425 78.0221 79.9425C78.9418 79.9425 79.6643 80.2705 80.1896 80.9279L79.6643 81.5196C79.2041 80.9279 78.6789 80.5999 78.0872 80.5999C77.4311 80.5999 77.0367 80.993 77.0367 81.5196C77.0367 81.7819 77.1675 81.9785 77.3647 82.1099C77.7592 82.438 78.3502 82.5044 78.9418 82.7016C79.9924 83.0296 80.4512 83.5549 80.4512 84.4095C80.4512 85.4601 79.5979 86.1826 78.2838 86.1826C77.2996 86.1826 76.4443 85.7881 75.9855 85.0656L76.6422 84.541ZM86.5605 84.8027C86.0352 85.7224 85.2463 86.1826 84.1301 86.1826C82.5543 86.1826 81.6346 85.132 81.6346 83.0296C81.6346 81.0594 82.6187 79.9431 84.0637 79.9431C85.5086 79.9431 86.4284 80.9937 86.4284 82.9652V83.2275H82.5543V83.4248C82.5543 84.7389 83.2104 85.4607 84.1965 85.4607C84.919 85.4607 85.575 85.1327 85.9031 84.4102L86.5605 84.8027ZM85.5086 82.5044C85.5086 81.323 84.9183 80.665 84.0637 80.665C83.144 80.665 82.6187 81.3224 82.5543 82.5044H85.5086Z" fill="currentColor"></path>
                        <path fill-rule="evenodd" clip-rule="evenodd" d="M17.9287 59.3867L5.64709 66.348V73.8352L24.4962 63.0642L17.9287 59.3867Z" fill="currentColor"></path>
                        <path fill-rule="evenodd" clip-rule="evenodd" d="M37.6312 62.0144L32.0485 58.7964H18.9136L31.0637 65.6926L37.6312 62.0144Z" fill="currentColor"></path>
                        <path fill-rule="evenodd" clip-rule="evenodd" d="M57.465 51.7681L32.0485 66.2829H45.2498L63.9017 55.5777L57.465 51.7681Z" fill="currentColor"></path>
                        <path fill-rule="evenodd" clip-rule="evenodd" d="M77.1675 54.4607L71.4546 51.2427H58.3848L70.5349 58.2703L77.1675 54.4607Z" fill="currentColor"></path>
                        <path fill-rule="evenodd" clip-rule="evenodd" d="M122.353 37.254L84.6547 58.7958H71.5204L122.353 29.8325V37.254Z" fill="currentColor"></path>
                    </svg>
