<svg xmlns="http://www.w3.org/2000/svg" width="64" height="64" viewBox="0 0 64 64" fill="none" style="<
    svg xmlns=&quot;http: //www.w3.org/2000/svg&quot; width=&quot;64&quot; height=&quot;64&quot; viewBox=&quot;0 0 64 64&quot; fill=&quot;none&quot;>
                        <path d=&quot;M35.8459 24.9995H28.3592C27.881 25.9049 27.5638 26.5893 27.4742 26.7593H36.5553C36.3502 26.1542 36.1145 25.5684 35.8459 24.9995Z&quot; fill=&quot;currentColor&quot;></path>
                        <path d=&quot;M24.5643 29.3589C23.8448 29.3589 23.2181 29.4507 22.2436 29.6977L21.9887 31.147L22.1507 31.1051L22.4295 31.0348C22.8465 30.9238 23.4731 30.8569 24.0306 30.8569C24.9348 30.8569 25.2838 31.0155 25.2838 31.4405C25.2838 31.5583 25.2601 31.6467 25.2136 31.8586C24.9122 31.8269 24.6334 31.8087 24.4249 31.8087C22.2674 31.8087 21.0142 32.7255 21.0142 34.2892C21.0142 35.3294 21.7337 36.0467 22.7785 36.0467C23.6601 36.0467 24.3343 35.7985 24.8204 35.2694L24.7739 35.9357H26.3977L26.4204 35.7612L26.4442 35.5402L26.4906 35.2138L26.5598 34.8059L26.9779 32.5192C27.0946 31.8031 27.1173 31.5617 27.1173 31.2444C27.1173 30.0138 26.2357 29.3589 24.5643 29.3589ZM23.5909 34.6824C23.1501 34.6824 22.8952 34.424 22.8952 34.0263C22.8952 33.3759 23.4527 33.0473 24.5428 33.0473C24.6822 33.0473 24.7751 33.0507 24.9847 33.0722C24.9371 34.024 24.3796 34.6824 23.5909 34.6824Z&quot; fill=&quot;currentColor&quot;></path>
                        <path d=&quot;M18.4623 28.0249L16.3037 32.9258L16.1643 28.0249H13.1241L11.6147 35.9388H13.3779L14.5383 29.8923L14.8635 35.9388H16.6278L19.2963 29.8538L18.136 35.9388H20.085L21.617 28.0249H18.4623Z&quot; fill=&quot;currentColor&quot;></path>
                        <path d=&quot;M53.9015 35.3464C53.9003 35.3034 53.8777 35.2592 53.855 35.2354C53.8085 35.2127 53.7621 35.2104 53.7394 35.2104H53.5536V35.6546H53.6465V35.4813H53.7156L53.7859 35.6546H53.9015L53.8323 35.462C53.8788 35.4427 53.9015 35.3952 53.9015 35.3464ZM53.7621 35.3963C53.7394 35.4054 53.7156 35.4054 53.7156 35.4054H53.6454V35.2898H53.6941C53.7168 35.2898 53.7632 35.2898 53.7632 35.3C53.787 35.309 53.787 35.3272 53.787 35.3442C53.787 35.3634 53.7847 35.3861 53.7621 35.3963Z&quot; fill=&quot;currentColor&quot;></path>
                        <path d=&quot;M57.9762 41.0051C57.9739 40.9609 57.9524 40.9167 57.9286 40.8941C57.8822 40.8714 57.8357 40.8691 57.8119 40.8691H57.6272V41.3133H57.7201V41.1388H57.7892L57.8595 41.3133H57.9762L57.906 41.1196C57.9524 41.1026 57.9762 41.055 57.9762 41.0051ZM57.8357 41.055C57.8119 41.064 57.7892 41.064 57.7892 41.064H57.719V40.9496H57.7654C57.7892 40.9496 57.8357 40.9496 57.8357 40.9587C57.8595 40.9677 57.8595 40.987 57.8595 41.0029C57.8595 41.0232 57.8595 41.0436 57.8357 41.055Z&quot; fill=&quot;currentColor&quot;></path>
                        <path d=&quot;M62.3524 11.2622H1.64759C0.736544 11.2622 0 11.9999 0 12.9098V51.0911C0 52.001 0.736544 52.7387 1.64759 52.7387H62.3524C63.2635 52.7387 64 52.001 64 51.0911V12.9098C64 11.9999 63.2635 11.2622 62.3524 11.2622ZM58.2538 41.3801C58.2062 41.4662 58.1416 41.5319 58.0578 41.5784C57.9739 41.6248 57.8856 41.6486 57.7949 41.6486C57.702 41.6486 57.6136 41.6248 57.5297 41.5784C57.447 41.5319 57.3813 41.4662 57.3326 41.3801C57.2861 41.2973 57.2623 41.209 57.2623 41.1172C57.2623 41.0254 57.2861 40.9381 57.3337 40.852C57.3802 40.7659 57.4482 40.7013 57.532 40.6548C57.617 40.6106 57.7031 40.5869 57.7938 40.5869C57.8833 40.5869 57.9694 40.6106 58.0533 40.6548C58.1382 40.7013 58.2051 40.7659 58.2516 40.852C58.2992 40.9381 58.3218 41.0265 58.3218 41.1172C58.3218 41.2078 58.3014 41.2996 58.2538 41.3801ZM59.4414 32.001C59.4436 41.0718 52.0941 48.4282 43.0221 48.4305C38.7796 48.4316 34.911 46.8237 31.9966 44.1823C29.0822 46.8191 25.2215 48.4259 20.9858 48.4259C11.9195 48.4259 4.56091 41.0684 4.56091 32.001C4.56091 22.9699 11.8618 15.6339 20.8805 15.575C20.9156 15.575 20.9507 15.575 20.9858 15.575C25.2215 15.575 29.0833 17.1818 31.9977 19.8186C34.911 17.1806 38.7751 15.5727 43.0142 15.5716C52.0861 15.5682 59.4414 22.9211 59.4436 31.9931C59.4414 31.9953 59.4414 31.9965 59.4414 32.001Z&quot; fill=&quot;currentColor&quot;></path>
                        <path d=&quot;M33.6237 21.5151H30.5031C30.0838 22.0817 29.6895 22.6845 29.3325 23.2738H34.8997C34.5133 22.6596 34.0861 22.0726 33.6237 21.5151Z&quot; fill=&quot;currentColor&quot;></path>
                        <path d=&quot;M37.0753 30.8781C37.4708 30.8781 37.9807 30.9121 38.4918 30.9722L38.7705 29.4843C38.2595 29.4141 37.4935 29.3574 37.0289 29.3574C34.8487 29.3574 34.0804 30.3478 34.0816 31.5319C34.0816 32.3433 34.5462 32.9042 35.5898 33.3257C36.3773 33.6464 36.4952 33.7416 36.4952 34.0362C36.4952 34.435 36.1484 34.6163 35.3824 34.6163C34.7773 34.6163 34.2447 34.537 33.617 34.3625L33.3394 35.8469L33.4323 35.8639L33.7801 35.9274C33.8957 35.9501 34.0816 35.9693 34.3139 35.9852C34.7773 36.0192 35.1241 36.0384 35.3801 36.0384C37.4697 36.0384 38.4215 35.3597 38.4215 33.8923C38.4215 33.0084 38.0272 32.4928 37.0289 32.1008C36.2164 31.7756 36.1235 31.7019 36.1235 31.4005C36.1235 31.0549 36.4476 30.8781 37.0753 30.8781Z&quot; fill=&quot;currentColor&quot;></path>
                        <path d=&quot;M47.2442 29.488C47.1501 29.4653 47.0799 29.4529 47.0799 29.4495C47.0107 29.4393 46.9405 29.4336 46.8702 29.4336C46.2425 29.4336 45.779 29.7191 45.1762 30.4795L45.362 29.5027H43.5977L42.4136 35.939H44.3637C45.0606 32.0036 45.3609 31.3123 46.2889 31.3123C46.3592 31.3123 46.4283 31.318 46.5212 31.3282L46.7535 31.3758L47.4527 29.5582C47.2906 29.4959 47.2668 29.4959 47.2442 29.488Z&quot; fill=&quot;currentColor&quot;></path>
                        <path d=&quot;M41.3915 31.0676H42.3898L42.6685 29.5015H41.6714L41.9501 28.0239H40.0238L39.1184 32.9372L39.0255 33.446L38.9088 34.0794C38.885 34.2834 38.8623 34.476 38.8623 34.6562C38.8623 35.5695 39.396 36.0704 40.3943 36.0704C40.8351 36.0704 41.2532 36.0069 41.7869 35.8608L42.0419 34.433C41.9048 34.4749 41.7416 34.4953 41.532 34.4953C41.0685 34.4953 40.8578 34.3525 40.8578 34.0194C40.8578 33.9605 40.8578 33.871 40.8816 33.7531L41.3915 31.0676Z&quot; fill=&quot;currentColor&quot;></path>
                        <path d=&quot;M53.7156 34.9326C53.4369 34.9326 53.2046 35.1581 53.2046 35.4335C53.2046 35.7122 53.4369 35.9377 53.7156 35.9377C53.9944 35.9377 54.2267 35.7122 54.2267 35.4335C54.2267 35.1592 53.9944 34.9326 53.7156 34.9326ZM53.7156 35.8176C53.5071 35.8176 53.3213 35.6465 53.3213 35.4335C53.3213 35.2227 53.5071 35.0527 53.7156 35.0527C53.9264 35.0527 54.0873 35.2227 54.0873 35.4335C54.0873 35.6465 53.9264 35.8176 53.7156 35.8176Z&quot; fill=&quot;currentColor&quot;></path>
                        <path d=&quot;M50.4668 29.3188C48.1462 29.3188 46.6379 30.8656 46.6379 33.1443C46.6379 34.7772 47.5184 36.112 49.7258 36.112C51.7201 36.112 53.2056 35.1613 53.5082 33.022C53.5547 32.648 53.5547 32.622 53.5547 32.2231C53.5547 30.5891 52.4872 29.3188 50.4668 29.3188ZM51.4187 32.9664C51.2566 33.9693 50.3524 34.5438 49.9343 34.5438C49.2374 34.5574 48.8204 33.9693 48.8204 33.0956C48.8204 32.0622 49.4232 30.8894 50.4215 30.8894C51.2102 30.8894 51.4878 31.5273 51.4878 32.1982C51.4878 32.4769 51.4651 32.7307 51.4187 32.9664Z&quot; fill=&quot;currentColor&quot;></path>
                        <path d=&quot;M33.243 33.2703C33.4074 32.6176 33.4776 32.1552 33.4776 31.6793C33.4776 30.2527 32.4555 29.3428 30.8555 29.3428C28.9054 29.3428 27.4674 30.9688 27.4674 33.1751C27.4663 35.0731 28.604 36.0601 30.7853 36.0601C31.4583 36.0601 32.1076 35.9751 32.7581 35.8006L33.0821 34.1892C32.3864 34.4725 31.7598 34.5983 31.0629 34.5983C29.949 34.5983 29.3688 34.2187 29.3688 33.4731C29.3688 33.413 29.3688 33.3688 29.3926 33.2703H33.243ZM30.8317 30.8159C31.4119 30.8159 31.7371 31.1207 31.7371 31.6431C31.7371 31.7292 31.7371 31.8357 31.7371 31.9739L29.5785 31.9717C29.7643 31.2238 30.2062 30.8159 30.8317 30.8159Z&quot; fill=&quot;currentColor&quot;></path>
                        <path d=&quot;M28.1224 38.937C28.4069 39.5466 28.7389 40.1279 29.0924 40.6957H34.9202C35.2737 40.1302 35.5933 39.5444 35.8765 38.937H28.1224Z&quot; fill=&quot;currentColor&quot;></path>
                        <path d=&quot;M30.3151 42.3828C30.8352 43.0208 31.3859 43.6293 31.9944 44.1777C32.008 44.1652 32.0227 44.1551 32.0363 44.1415H32.0386C32.6369 43.5964 33.1955 43.0094 33.7066 42.3828H30.3151Z&quot; fill=&quot;currentColor&quot;></path>
                    </svg>;
">
                        <path d="M35.8459 24.9995H28.3592C27.881 25.9049 27.5638 26.5893 27.4742 26.7593H36.5553C36.3502 26.1542 36.1145 25.5684 35.8459 24.9995Z" fill="currentColor"></path>
                        <path d="M24.5643 29.3589C23.8448 29.3589 23.2181 29.4507 22.2436 29.6977L21.9887 31.147L22.1507 31.1051L22.4295 31.0348C22.8465 30.9238 23.4731 30.8569 24.0306 30.8569C24.9348 30.8569 25.2838 31.0155 25.2838 31.4405C25.2838 31.5583 25.2601 31.6467 25.2136 31.8586C24.9122 31.8269 24.6334 31.8087 24.4249 31.8087C22.2674 31.8087 21.0142 32.7255 21.0142 34.2892C21.0142 35.3294 21.7337 36.0467 22.7785 36.0467C23.6601 36.0467 24.3343 35.7985 24.8204 35.2694L24.7739 35.9357H26.3977L26.4204 35.7612L26.4442 35.5402L26.4906 35.2138L26.5598 34.8059L26.9779 32.5192C27.0946 31.8031 27.1173 31.5617 27.1173 31.2444C27.1173 30.0138 26.2357 29.3589 24.5643 29.3589ZM23.5909 34.6824C23.1501 34.6824 22.8952 34.424 22.8952 34.0263C22.8952 33.3759 23.4527 33.0473 24.5428 33.0473C24.6822 33.0473 24.7751 33.0507 24.9847 33.0722C24.9371 34.024 24.3796 34.6824 23.5909 34.6824Z" fill="currentColor"></path>
                        <path d="M18.4623 28.0249L16.3037 32.9258L16.1643 28.0249H13.1241L11.6147 35.9388H13.3779L14.5383 29.8923L14.8635 35.9388H16.6278L19.2963 29.8538L18.136 35.9388H20.085L21.617 28.0249H18.4623Z" fill="currentColor"></path>
                        <path d="M53.9015 35.3464C53.9003 35.3034 53.8777 35.2592 53.855 35.2354C53.8085 35.2127 53.7621 35.2104 53.7394 35.2104H53.5536V35.6546H53.6465V35.4813H53.7156L53.7859 35.6546H53.9015L53.8323 35.462C53.8788 35.4427 53.9015 35.3952 53.9015 35.3464ZM53.7621 35.3963C53.7394 35.4054 53.7156 35.4054 53.7156 35.4054H53.6454V35.2898H53.6941C53.7168 35.2898 53.7632 35.2898 53.7632 35.3C53.787 35.309 53.787 35.3272 53.787 35.3442C53.787 35.3634 53.7847 35.3861 53.7621 35.3963Z" fill="currentColor"></path>
                        <path d="M57.9762 41.0051C57.9739 40.9609 57.9524 40.9167 57.9286 40.8941C57.8822 40.8714 57.8357 40.8691 57.8119 40.8691H57.6272V41.3133H57.7201V41.1388H57.7892L57.8595 41.3133H57.9762L57.906 41.1196C57.9524 41.1026 57.9762 41.055 57.9762 41.0051ZM57.8357 41.055C57.8119 41.064 57.7892 41.064 57.7892 41.064H57.719V40.9496H57.7654C57.7892 40.9496 57.8357 40.9496 57.8357 40.9587C57.8595 40.9677 57.8595 40.987 57.8595 41.0029C57.8595 41.0232 57.8595 41.0436 57.8357 41.055Z" fill="currentColor"></path>
                        <path d="M62.3524 11.2622H1.64759C0.736544 11.2622 0 11.9999 0 12.9098V51.0911C0 52.001 0.736544 52.7387 1.64759 52.7387H62.3524C63.2635 52.7387 64 52.001 64 51.0911V12.9098C64 11.9999 63.2635 11.2622 62.3524 11.2622ZM58.2538 41.3801C58.2062 41.4662 58.1416 41.5319 58.0578 41.5784C57.9739 41.6248 57.8856 41.6486 57.7949 41.6486C57.702 41.6486 57.6136 41.6248 57.5297 41.5784C57.447 41.5319 57.3813 41.4662 57.3326 41.3801C57.2861 41.2973 57.2623 41.209 57.2623 41.1172C57.2623 41.0254 57.2861 40.9381 57.3337 40.852C57.3802 40.7659 57.4482 40.7013 57.532 40.6548C57.617 40.6106 57.7031 40.5869 57.7938 40.5869C57.8833 40.5869 57.9694 40.6106 58.0533 40.6548C58.1382 40.7013 58.2051 40.7659 58.2516 40.852C58.2992 40.9381 58.3218 41.0265 58.3218 41.1172C58.3218 41.2078 58.3014 41.2996 58.2538 41.3801ZM59.4414 32.001C59.4436 41.0718 52.0941 48.4282 43.0221 48.4305C38.7796 48.4316 34.911 46.8237 31.9966 44.1823C29.0822 46.8191 25.2215 48.4259 20.9858 48.4259C11.9195 48.4259 4.56091 41.0684 4.56091 32.001C4.56091 22.9699 11.8618 15.6339 20.8805 15.575C20.9156 15.575 20.9507 15.575 20.9858 15.575C25.2215 15.575 29.0833 17.1818 31.9977 19.8186C34.911 17.1806 38.7751 15.5727 43.0142 15.5716C52.0861 15.5682 59.4414 22.9211 59.4436 31.9931C59.4414 31.9953 59.4414 31.9965 59.4414 32.001Z" fill="currentColor"></path>
                        <path d="M33.6237 21.5151H30.5031C30.0838 22.0817 29.6895 22.6845 29.3325 23.2738H34.8997C34.5133 22.6596 34.0861 22.0726 33.6237 21.5151Z" fill="currentColor"></path>
                        <path d="M37.0753 30.8781C37.4708 30.8781 37.9807 30.9121 38.4918 30.9722L38.7705 29.4843C38.2595 29.4141 37.4935 29.3574 37.0289 29.3574C34.8487 29.3574 34.0804 30.3478 34.0816 31.5319C34.0816 32.3433 34.5462 32.9042 35.5898 33.3257C36.3773 33.6464 36.4952 33.7416 36.4952 34.0362C36.4952 34.435 36.1484 34.6163 35.3824 34.6163C34.7773 34.6163 34.2447 34.537 33.617 34.3625L33.3394 35.8469L33.4323 35.8639L33.7801 35.9274C33.8957 35.9501 34.0816 35.9693 34.3139 35.9852C34.7773 36.0192 35.1241 36.0384 35.3801 36.0384C37.4697 36.0384 38.4215 35.3597 38.4215 33.8923C38.4215 33.0084 38.0272 32.4928 37.0289 32.1008C36.2164 31.7756 36.1235 31.7019 36.1235 31.4005C36.1235 31.0549 36.4476 30.8781 37.0753 30.8781Z" fill="currentColor"></path>
                        <path d="M47.2442 29.488C47.1501 29.4653 47.0799 29.4529 47.0799 29.4495C47.0107 29.4393 46.9405 29.4336 46.8702 29.4336C46.2425 29.4336 45.779 29.7191 45.1762 30.4795L45.362 29.5027H43.5977L42.4136 35.939H44.3637C45.0606 32.0036 45.3609 31.3123 46.2889 31.3123C46.3592 31.3123 46.4283 31.318 46.5212 31.3282L46.7535 31.3758L47.4527 29.5582C47.2906 29.4959 47.2668 29.4959 47.2442 29.488Z" fill="currentColor"></path>
                        <path d="M41.3915 31.0676H42.3898L42.6685 29.5015H41.6714L41.9501 28.0239H40.0238L39.1184 32.9372L39.0255 33.446L38.9088 34.0794C38.885 34.2834 38.8623 34.476 38.8623 34.6562C38.8623 35.5695 39.396 36.0704 40.3943 36.0704C40.8351 36.0704 41.2532 36.0069 41.7869 35.8608L42.0419 34.433C41.9048 34.4749 41.7416 34.4953 41.532 34.4953C41.0685 34.4953 40.8578 34.3525 40.8578 34.0194C40.8578 33.9605 40.8578 33.871 40.8816 33.7531L41.3915 31.0676Z" fill="currentColor"></path>
                        <path d="M53.7156 34.9326C53.4369 34.9326 53.2046 35.1581 53.2046 35.4335C53.2046 35.7122 53.4369 35.9377 53.7156 35.9377C53.9944 35.9377 54.2267 35.7122 54.2267 35.4335C54.2267 35.1592 53.9944 34.9326 53.7156 34.9326ZM53.7156 35.8176C53.5071 35.8176 53.3213 35.6465 53.3213 35.4335C53.3213 35.2227 53.5071 35.0527 53.7156 35.0527C53.9264 35.0527 54.0873 35.2227 54.0873 35.4335C54.0873 35.6465 53.9264 35.8176 53.7156 35.8176Z" fill="currentColor"></path>
                        <path d="M50.4668 29.3188C48.1462 29.3188 46.6379 30.8656 46.6379 33.1443C46.6379 34.7772 47.5184 36.112 49.7258 36.112C51.7201 36.112 53.2056 35.1613 53.5082 33.022C53.5547 32.648 53.5547 32.622 53.5547 32.2231C53.5547 30.5891 52.4872 29.3188 50.4668 29.3188ZM51.4187 32.9664C51.2566 33.9693 50.3524 34.5438 49.9343 34.5438C49.2374 34.5574 48.8204 33.9693 48.8204 33.0956C48.8204 32.0622 49.4232 30.8894 50.4215 30.8894C51.2102 30.8894 51.4878 31.5273 51.4878 32.1982C51.4878 32.4769 51.4651 32.7307 51.4187 32.9664Z" fill="currentColor"></path>
                        <path d="M33.243 33.2703C33.4074 32.6176 33.4776 32.1552 33.4776 31.6793C33.4776 30.2527 32.4555 29.3428 30.8555 29.3428C28.9054 29.3428 27.4674 30.9688 27.4674 33.1751C27.4663 35.0731 28.604 36.0601 30.7853 36.0601C31.4583 36.0601 32.1076 35.9751 32.7581 35.8006L33.0821 34.1892C32.3864 34.4725 31.7598 34.5983 31.0629 34.5983C29.949 34.5983 29.3688 34.2187 29.3688 33.4731C29.3688 33.413 29.3688 33.3688 29.3926 33.2703H33.243ZM30.8317 30.8159C31.4119 30.8159 31.7371 31.1207 31.7371 31.6431C31.7371 31.7292 31.7371 31.8357 31.7371 31.9739L29.5785 31.9717C29.7643 31.2238 30.2062 30.8159 30.8317 30.8159Z" fill="currentColor"></path>
                        <path d="M28.1224 38.937C28.4069 39.5466 28.7389 40.1279 29.0924 40.6957H34.9202C35.2737 40.1302 35.5933 39.5444 35.8765 38.937H28.1224Z" fill="currentColor"></path>
                        <path d="M30.3151 42.3828C30.8352 43.0208 31.3859 43.6293 31.9944 44.1777C32.008 44.1652 32.0227 44.1551 32.0363 44.1415H32.0386C32.6369 43.5964 33.1955 43.0094 33.7066 42.3828H30.3151Z" fill="currentColor"></path>
                    </svg>
