<svg xmlns="http://www.w3.org/2000/svg" width="64" height="64" viewBox="0 0 64 64" fill="none">
                        <path d="M6.72746 23.8584C6.7082 23.9037 6.6844 23.9491 6.66967 23.9966C6.49177 24.5949 6.62888 25.1423 7.11047 25.6148C7.53086 26.0272 8.1065 25.8913 8.65834 25.8969C8.65834 24.8975 8.65834 23.9275 8.65834 22.9428C7.55806 22.8046 7.08554 23.0346 6.72746 23.8584Z" fill="currentColor"></path>
                        <path d="M7.10142 33.2417C7.10256 33.4468 7.10482 33.6315 7.10256 33.8173C7.09349 35.0219 7.09576 36.2298 6.75468 37.4071C6.58584 37.9941 6.30596 38.5584 6.07593 39.1306C6.93145 39.1306 7.8425 39.1306 8.76148 39.1306C8.76148 37.1442 8.76148 35.1884 8.76148 33.2417C8.19717 33.2417 7.6578 33.2417 7.10142 33.2417Z" fill="currentColor"></path>
                        <path d="M15.5536 33.4797C15.3915 33.2055 15.1525 32.9936 14.7491 32.9755C14.3366 32.9551 14.0907 33.1681 13.906 33.4276C13.472 34.0384 13.3451 34.7171 13.2771 35.4401C14.1949 35.4401 15.0663 35.4401 15.9683 35.4401C15.9717 34.7545 15.9128 34.0939 15.5536 33.4797Z" fill="currentColor"></path>
                        <path d="M28.9484 37.0685C28.7648 36.1836 28.0544 35.8289 26.9903 36.0544C26.9122 36.0714 26.8034 36.1722 26.8034 36.2346C26.7898 37.1751 26.7943 38.1178 26.7943 39.0731C27.8572 39.3258 28.7388 38.9167 28.9416 38.0578C29.0164 37.7394 29.0141 37.3881 28.9484 37.0685Z" fill="currentColor"></path>
                        <path d="M62.3524 11.2622H1.64759C0.736544 11.2622 0 11.9999 0 12.9098V51.09C0 51.9999 0.736544 52.7387 1.64759 52.7387H62.3524C63.2635 52.7387 64 52.001 64 51.0911V12.9098C64 11.9999 63.2635 11.2622 62.3524 11.2622ZM26.1144 26.6084C26.1677 26.0407 26.3331 25.5002 26.7524 25.0333C27.2975 24.4282 28.2969 24.3138 29.0266 24.7931C28.928 24.9177 28.8374 25.0322 28.749 25.1421C28.7173 25.1466 28.698 25.1546 28.681 25.15C27.7972 24.9109 27.2657 25.1251 26.9983 25.8492C26.8011 26.3784 26.7592 26.9245 26.8737 27.4673C27.0912 28.5143 27.9195 28.8769 29.1229 28.4758C29.234 28.9631 29.1705 29.0231 28.6028 29.1557C27.7994 29.3449 27.0164 29.0639 26.5666 28.4656C26.136 27.8934 26.0555 27.2599 26.1144 26.6084ZM6.55071 22.7976C6.92125 22.4701 7.37224 22.3002 7.91615 22.3024C8.30142 22.3036 8.68555 22.3024 9.07195 22.3024C9.49122 22.3036 9.49235 22.3024 9.49235 22.639C9.49235 24.6639 9.49235 26.6888 9.49235 28.7126C9.49235 28.835 9.49235 28.9551 9.49235 29.0979C9.2204 29.0979 8.96997 29.0979 8.68102 29.0979C8.68102 28.2673 8.68102 27.4356 8.68102 26.6106C8.20283 26.5189 8.1779 26.5279 7.97507 26.8407C7.53541 27.5228 7.08555 28.2005 6.66176 28.8883C6.55071 29.0662 6.4272 29.1432 6.18697 29.1217C6.00567 29.1058 5.81983 29.1183 5.57847 29.1183C6.1711 28.2254 6.73654 27.3733 7.30538 26.5189C5.61246 26.0622 5.27819 23.9228 6.55071 22.7976ZM11.0448 41.6985C10.6504 41.6985 10.2697 41.6985 9.85496 41.6985C9.85496 41.1421 9.85496 40.5948 9.85496 40.0293C8.36487 40.0293 6.90652 40.0293 5.4187 40.0293C5.4187 40.5767 5.4187 41.124 5.4187 41.6917C4.99717 41.6917 4.60737 41.6917 4.19377 41.6917C4.19377 40.8543 4.19377 40.0157 4.19377 39.1727C4.22323 39.1648 4.25269 39.1444 4.27649 39.1489C4.72974 39.2237 4.90765 39.0152 5.05609 38.7002C5.50482 37.7404 5.72918 36.7444 5.8119 35.7291C5.90482 34.5857 5.93201 33.4378 5.98867 32.2718C7.31898 32.2718 8.68329 32.2718 10.0918 32.2718C10.0918 34.5676 10.0918 36.8429 10.0918 39.141C10.4147 39.141 10.7173 39.141 11.0448 39.141C11.0448 40.0044 11.0448 40.8452 11.0448 41.6985ZM11.5003 29.1126C11.2442 29.1126 11.0232 29.1126 10.7785 29.1126C10.7785 27.6429 10.7785 26.1767 10.7785 24.6843C11.0153 24.6843 11.2306 24.6843 11.4788 24.6843C11.4788 25.2803 11.4788 25.8707 11.4788 26.4792C11.9377 26.4792 12.3626 26.4792 12.8181 26.4792C12.8181 25.8832 12.8181 25.2928 12.8181 24.69C13.072 24.69 13.2929 24.69 13.5354 24.69C13.5354 26.1642 13.5354 27.6316 13.5354 29.1149C13.2986 29.1149 13.0776 29.1149 12.8227 29.1149C12.8227 28.452 12.8227 27.7982 12.8227 27.1296C12.3728 27.1296 11.9535 27.1296 11.5003 27.1296C11.5003 27.788 11.5003 28.4407 11.5003 29.1126ZM13.5014 39.967C12.885 39.6645 12.5144 39.1931 12.2958 38.6514C11.5683 36.8588 11.6499 35.082 12.5994 33.3563C12.9235 32.7682 13.4051 32.2718 14.1949 32.0577C14.9552 31.8514 15.5649 31.9999 16.0714 32.5098C16.6436 33.0877 16.9201 33.7767 17.0595 34.4939C17.1694 35.0673 17.1751 35.6577 17.2295 36.2639C15.9025 36.2639 14.6278 36.2639 13.3133 36.2639C13.3246 36.9937 13.3144 37.6826 13.5785 38.3512C13.9207 39.2214 14.7048 39.5523 15.9048 39.3075C16.2754 39.2316 16.6244 39.0934 17.013 38.9755C17.0878 39.1546 17.1717 39.3631 17.2544 39.5659C16.2074 40.3002 14.536 40.4747 13.5014 39.967ZM18.1235 29.9398C17.9309 29.9398 17.7303 29.9398 17.4924 29.9398C17.4924 29.6497 17.4924 29.3529 17.4924 29.039C16.6436 29.039 15.8323 29.039 14.9847 29.039C14.9847 29.3359 14.9847 29.6327 14.9847 29.9444C14.7467 29.9444 14.5439 29.9444 14.3173 29.9444C14.3173 29.4888 14.3173 29.031 14.3173 28.5506C14.6765 28.5982 14.7456 28.3704 14.8385 28.1574C15.2147 27.2939 15.2476 26.3908 15.2861 25.4888C15.2975 25.2293 15.2873 24.971 15.2873 24.6832C16.0771 24.6832 16.8238 24.6832 17.6023 24.6832C17.6023 25.9648 17.6023 27.2361 17.6023 28.5245C17.7881 28.5313 17.9422 28.5381 18.1235 28.5449C18.1235 29.0016 18.1235 29.4616 18.1235 29.9398ZM19.1026 25.3631C19.2249 25.1478 19.3994 24.9359 19.6068 24.7704C20.1586 24.3274 20.8533 24.4135 21.2544 24.9529C21.711 25.567 21.7994 26.2424 21.7518 26.9631C21.021 26.9631 20.3048 26.9631 19.5592 26.9631C19.5433 27.4446 19.5309 27.9047 19.7904 28.333C20.0113 28.699 20.4261 28.8282 21.0074 28.7104C21.2159 28.6684 21.4153 28.5959 21.6227 28.5359C21.8584 28.7874 21.8493 28.8951 21.5082 29.014C21.2023 29.1206 20.8771 29.2123 20.5518 29.2463C19.8788 29.3177 19.2986 29.0299 19.0448 28.4667C18.8714 28.0837 18.7592 27.6701 18.7082 27.2633C18.6266 26.6084 18.7569 25.9648 19.1026 25.3631ZM23.6272 40.0905C23.2045 40.0905 22.7966 40.0905 22.3558 40.0905C22.3558 38.9177 22.3558 37.7506 22.3558 36.5495C21.7552 36.5495 21.1864 36.5495 20.6176 36.5495C20.017 36.5495 20.017 36.5472 20.017 37.0503C20.0159 37.9614 20.017 38.8724 20.017 39.7835C20.017 39.8798 20.017 39.9772 20.017 40.0905C19.5819 40.0905 19.1751 40.0905 18.7501 40.0905C18.7501 37.4832 18.7501 34.8837 18.7501 32.2696C19.1626 32.2696 19.5615 32.2696 20.0011 32.2696C20.0011 33.3381 20.0011 34.3897 20.0011 35.4673C20.8125 35.4673 21.5603 35.4673 22.3467 35.4673C22.3467 34.3999 22.3467 33.3381 22.3467 32.265C22.7456 32.265 23.1093 32.2582 23.4708 32.273C23.5297 32.2752 23.5898 32.3625 23.6374 32.418C23.6567 32.4407 23.6408 32.4815 23.6408 32.5143C23.6408 34.9631 23.6408 37.4106 23.6419 39.8605C23.6419 39.9308 23.6329 40.0044 23.6272 40.0905ZM25.1105 29.0095C25.0334 29.0005 24.9518 28.9041 24.9043 28.8316C24.5394 28.2922 24.1824 27.7495 23.821 27.2067C23.77 27.1296 23.7122 27.056 23.5773 26.9733C23.532 27.1455 23.4527 27.3177 23.4459 27.49C23.4278 27.992 23.4391 28.4939 23.4391 29.0072C23.1887 29.0072 22.9745 29.0072 22.7365 29.0072C22.7365 27.5761 22.7365 26.1415 22.7365 24.6843C22.97 24.6843 23.183 24.6843 23.4289 24.6843C23.4289 25.3019 23.4289 25.907 23.4289 26.588C23.5377 26.4826 23.5943 26.4361 23.6397 26.3829C24.0385 25.9081 24.4521 25.4412 24.8249 24.9517C24.9949 24.7296 25.1841 24.6288 25.4935 24.6707C25.5705 24.6809 25.6499 24.6718 25.787 24.6718C25.7144 24.767 25.6691 24.8316 25.617 24.8951C25.1921 25.405 24.7739 25.9183 24.3365 26.4203C24.2187 26.5551 24.2255 26.6537 24.3173 26.7897C24.8023 27.516 25.2759 28.2446 25.7836 29.0186C25.5286 29.0186 25.3167 29.0356 25.1105 29.0095ZM30.4997 38.5585C30.0873 39.5013 29.2068 39.9614 28.0521 40.0452C27.2816 40.103 26.5009 40.0565 25.6929 40.0565C25.6929 37.4072 25.6929 34.8463 25.6929 32.2696C26.051 32.2696 26.4 32.2696 26.7853 32.2696C26.7853 33.2033 26.7853 34.1438 26.7853 35.0718C27.328 35.0718 27.8402 35.0401 28.3433 35.0786C29.6204 35.1818 30.4204 35.822 30.6323 36.8747C30.7456 37.4469 30.7411 38.0157 30.4997 38.5585ZM36.4884 33.0503C35.3235 33.0503 34.1552 33.0503 32.962 33.0503C32.962 35.4129 32.962 37.7438 32.962 40.0894C32.5666 40.0894 32.196 40.0894 31.8028 40.0894C31.8028 37.4866 31.8028 34.8826 31.8028 32.2616C33.379 32.2616 34.9246 32.2616 36.4907 32.2616C36.4907 32.5234 36.4907 32.7716 36.4884 33.0503ZM40.7467 40.0905C40.7467 38.3806 40.7467 36.6707 40.7467 34.9495C39.949 36.6775 39.1581 38.3886 38.3705 40.0973C37.9399 40.0973 37.5467 40.0973 37.1263 40.0973C37.1263 37.4877 37.1263 34.8849 37.1263 32.265C37.5467 32.265 37.9547 32.265 38.3943 32.265C38.3943 33.8832 38.3943 35.4877 38.3943 37.0911C38.4147 37.0945 38.4329 37.0979 38.4544 37.1013C38.6754 36.6288 38.9008 36.1585 39.1195 35.686C39.6181 34.6073 40.1201 33.5319 40.6142 32.452C40.6833 32.2968 40.7751 32.239 40.979 32.2469C41.3711 32.2639 41.7654 32.2526 42.1745 32.2526C42.1745 34.8781 42.1745 37.4775 42.1756 40.0905C41.7043 40.0905 41.2431 40.0905 40.7467 40.0905ZM59.4674 39.9398C59.1955 40.1631 58.8612 40.239 58.4986 40.239C56.8272 40.2412 55.1592 40.239 53.4901 40.239C51.8108 40.239 50.1314 40.2412 48.4533 40.239C47.6125 40.2367 47.0051 39.856 46.7705 39.192C46.7399 39.1013 46.7297 39.0005 46.7297 38.9041C46.7275 36.9506 46.7331 34.9982 46.7252 33.0446C46.7218 32.3557 47.1127 31.873 47.8142 31.5376C50.196 30.4033 52.5779 29.269 54.9586 28.1325C55.3484 27.9466 55.745 27.8186 56.1938 27.9795C56.5836 28.1211 56.7513 28.3942 56.7535 28.7217C56.7603 30.7897 56.7807 32.8577 56.7422 34.9234C56.7297 35.5614 56.3207 36.069 55.5626 36.3228C53.881 36.8871 52.196 37.4401 50.5133 37.9988C50.0929 38.1381 49.6714 38.2741 49.2533 38.4214C49.1207 38.469 48.987 38.5359 48.8839 38.6186C48.8057 38.6854 48.706 38.8225 48.7377 38.8781C48.7887 38.9597 48.9439 39.0469 49.0561 39.0469C49.3167 39.048 49.5864 39.0197 49.8402 38.9642C52.1077 38.4724 54.3717 37.9682 56.638 37.4684C57.3666 37.3064 57.9751 36.6684 57.9773 36.0452C57.9841 34.8565 57.9887 33.6679 57.9728 32.4803C57.9705 32.2367 58.051 32.1359 58.3558 32.1676C58.5133 32.1846 58.6708 32.1676 58.8295 32.1699C59.3496 32.1767 59.7054 32.4316 59.7813 32.8565C59.8028 32.9744 59.8051 33.1013 59.8051 33.2214C59.8074 35.1262 59.8074 37.0288 59.8062 38.9347C59.8062 39.2939 59.8221 39.6543 59.4674 39.9398Z" fill="currentColor"></path>
                        <path d="M53.9139 31.4615C53.3519 31.5329 52.9847 31.8083 52.8148 32.2457C52.6301 32.7182 52.927 33.0933 53.4595 33.0955C54.0964 33.0967 54.7434 32.4972 54.6629 31.9794C54.6097 31.6451 54.2856 31.4151 53.9139 31.4615Z" fill="currentColor"></path>
                        <path d="M15.9456 25.2271C15.8968 26.35 15.9886 27.4763 15.3121 28.5222C15.847 28.5222 16.3433 28.5222 16.8713 28.5222C16.8713 27.4118 16.8713 26.3251 16.8713 25.2271C16.5541 25.2271 16.2549 25.2271 15.9456 25.2271Z" fill="currentColor"></path>
                        <path d="M20.7955 25.3124C20.5768 24.9917 20.1678 24.9815 19.9219 25.2886C19.6386 25.6433 19.5559 26.0444 19.5332 26.4773C20.042 26.4773 20.5292 26.4773 21.0607 26.4773C21.0697 26.0626 21.0403 25.6694 20.7955 25.3124Z" fill="currentColor"></path>
                    </svg>
