<svg xmlns="http://www.w3.org/2000/svg" width="64" height="64" viewBox="0 0 64 64" fill="none">
                        <path d="M62.3524 11.2622H1.64759C0.736544 11.2622 0 11.9999 0 12.9098V51.0911C0 52.001 0.736544 52.7387 1.64759 52.7387H62.3524C63.2635 52.7387 64 52.001 64 51.0911V12.9098C64 11.9999 63.2635 11.2622 62.3524 11.2622ZM59.132 29.7495L58.2493 30.5461L57.4527 29.6611L58.3365 28.8645L59.132 29.7495ZM54.5858 28.9778L53.3904 27.6497L54.7184 26.4543L55.9139 27.7823L54.5858 28.9778ZM55.9411 29.124L57.1377 30.4509L55.8096 31.6463L54.6142 30.3194L55.9411 29.124ZM53.506 28.6843L51.736 30.2775L50.1439 28.5075L51.9139 26.9143L53.506 28.6843ZM53.1785 29.9342L54.7717 31.7041L53.0017 33.2962L51.4085 31.5262L53.1785 29.9342ZM54.4374 32.9937L56.0306 34.7636L54.2606 36.3591L52.6674 34.5891L54.4374 32.9937ZM55.7484 33.124L57.0765 31.9274L58.2731 33.2554L56.945 34.4509L55.7484 33.124ZM58.0034 27.1183L57.1184 27.9149L56.3218 27.0299L57.2068 26.2333L58.0034 27.1183ZM9.28045 34.9529H8.36261L7.20793 30.716H7.14788L6.0272 34.9529H5.10935L3.73371 28.9336H4.68555L5.63626 33.4254H5.69632L6.8 28.9336H7.55581L8.73654 33.4254H8.7966L9.66346 28.9336H10.6572L9.28045 34.9529ZM14.5473 32.9937H11.7802C11.7802 34.0112 12.196 34.4633 13.0708 34.4633C13.5286 34.4633 13.9535 34.3013 14.4204 34.0214V34.6662C14.0385 34.886 13.5286 35.0571 12.9178 35.0571C11.4912 35.0571 10.9054 34.1744 10.9054 32.8316C10.9054 31.541 11.5592 30.6084 12.8329 30.6084C13.8946 30.6084 14.5484 31.2962 14.5484 32.682L14.5473 32.9937ZM16.9756 35.056C16.5258 35.056 15.8289 34.9109 15.319 34.6401V28.7138L16.2017 28.5019V30.9223C16.4578 30.7863 16.8895 30.6084 17.3496 30.6084C18.4023 30.6084 18.9711 31.3393 18.9711 32.6979C18.9711 34.2854 18.2074 35.056 16.9756 35.056ZM25.7496 34.9529H25.7473H24.8306V30.588H24.7547L23.0221 34.9529H22.4793L20.7467 30.69H20.6708V34.9529H19.9071V28.9336H20.9337L22.8363 33.6803H22.8793L24.6969 28.9336H25.7496V34.9529ZM28.6187 35.056C27.4561 35.056 26.6822 34.282 26.6822 32.8305C26.6822 31.3438 27.498 30.6072 28.6187 30.6072C29.7394 30.6072 30.5552 31.3461 30.5552 32.8305C30.5552 34.2854 29.7824 35.056 28.6187 35.056ZM34.928 34.9529H34.0453V32.0735C34.0453 31.4039 33.7156 31.2849 33.2805 31.2849C32.9405 31.2849 32.5076 31.4378 32.2448 31.5908V34.9529H31.362V31.2339C31.7439 31.005 32.5507 30.6061 33.5275 30.6061C34.5462 30.6061 34.928 31.005 34.928 31.8798V34.9529ZM39.3609 32.9937H36.5926C36.5926 34.0112 37.0085 34.4633 37.8856 34.4633C38.3433 34.4633 38.7683 34.3013 39.234 34.0214V34.6662C38.851 34.886 38.3433 35.0571 37.7303 35.0571C36.3037 35.0571 35.7201 34.1744 35.7201 32.8316C35.7201 31.541 36.3739 30.6084 37.6465 30.6084C38.7094 30.6084 39.3632 31.2962 39.3632 32.682L39.3609 32.9937ZM42.0351 34.9971C41.6102 36.1676 41.0924 36.7795 40.1178 36.7795V36.0837C40.6958 36.0837 41.0504 35.6259 41.2555 34.9971L39.6261 30.75H40.5598L41.6465 33.8752H41.6975L42.6652 30.75H43.5739L42.0351 34.9971ZM56.434 38.4724C55.3518 39.09 54.0975 39.4424 52.766 39.4424C48.6674 39.4424 45.3235 36.0996 45.3235 32.001C45.3235 27.9024 48.6674 24.5585 52.766 24.5585C53.9331 24.5585 55.0414 24.8305 56.0272 25.3132C56.1824 25.3869 56.3365 25.4684 56.4895 25.5568L55.8051 26.1699L54.7762 25.1058L53.0391 26.656L52.0091 25.5296L48.7717 28.4463L50.8465 30.7342L50.0306 31.4503L52.0748 33.7404L51.2635 34.4565L54.1847 37.7075L55.9161 36.1121L57.4142 37.8231C57.1173 38.052 56.7932 38.2696 56.434 38.4724ZM58.1122 37.1308L56.9156 35.805L58.2436 34.6084L59.4391 35.9353L58.1122 37.1308ZM59.379 33.1738L58.5824 32.2888L59.4674 31.4922L60.264 32.3772L59.379 33.1738Z" fill="currentColor"></path>
                        <path d="M28.6187 31.2021C28.059 31.2021 27.574 31.6849 27.574 32.8316C27.574 33.9954 28.0159 34.4622 28.6187 34.4622C29.2216 34.4622 29.6635 33.9954 29.6635 32.8316C29.6635 31.6837 29.1955 31.2021 28.6187 31.2021Z" fill="currentColor"></path>
                        <path d="M17.1196 31.2705C16.7819 31.2705 16.5349 31.3634 16.1949 31.5504V34.3277C16.4669 34.4467 16.7627 34.4637 16.9757 34.4637C17.6046 34.4637 18.0805 34.0728 18.0805 32.6971C18.0805 31.6184 17.6884 31.2705 17.1196 31.2705Z" fill="currentColor"></path>
                        <path d="M37.6205 31.1763C37.1015 31.1763 36.7026 31.5751 36.6074 32.4239H38.5542C38.5122 31.5332 38.0782 31.1763 37.6205 31.1763Z" fill="currentColor"></path>
                        <path d="M12.8068 31.1763C12.2889 31.1763 11.8889 31.5751 11.796 32.4239H13.7405C13.6986 31.5332 13.2657 31.1763 12.8068 31.1763Z" fill="currentColor"></path>
                    </svg>
