<svg xmlns="http://www.w3.org/2000/svg" width="64" height="42" viewBox="0 0 64 42" fill="none">
                        <rect width="64" height="42" rx="2" fill="currentColor"></rect>
                        <g clip-path="url(#clip0)">
                            <path d="M27.4111 31.2715C27.3198 31.0151 27.1542 30.8403 27.0343 30.6131C26.7432 30.2227 26.4006 29.8847 26.0581 29.5468C25.9382 29.506 25.8868 29.3894 25.7727 29.3428C25.6984 29.2438 25.5786 29.1913 25.4815 29.1156C25.2874 28.9641 25.0762 28.8359 24.8592 28.7077C24.4482 28.4397 23.9401 28.2707 23.4377 28.0959C22.8954 27.9619 22.3245 27.8628 21.7308 27.7812C21.1428 27.6938 20.5548 27.6123 20.1095 27.3734C19.8526 27.2976 19.6642 27.1519 19.4416 27.0354C19.236 26.8955 19.0134 26.779 18.8421 26.6042C18.6309 26.476 18.4996 26.2604 18.334 26.0856C18.2769 25.9691 18.1799 25.8992 18.1342 25.771C18.0771 25.7477 18.06 25.6777 18.0258 25.6369C17.9858 25.5903 17.9858 25.4971 17.9173 25.4796C17.883 25.7185 17.8945 26.004 17.9173 26.2488C17.9458 26.3537 17.9572 26.4818 17.9858 26.5867C18.0029 26.68 18.0886 26.8315 18.0543 26.9014C16.2731 26.8081 14.9715 26.2313 13.8412 25.4738C13.2817 25.095 12.8022 24.6347 12.3569 24.1394C12.1628 23.8656 11.9515 23.6034 11.7803 23.3004C11.6033 23.0032 11.4549 22.6652 11.295 22.3506C11.0324 21.6689 10.7869 20.9696 10.6956 20.1131C10.5757 19.3148 10.6043 18.2951 10.7812 17.5551C10.844 17.1472 10.9753 16.8034 11.0895 16.448C11.1637 16.2848 11.2436 16.1217 11.3122 15.9527C11.4092 15.8129 11.4606 15.6206 11.5805 15.4982C11.9059 14.8747 12.3911 14.4086 12.8878 13.9599C13.4244 13.5579 14.0353 13.2316 14.7717 13.0334C15.4796 12.8703 16.4444 12.8412 17.2094 13.0101C18.7622 13.3364 19.9325 14.0473 20.9144 14.9563C21.9078 15.8478 22.6728 16.9782 23.198 18.3534C23.7403 19.6586 23.9287 21.6922 23.4435 23.1722C23.2436 23.0556 23.0438 22.9449 22.844 22.8342C22.6043 22.7643 22.3702 22.6827 22.0905 22.6536C21.7536 22.6478 21.4225 22.6536 21.2056 22.7643C21.6452 22.7177 21.9991 22.8401 22.2731 22.9449C22.433 23.009 22.5243 23.0498 22.6499 23.1256C22.8954 23.2712 23.1123 23.4053 23.295 23.6034C23.8145 24.0695 24.1856 24.6872 24.3626 25.5029C24.3626 25.5262 24.3911 25.5204 24.3854 25.4796C24.4082 25.4738 24.4197 25.4563 24.4311 25.433C24.4596 25.398 24.4939 25.3631 24.5224 25.3223C24.5795 25.2524 24.6366 25.1824 24.6766 25.095C24.7965 24.9494 24.8935 24.7862 24.9848 24.6172C25.1961 24.3026 25.3559 23.9413 25.5386 23.5975C25.8526 22.8634 26.1095 22.0709 26.2693 21.1736C26.589 19.1808 26.2065 17.2929 25.5386 15.9003C24.8535 14.496 23.8945 13.3714 22.6556 12.5265C21.4054 11.6874 19.9439 11.0698 17.9344 11.0115C17.923 10.9707 17.9059 11.0174 17.8659 11.0115C16.8041 10.9766 15.9477 11.1281 15.0971 11.3495C14.7032 11.4835 14.2922 11.6 13.9439 11.7807C13.5443 11.9147 13.2246 12.1361 12.8592 12.2993C12.7279 12.4275 12.5281 12.4916 12.3911 12.6139C12.2141 12.7013 12.0828 12.8412 11.9059 12.9286C11.6204 13.1849 11.3179 13.4122 11.0381 13.6744C10.7641 13.9308 10.5243 14.2221 10.2617 14.4902C10.2218 14.5834 10.1533 14.6475 10.0847 14.7174C10.0391 14.8048 9.98199 14.8806 9.90777 14.9447C9.87923 15.0495 9.78789 15.0903 9.75363 15.1952C9.67942 15.2535 9.66229 15.37 9.57666 15.4225C9.50245 15.6089 9.37114 15.7429 9.28551 15.9177C9.18275 16.0867 9.10283 16.2732 9.00007 16.4363C8.84022 16.8151 8.66895 17.1822 8.53765 17.5901C8.40064 17.9863 8.28646 18.4058 8.20654 18.8603C8.1209 19.2857 8.04098 19.8392 8.0524 20.2879C7.99531 20.451 8.04098 20.754 8.0524 20.9463C8.0524 20.9813 8.02956 20.9929 8.02956 21.0162C8.02956 21.2318 8.08665 21.494 8.09807 21.6281C8.14374 22.1233 8.22937 22.5837 8.36638 22.9857C8.45202 23.4344 8.6347 23.784 8.766 24.1861C8.96581 24.524 9.10283 24.9261 9.3426 25.2291C9.51957 25.5845 9.77076 25.8642 10.0105 26.1555C10.2674 26.4352 10.5243 26.7207 10.8326 26.948C11.3978 27.4491 12.06 27.8512 12.785 28.1949C14.138 28.865 16.159 29.302 17.9744 29.1913C18.4368 29.1272 18.9049 29.069 19.3274 28.9641C19.7156 28.8184 20.1666 28.731 20.6347 28.6727C21.7023 28.6028 22.6271 28.7019 23.4492 28.9466C24.2827 29.1738 25.002 29.5176 25.6242 29.9663C25.9553 30.1644 26.2294 30.4208 26.5091 30.6655C26.7945 30.9161 27.0229 31.2249 27.2855 31.5046C27.3198 31.6095 27.3883 31.6852 27.4396 31.7785C27.5082 31.8542 27.4739 32.029 27.6395 32.0057C27.7422 31.9008 27.6223 31.7493 27.6166 31.6211C27.5139 31.5104 27.491 31.3647 27.4111 31.2715Z" fill="#F0F6FE"></path>
                            <path d="M23.2655 25.0715C23.2427 25.0715 23.237 25.089 23.2198 25.0949C23.1799 25.1823 23.197 25.3221 23.2198 25.4095C23.3397 25.6601 23.3797 25.9864 23.6423 26.0912C23.7679 26.0505 23.7565 25.864 23.7508 25.6834C23.6937 25.4619 23.6137 25.2638 23.4824 25.1182C23.3911 25.0832 23.3283 25.0249 23.2655 25.0715ZM21.7127 25.7067C21.7127 25.695 21.6956 25.6834 21.6899 25.7067C21.4729 25.6775 21.3987 25.7999 21.2902 25.8873C21.1018 26.3942 21.4044 26.8895 21.9353 26.8837C22.1466 26.8313 22.2779 26.6914 22.3121 26.4525C22.2836 26.0272 22.1066 25.7533 21.7127 25.7067Z" fill="#F0F6FE"></path>
                            <path d="M34.5119 24.0928C34.5975 24.4599 34.7802 24.7221 34.9857 24.9668C35.1912 25.2115 35.431 25.4155 35.7222 25.567C35.9962 25.7418 36.293 25.8875 36.6356 25.9865C36.8011 26.0448 36.961 26.1147 37.1665 26.138C37.3092 26.2196 37.4805 26.2604 37.4919 26.4701C37.4862 26.7207 37.3206 26.8139 37.1094 26.8605C36.8982 26.8139 36.6356 26.8198 36.4586 26.7382C36.0133 26.6857 35.6536 26.5401 35.2769 26.4061C34.5575 26.1205 33.9524 25.7068 33.45 25.1999C33.3473 25.0251 33.2046 24.8852 33.0961 24.7163C32.9876 24.5473 32.9134 24.3433 32.7992 24.1744C31.9201 24.0578 31.3206 23.65 30.7954 23.178C30.3102 22.6128 29.922 21.9369 29.7621 21.0395C29.5737 20.1771 29.6308 19.0992 29.8535 18.2659C30.3387 16.6519 31.3549 15.5798 33.2731 15.4341C33.804 15.4516 34.2664 15.5157 34.6889 15.6788C35.117 15.8361 35.5223 16.1275 35.842 16.4305C35.8706 16.4538 35.882 16.4596 35.8991 16.4887C35.9676 16.5878 36.1332 16.7276 36.2245 16.85C36.2417 16.8733 36.236 16.9141 36.2531 16.9432C36.2873 16.9957 36.3387 17.019 36.373 17.0656C36.3901 17.0947 36.3844 17.1297 36.4015 17.153C36.4243 17.188 36.4529 17.2404 36.4871 17.3045C36.4986 17.3278 36.5385 17.3453 36.5442 17.3628C36.5956 17.4618 36.6184 17.5842 36.6641 17.6949C36.7098 17.8114 36.7726 17.9105 36.8125 18.027C36.9267 18.3708 37.0009 18.7787 37.0466 19.1982C37.1608 20.4102 36.9267 21.494 36.4871 22.2981C36.2816 22.7177 35.9962 23.0614 35.6594 23.3528C35.3511 23.6849 34.9286 23.883 34.5119 24.0928ZM33.0961 16.5062C32.8392 16.5237 32.685 16.6461 32.4738 16.716C32.3368 16.8442 32.1655 16.9432 32.0628 17.1064C31.8915 17.2054 31.8458 17.4269 31.7088 17.5551C31.5947 17.8464 31.4862 18.1727 31.412 18.5515C31.3435 18.9244 31.2978 19.3439 31.2921 19.7576C31.2864 20.7948 31.5033 21.8261 31.9086 22.438C32.1484 22.7351 32.4396 22.9799 32.7935 23.1605C32.999 23.178 33.1589 23.2479 33.3815 23.2537C33.5071 23.2071 33.7126 23.2537 33.7926 23.1605C33.9752 23.1721 34.0152 23.0498 34.1751 23.0381C34.2607 22.9507 34.352 22.8808 34.4719 22.8284C34.5804 22.706 34.6831 22.5836 34.7973 22.4671C34.8544 22.3797 34.8887 22.2573 34.9743 22.1932C35.4881 21.191 35.5452 19.3556 35.2084 18.1902C35.0828 17.7648 34.9058 17.421 34.706 17.1355C34.489 16.9083 34.2321 16.716 33.941 16.5645C33.7069 16.5121 33.4843 16.448 33.176 16.4771C33.1589 16.4771 33.1418 16.4829 33.1475 16.5062C33.136 16.5062 33.1189 16.5062 33.0961 16.5062ZM39.3244 15.6613C39.7869 15.6788 40.3292 15.6205 40.7402 15.6905C40.8316 15.8361 40.7973 16.0109 40.7973 16.1741C40.8316 18.3825 40.7973 20.754 40.7973 23.009C40.7973 23.1896 40.803 23.3761 40.7973 23.5509C40.7916 23.7024 40.8316 23.8655 40.7402 24.0054C40.5347 24.0578 40.2379 24.0345 39.9752 24.0345C39.6955 24.0345 39.4215 24.0753 39.2388 23.9763C39.1874 21.3076 39.1874 18.4291 39.2388 15.7546C39.2502 15.7079 39.2788 15.6788 39.3244 15.6613ZM42.8639 15.6613H44.2512C44.3768 15.8361 44.4167 16.0983 44.4567 16.3547C44.8734 17.9746 45.2845 19.6003 45.667 21.2609C45.7583 21.2726 45.7298 21.1619 45.7583 21.1094C45.7983 21.0687 45.7754 20.9696 45.8154 20.9288C45.8325 20.7948 45.9125 20.7249 45.9067 20.5675C46.0095 20.3636 46.0438 20.0839 46.1408 19.8741C46.2607 19.3847 46.4205 18.9302 46.5576 18.4582C46.6889 17.9688 46.8658 17.5259 46.9686 17.0132C47.1627 16.5995 47.2084 16.0342 47.4424 15.6613H48.0304C48.2417 16.0692 48.3216 16.6111 48.5043 17.0481C48.6242 17.5376 48.7897 17.9804 48.9153 18.464C49.2065 19.4022 49.509 20.3286 49.7716 21.2959C49.8915 21.1153 49.8915 20.8123 49.9772 20.6025C50.0285 20.3636 50.0742 20.1189 50.1541 19.9091C50.3825 18.9535 50.5994 17.9921 50.862 17.0773C50.9591 16.5995 51.0561 16.11 51.216 15.6905C51.5585 15.638 52.0837 15.638 52.4263 15.6905C52.4548 16.0459 52.2949 16.4305 52.1922 16.7451C52.1351 17.1297 51.9981 17.4269 51.9239 17.7998C51.7126 18.4815 51.5528 19.2041 51.3359 19.88C51.1703 20.6025 50.9477 21.2668 50.7764 21.9893C50.6622 22.3214 50.5823 22.6885 50.4795 23.044C50.3654 23.3703 50.3254 23.7723 50.1541 24.0404H49.3263C49.1151 23.6616 49.0409 23.1488 48.8525 22.7468C48.4415 21.4183 47.9848 20.1422 47.5851 18.802C47.4481 18.9477 47.4481 19.2448 47.3511 19.4313C47.2883 19.6586 47.2255 19.8858 47.1456 20.0956C47.0314 20.5559 46.8601 20.9463 46.7631 21.4183C46.5975 21.832 46.4776 22.2923 46.352 22.7468C46.1808 23.143 46.118 23.65 45.9067 24.0112C45.6898 24.0811 45.3473 24.0229 45.079 24.0404C44.8734 23.8014 44.8506 23.3703 44.725 23.044C44.628 22.706 44.5595 22.3331 44.4339 22.0184C44.274 21.2842 44.0342 20.6375 43.8744 19.9091C43.6632 19.2332 43.4805 18.5281 43.2864 17.8289C43.1779 17.4968 43.098 17.1414 42.9895 16.8034C42.9381 16.4421 42.6984 16.1158 42.784 15.7196C42.7954 15.6905 42.8297 15.673 42.8639 15.6613ZM54.5157 15.6613C54.9781 15.6788 55.5147 15.6205 55.9315 15.6905C56.0342 16.0051 55.9886 16.3431 55.9886 16.681V23.0032C55.9886 23.347 56.0285 23.6791 55.9315 23.9996C55.6118 24.0345 55.1437 24.052 54.7498 24.0287C54.6356 24.0229 54.4986 24.0578 54.4243 23.9704C54.3216 23.6558 54.3673 23.3236 54.3673 22.974V16.716C54.3673 16.3372 54.333 15.9702 54.4243 15.7196C54.4472 15.6905 54.4814 15.673 54.5157 15.6613Z" fill="#F0F6FE"></path>
                        </g>
                    </svg>
