<svg xmlns="http://www.w3.org/2000/svg" width="64" height="64" viewBox="0 0 64 64" fill="none">
                        <path d="M62.3524 11.2622H1.64759C0.736544 11.2622 0 11.9999 0 12.9098V51.09C0 51.9999 0.736544 52.7387 1.64759 52.7387H62.3524C63.2635 52.7387 64 52.001 64 51.0911V12.9098C64 11.9999 63.2635 11.2622 62.3524 11.2622ZM41.6782 33.8548H48.8669V35.584H43.6816V37.6384H48.4442V39.3653H43.6816V41.8979H49.0969V43.6259H41.6782V33.8548ZM37.6646 23.524C37.9309 23.1988 38.0872 22.8293 38.2629 22.4849C38.4544 22.1449 38.5688 21.7959 38.664 21.4673C38.7547 21.1387 38.8895 20.8407 38.9235 20.5619C38.9677 20.282 39.0085 20.0384 39.038 19.8378C39.1037 19.431 39.1399 19.1988 39.1399 19.1988C39.1399 19.1988 39.1547 19.4333 39.1785 19.8435C39.1921 20.0509 39.2045 20.3047 39.2238 20.5937C39.2487 20.886 39.1853 21.209 39.1626 21.5716C39.1377 21.9342 39.098 22.3296 38.9745 22.733C38.8703 23.141 38.7819 23.5886 38.5734 24.0078C38.4827 24.2254 38.3875 24.4452 38.2912 24.6684C38.1881 24.8894 38.0453 25.09 37.9207 25.3053C37.6759 25.7472 37.3564 26.1393 37.0266 26.5325C36.7082 26.9404 36.3116 27.2599 35.9513 27.6214C35.5513 27.9217 35.1739 28.2673 34.7649 28.5132C34.3649 28.7829 33.9683 29.0265 33.5762 29.2282C33.1909 29.4514 32.8068 29.6078 32.4567 29.7755C31.9139 30.0056 31.4334 30.1846 31.0357 30.3138C31.2159 30.7217 31.3722 31.1466 31.4924 31.601C31.6147 32.069 31.7258 32.5472 31.753 33.0934C31.2204 32.9619 30.7728 32.7614 30.3388 32.5506C29.9048 32.3364 29.5059 32.0939 29.1331 31.8333C28.383 31.3132 27.7371 30.7047 27.1479 30.0509C26.7014 29.5546 26.6414 28.8463 26.9473 28.2934L27.0108 28.1835C27.5071 27.2939 28.1031 26.4633 28.834 25.7143C29.1955 25.3381 29.5955 24.9857 30.0397 24.6582C30.2674 24.4962 30.5009 24.3398 30.7433 24.1891C30.9938 24.0429 31.2601 23.9058 31.5513 23.7846C31.5807 24.0973 31.5864 24.3976 31.5705 24.6866C31.5513 24.9721 31.5229 25.252 31.489 25.5285C31.4074 26.0735 31.2839 26.5925 31.1195 27.0888C31.1014 27.1421 31.0799 27.192 31.0629 27.2452C31.2363 27.2191 31.4176 27.1897 31.6136 27.1546C31.9207 27.0798 32.2686 27.0254 32.6153 26.9121C32.9745 26.8203 33.3394 26.6945 33.7088 26.5472C34.0963 26.4203 34.4408 26.2095 34.834 26.0384C35.1751 25.8118 35.5796 25.6225 35.9014 25.3483C36.2425 25.0877 36.587 24.8225 36.8623 24.5007C37.0074 24.3444 37.1728 24.2005 37.2997 24.035C37.421 23.8639 37.5422 23.6951 37.6646 23.524ZM24.5042 24.7285C24.5405 24.3659 24.5904 23.9727 24.7263 23.5727C24.8431 23.1682 24.9439 22.724 25.1649 22.3104C25.2635 22.0973 25.3632 21.8786 25.4663 21.6588C25.5762 21.4424 25.7258 21.2463 25.8572 21.0344C26.1133 20.5993 26.4465 20.2174 26.7875 19.8344C27.1173 19.4344 27.5252 19.1285 27.8958 18.7772C28.3025 18.4894 28.6901 18.1563 29.106 17.9217C29.5139 17.6633 29.9173 17.431 30.3161 17.2418C30.7071 17.031 31.0969 16.886 31.4516 16.7285C32 16.5155 32.4873 16.35 32.8884 16.2322C32.7207 15.8197 32.5768 15.3903 32.4691 14.9325C32.3603 14.4611 32.264 13.9795 32.2527 13.4322C32.7796 13.5795 33.2227 13.7948 33.651 14.018C34.0782 14.2446 34.4691 14.4973 34.834 14.7716C35.5683 15.3143 36.196 15.9421 36.766 16.6129C37.1977 17.1217 37.2351 17.8322 36.9133 18.375L36.8476 18.4837C36.3229 19.3585 35.7009 20.1699 34.9507 20.8973C34.5768 21.2633 34.1643 21.6044 33.7133 21.9183C33.481 22.0713 33.2419 22.2208 32.9938 22.3648C32.7388 22.5041 32.4691 22.6322 32.1745 22.7455C32.1552 22.4305 32.1586 22.1302 32.1813 21.8424C32.2108 21.5568 32.247 21.2781 32.2901 21.0027C32.3887 20.4611 32.5269 19.9455 32.706 19.4537C32.7252 19.4016 32.7467 19.3517 32.7671 19.2996C32.5926 19.32 32.4113 19.3438 32.2142 19.3733C31.9048 19.439 31.5547 19.4843 31.2045 19.5863C30.8431 19.6679 30.4759 19.7823 30.1008 19.9183C29.7088 20.0327 29.3575 20.2333 28.9598 20.3931C28.6096 20.6095 28.204 20.7874 27.872 21.0514C27.5241 21.303 27.1728 21.5568 26.8861 21.8707C26.7399 22.0225 26.57 22.1608 26.4374 22.324C26.3105 22.4905 26.1847 22.6571 26.0612 22.8203C25.7858 23.1376 25.6181 23.5024 25.4323 23.8424C25.2272 24.1755 25.1048 24.5211 24.9983 24.8475C24.8975 25.1727 24.7547 25.4673 24.7116 25.7449C24.6595 26.0225 24.613 26.265 24.5756 26.4645C24.4997 26.8701 24.4567 27.1013 24.4567 27.1013C24.4567 27.1013 24.4487 26.8667 24.4351 26.4554C24.4295 26.2469 24.4215 25.9942 24.4125 25.7041C24.3943 25.4118 24.4691 25.0911 24.5042 24.7285ZM18.6119 45.7449H17.2045V49.5716H16.2357V45.7449H14.8306V44.9211H18.613L18.6119 45.7449ZM17.1524 43.6259L14.3898 33.8526H16.5654C17.8176 39.2044 17.9422 39.8843 18.119 40.9993H18.1462C18.3229 39.9784 18.4714 38.9846 19.5071 33.8526H21.6714C22.8136 39.218 22.911 39.7347 23.1275 40.9993H23.1547C23.3178 40.0735 23.4799 39.2293 24.7479 33.8526H26.817L24.0657 43.6259H22.1065C21.0992 38.835 20.9201 37.882 20.5949 36.0033H20.5688C20.2674 37.8832 20.1065 38.5891 19.0572 43.6259H17.1524ZM22.0113 49.5682C21.9467 49.3495 21.9093 49.1104 21.9093 48.6299C21.9093 47.9976 21.8697 47.7495 21.1501 47.7495H20.1473V49.5693H19.1932V44.9177H21.5456C22.783 44.9177 23.0085 45.8333 23.0085 46.2344C23.0085 46.7466 22.749 47.1863 22.289 47.3427C22.6708 47.5092 22.8793 47.6531 22.8793 48.5211C22.8793 49.1999 22.8793 49.3699 23.0856 49.4458L23.0867 49.5682H22.0113ZM26.7445 49.5716L26.4453 48.6129H24.7297L24.4068 49.5716H23.3824L25.0402 44.9211H26.162L27.7994 49.5716H26.7445ZM27.8992 33.8526H29.9399V43.6259H27.8992V33.8526ZM31.1977 49.5716L29.3008 46.256H29.2873V49.5716H28.3819V44.9211H29.404L31.2521 48.1585H31.2635V44.9211H32.17L32.1711 49.5716H31.1977ZM34.8578 49.6962C33.1603 49.6962 32.8703 48.7172 32.8703 48.1415H33.7994C33.8062 48.401 33.9365 48.8928 34.7864 48.8928C35.2442 48.8928 35.7575 48.7829 35.7575 48.2911C35.7575 47.9274 35.4085 47.8311 34.9144 47.7143L34.417 47.5976C33.6646 47.4231 32.9405 47.2543 32.9405 46.2299C32.9405 45.7121 33.217 44.7988 34.7263 44.7988C36.1518 44.7988 36.5326 45.7313 36.5394 46.3013H35.6102C35.5807 46.0951 35.506 45.6021 34.6561 45.6021C34.289 45.6021 33.8459 45.737 33.8459 46.1585C33.8459 46.5223 34.145 46.5993 34.3399 46.6446L35.4708 46.9234C36.1076 47.0798 36.6901 47.3393 36.6901 48.1733C36.6901 49.5716 35.2646 49.6962 34.8578 49.6962ZM35.9569 39.8005H33.8482V43.6259H31.8448V33.8514H36.7841C39.3847 33.8514 39.8629 35.771 39.8629 36.6152C39.8629 37.6917 39.319 38.6163 38.3513 38.9427C39.1547 39.2973 39.5898 39.5988 39.5898 41.422C39.5898 42.8509 39.5898 43.2056 40.0261 43.3676V43.6259H37.7688C37.6329 43.1636 37.5513 42.6605 37.5513 41.652C37.5513 40.3183 37.4686 39.8016 35.9569 39.8005ZM40.7411 45.7449H38.4045V46.7942H40.4499V47.6169H38.4045V49.5727H37.4334V44.9223H40.7411V45.7449ZM44.9246 49.5693H41.3949V44.9177H44.8147V45.7427H42.3467V46.7206H44.613V47.5432H42.3467V48.7478H44.9246V49.5693ZM49.6113 49.5693H48.5382C48.4737 49.3495 48.4363 49.1104 48.4363 48.6299C48.4363 47.9976 48.3943 47.7495 47.6771 47.7495H46.6742V49.5693H45.7201V44.9177H48.0703C49.3077 44.9177 49.5354 45.8333 49.5354 46.2344C49.5354 46.7466 49.2725 47.1863 48.8147 47.3427C49.1955 47.5092 49.4051 47.6531 49.4051 48.5211C49.4051 49.1999 49.4051 49.3699 49.6102 49.4458H49.6113V49.5693Z" fill="currentColor"></path>
                        <path d="M36.3932 35.542H33.8505V38.155H36.2425C37.3054 38.155 37.8233 37.7879 37.8233 36.8213C37.8233 36.3046 37.5932 35.542 36.3932 35.542Z" fill="currentColor"></path>
                        <path d="M47.881 45.7256H46.6731V46.9698H47.8108C48.3173 46.9698 48.5632 46.7941 48.5632 46.3341C48.5632 46.0871 48.4533 45.7256 47.881 45.7256Z" fill="currentColor"></path>
                        <path d="M25.5955 45.9717H25.5864L24.9893 47.8108H26.1757L25.5955 45.9717Z" fill="currentColor"></path>
                        <path d="M21.3564 45.7256H20.1462V46.9698H21.2839C21.7904 46.9698 22.0363 46.7953 22.0363 46.3341C22.0363 46.0871 21.9253 45.7256 21.3564 45.7256Z" fill="currentColor"></path>
                    </svg>
