<svg xmlns="http://www.w3.org/2000/svg" width="120" height="120" viewBox="0 0 120 120" fill="none">
                        <path fill-rule="evenodd" clip-rule="evenodd" d="M50.5478 58.3351L49.6171 62.4495H40.018L40.1649 61.911H41.8788L44.181 51.3314H42.3687L42.5642 50.7437H48.3433L48.1964 51.3314H46.3356L44.034 61.911H45.8948C47.1194 61.911 47.6087 61.9595 48.3925 61.2741C48.9802 60.7842 49.7148 59.7065 50.0578 58.3357H50.5478V58.3351ZM54.5146 62.7421C52.6539 62.7421 51.1355 61.1745 51.1355 59.1182C51.1355 56.3759 53.8292 54.1715 55.9347 54.1715C57.8447 54.1715 59.1184 55.9351 59.1184 57.649C59.1184 58.6775 58.7268 59.6574 58.1391 60.5874C57.0615 62.155 55.6408 62.7421 54.5146 62.7421ZM57.3553 56.3759C57.3553 55.4452 56.9638 54.662 55.9839 54.662C55.2493 54.662 54.5146 55.1028 54.1224 55.739C53.5839 56.6697 52.8493 58.9713 52.8493 60.2936C52.8493 61.6651 53.6823 62.1065 54.3677 62.1065C54.9062 62.1065 55.4939 61.8605 55.8369 61.4696C56.4246 60.7835 56.8168 59.5104 57.0615 58.4334C57.2084 57.649 57.3553 57.0613 57.3553 56.3759ZM63.7221 54.4168L63.3306 56.3759C64.0154 54.7106 65.4366 54.0737 66.6114 54.0737C67.4929 54.0737 68.3745 54.3676 68.3745 55.5921C68.3745 55.9351 68.3259 56.2284 68.2773 56.5228L67.2003 60.6366C67.0534 61.3712 67.102 61.1751 67.0534 61.3227C66.955 61.7641 67.2489 61.7641 67.445 61.7641C67.7394 61.7641 67.9835 61.5686 68.131 61.3712C68.621 60.7356 68.5712 60.8825 68.964 60.1473L69.5025 60.4411C69.1097 61.2741 68.3265 62.7427 66.8081 62.7427C66.0735 62.7427 65.4379 62.2528 65.4379 61.3712C65.4379 61.1266 65.4864 60.9311 65.535 60.6366L66.5149 56.3273C66.5635 56.0821 66.612 55.8374 66.6618 55.6413C66.7589 55.1028 66.2204 54.9067 65.926 54.9067C65.4373 54.9067 64.849 55.3475 64.2115 56.0329C63.2328 57.1105 62.7914 58.4328 62.5468 59.3143L61.8122 62.498H60.0485L61.8607 54.9553H60.2446L60.2938 54.4168H63.7221ZM79.5417 60.5389C78.9049 61.7634 78.1702 62.5952 76.9457 62.645C75.9658 62.6935 75.8195 61.9104 75.7697 61.4204V61.1745L75.624 61.37C75.2312 61.9583 74.3011 62.7415 73.1251 62.7415C71.8034 62.7415 70.2359 61.4683 70.2359 59.4114C70.2359 56.5216 72.8319 54.1217 74.8396 54.1217C76.0642 54.1217 76.6027 54.5132 76.8971 55.0038L77.8758 50.8408H76.0642L76.2597 50.3017H79.7858L77.4842 59.6069C77.2887 60.5383 77.1412 61.0768 77.1412 61.4198C77.1412 61.713 77.2395 61.8114 77.4842 61.7628C77.8758 61.713 78.0227 61.4683 78.3172 61.1259C78.4143 60.979 78.8557 60.3428 78.954 60.1959L79.5417 60.5389ZM75.1826 54.6614C74.6441 54.6614 73.9095 54.9067 73.3212 55.886C72.294 57.6982 71.9995 58.9713 71.9995 60.2936C71.9995 61.4696 72.5866 62.0567 73.3212 62.0567C73.6642 62.0567 74.1056 61.9595 74.5458 61.5182C75.3302 60.8321 75.624 60.0496 76.1134 58.482C77.1412 55.396 75.9166 54.6614 75.1826 54.6614ZM83.7047 62.645C81.8433 62.645 80.3243 61.1266 80.3243 59.069C80.3243 56.3267 83.0187 54.1223 85.1247 54.1223C87.0833 54.1223 88.3564 55.8362 88.3564 57.5992C88.3564 58.5791 87.9648 59.6076 87.3279 60.4885C86.2509 62.0567 84.8309 62.645 83.7047 62.645ZM86.5454 56.3267C86.5454 55.3475 86.1538 54.6129 85.1739 54.6129C84.4393 54.6129 83.7053 55.0536 83.3125 55.6899C82.774 56.5714 82.0394 58.9221 82.0394 60.1959C82.0394 61.6159 82.8724 62.056 83.5578 62.056C84.0963 62.056 84.684 61.7628 85.0264 61.37C85.6134 60.6839 86.0063 59.4606 86.2509 58.3344C86.4464 57.5998 86.5454 56.963 86.5454 56.3267ZM93.0099 54.4168L92.5686 56.3759C93.2546 54.7106 94.6746 54.0737 95.85 54.0737C96.7801 54.0737 97.6616 54.3676 97.6616 55.5921C97.6616 55.9351 97.5645 56.2284 97.5147 56.5228L96.4863 60.6366C96.3406 61.3712 96.3406 61.1751 96.3406 61.3227C96.2422 61.7641 96.4863 61.7641 96.6824 61.7641C96.9768 61.7641 97.2221 61.5686 97.4182 61.3712C97.9082 60.7356 97.8584 60.8825 98.2499 60.1473L98.7399 60.4411C98.3969 61.2741 97.6137 62.7427 96.0467 62.7427C95.3607 62.7427 94.7238 62.2528 94.7238 61.3712C94.7238 61.1266 94.7736 60.9311 94.8222 60.6366L95.7523 56.3273C95.8506 56.0821 95.8992 55.8374 95.8992 55.6413C95.9976 55.1028 95.5076 54.9067 95.1646 54.9067C94.7232 54.9067 94.1361 55.3475 93.4986 56.0329C92.52 57.1105 92.0786 58.4328 91.8339 59.3143L91.0495 62.498H89.3363L91.1479 54.9553H89.4832L89.5318 54.4168H93.0099ZM16.8523 50.6454H17.2439L17.2931 50.2046H17.6847L17.1947 51.0369C17.1947 51.1347 17.3416 51.0861 17.44 51.0861L17.4892 51.0369V51.4285C17.0976 51.5754 16.6568 51.4285 16.6568 51.4285V51.0369C16.706 51.0861 16.9021 51.1347 16.9507 51.0369L16.4607 50.2046H16.8523V50.6454ZM8.52635 57.5021C8.62409 57.649 8.67327 57.7959 8.72183 57.9429C8.86875 58.2859 9.01568 58.5797 9.21178 58.9221L8.57553 59.4613C8.91856 59.902 9.31014 60.2936 9.65254 60.735C10.681 59.9998 11.7094 59.2166 12.8363 58.6289C13.3262 58.3842 14.0116 58.5797 14.5501 58.3351C14.1094 58.6781 13.8647 59.1674 13.4725 59.5104C13.7178 59.8043 13.8155 60.1965 14.0116 60.5395C13.5217 60.5395 12.9832 60.5881 12.5424 60.4411C12.6402 60.6858 12.6402 61.3227 12.6893 61.6171C12.2486 61.4217 11.7586 61.3227 11.367 60.9803C11.4156 61.6171 11.1709 62.1077 10.9748 62.6462C10.6324 62.3517 10.3386 62.0579 10.1425 61.7149C9.94639 62.1563 9.50624 62.4993 9.21178 62.9394L8.57553 63.8708C8.72245 63.4779 8.77164 62.9892 8.77164 62.5478C7.54708 62.3524 6.17623 61.7647 5.68566 60.4903C5.58987 60.2403 5.54009 59.9749 5.53874 59.7072C5.88114 60.3932 6.61575 60.7842 7.3018 60.8831C6.22417 60.2463 5.39182 59.1195 5.29346 57.8464C5.63648 58.5324 6.37109 59.2178 7.05651 59.5117V59.4625C5.93032 58.3855 5.24428 57.0626 5.39182 55.495C5.60197 56.46 6.18224 57.304 7.00796 57.8457C6.07725 56.6212 5.39182 55.1034 5.93095 53.4873C5.97951 55.1514 7.10632 56.6206 8.52635 57.5021ZM28.7044 57.8937C29.5859 57.3552 30.1244 56.4245 30.3697 55.5429C30.4675 57.1105 29.782 58.4328 28.6558 59.5098C29.3904 59.216 30.0765 58.5791 30.4189 57.8937C30.3697 58.726 29.9781 59.4613 29.3904 60.0975C29.0966 60.392 28.7536 60.6846 28.4112 60.8819C28.7339 60.8286 29.0473 60.7295 29.3419 60.5874C29.7046 60.3716 30.0076 60.0686 30.2234 59.7059C30.1742 60.7344 29.3911 61.7136 28.4604 62.1058C27.9704 62.3013 27.4811 62.4489 26.942 62.546C26.942 62.9874 26.9911 63.4761 27.1381 63.8689C26.7465 63.232 26.2559 62.5945 25.7666 62.0075C25.6844 61.9218 25.6182 61.822 25.5711 61.713C25.375 62.056 25.0812 62.3499 24.7388 62.6443C24.5433 62.1058 24.298 61.6159 24.3472 60.9784C23.9556 61.37 23.4657 61.4198 23.0249 61.6153C23.0249 61.2237 23.0249 60.8309 23.1718 60.4878C22.6333 60.5862 22.0948 60.5376 21.7026 60.5376C21.8495 60.1946 21.9964 59.8024 22.2411 59.5086C21.8003 59.1655 21.5557 58.6762 21.1635 58.3332C21.6042 58.5287 22.2903 58.4309 22.7802 58.5779C23.3199 58.8757 23.843 59.2026 24.3472 59.5571L25.6695 60.4872L26.0125 60.7331H26.0617L27.1393 59.4594L26.5516 58.9694C26.7963 58.5287 26.9924 58.0387 27.1393 57.5494C28.5593 56.6187 29.7347 55.1987 29.7839 53.4842C30.3205 55.1022 29.6351 56.6698 28.7044 57.8937Z" fill="currentColor"></path>
                        <path fill-rule="evenodd" clip-rule="evenodd" d="M8.42874 57.1106C8.03716 56.9145 7.69414 56.5229 7.44885 56.1799C7.49803 55.2498 7.7427 54.4168 8.1349 53.5845C7.9388 54.8084 8.1349 56.033 8.42874 57.1106ZM28.2638 56.2284C28.0185 56.5715 27.6761 56.9145 27.2845 57.1106C27.5783 56.033 27.7744 54.8084 27.5783 53.633C27.9828 54.4418 28.2161 55.3254 28.2638 56.2284ZM9.31027 55.886C9.40801 55.5922 9.50638 55.2983 9.70248 55.0045C9.70248 55.3475 9.6533 55.7391 9.8494 56.033C10.3879 55.9352 11.0248 55.8369 11.6125 55.9352C11.3186 56.033 10.9756 56.2782 10.8287 56.5715C10.7795 56.5223 10.7795 56.4245 10.7309 56.376C10.584 56.376 10.4371 56.4252 10.2902 56.4252L10.7309 56.8659C10.6817 57.1112 10.6332 57.4536 10.7309 57.6983C10.7801 57.0614 11.1225 56.4737 11.6616 56.1799C11.9555 56.033 12.2985 55.9352 12.5923 56.1307C12.7386 56.2776 12.7878 56.4737 12.7386 56.6698C12.7386 56.5715 12.6409 56.4737 12.5432 56.4245C12.1024 56.2776 11.7594 56.62 11.5147 56.963C11.4655 57.0122 11.3678 57.11 11.3678 57.2083C11.5633 57.3552 11.8086 57.3061 12.0532 57.2569C12.2493 57.2083 12.3962 57.1592 12.5923 57.0122C12.2493 57.5016 11.7102 57.6977 11.2701 57.8938L11.4164 58.139C11.3186 58.2368 11.2209 58.3351 11.1225 58.3843L10.8287 57.9927C10.4863 58.2374 10.1432 58.4335 9.8494 58.6788L10.0941 59.0212C9.99632 59.1189 9.89858 59.2173 9.80022 59.2173C8.96787 58.1397 8.331 56.5721 8.96787 55.2012L9.16397 54.9074C9.16335 55.2498 9.16335 55.5922 9.31027 55.886ZM26.1085 58.9714L25.913 59.2167C25.8153 59.2167 25.7169 59.1183 25.6192 59.0698C25.6684 58.9228 25.8153 58.8245 25.8645 58.6782C25.5706 58.4329 25.2276 58.2374 24.8852 57.9921L24.5907 58.3837H24.5422C24.4444 58.2853 24.3461 58.2368 24.2483 58.1876C24.2975 58.0899 24.3953 57.9921 24.4444 57.8938C24.2483 57.796 24.0522 57.7468 23.8567 57.5999C23.5629 57.5022 23.2691 57.3061 23.1221 57.0129C23.416 57.2575 23.9053 57.3553 24.3461 57.2575C24.3461 57.1598 24.2483 57.1112 24.2483 57.0129C24.003 56.6698 23.6115 56.376 23.1707 56.4252C23.073 56.4252 23.0238 56.5229 22.9752 56.6206V56.6698C22.926 56.5715 22.926 56.3268 23.0244 56.2291C23.1713 56.0336 23.416 56.0336 23.6606 56.0821C24.1998 56.1799 24.7383 56.6698 24.8852 57.209C24.9338 57.3559 24.9338 57.552 24.9829 57.7475C25.0807 57.4536 25.0315 57.0614 24.9829 56.8659C25.1299 56.719 25.2768 56.5721 25.4237 56.4743C25.2768 56.4252 25.1299 56.4252 24.9829 56.3766C24.9829 56.4258 24.9338 56.5235 24.8852 56.5721C24.7383 56.3274 24.4444 56.0336 24.1014 55.9844C24.6399 55.8375 25.3253 55.9352 25.8645 56.0821C26.0599 55.7883 26.0114 55.3961 25.9622 55.0537C26.2075 55.2983 26.3052 55.5922 26.403 55.9352C26.5499 55.5922 26.5984 55.2983 26.5499 54.9068C27.4308 56.1799 26.8923 57.8938 26.1085 58.9714Z" fill="currentColor"></path>
                        <path fill-rule="evenodd" clip-rule="evenodd" d="M17.1463 47.8058H17.6362V47.4136H18.077V47.8058H18.5177V47.4136H18.9585V48.932L18.6647 49.1772V50.2549H19.497C19.5462 50.1565 19.6439 50.0588 19.7915 50.108H20.6238C20.5746 50.3532 20.4769 50.6465 20.2322 50.794C20.1653 50.8552 20.0783 50.89 19.9876 50.8917C20.183 51.0387 20.2322 51.2833 20.183 51.528C20.1339 51.6264 20.0853 51.7241 19.9876 51.7733C20.183 52.0671 20.2322 52.4593 19.9876 52.7525C20.4283 52.9978 19.9876 53.3402 20.0368 53.6833C20.1837 53.781 20.3306 53.8787 20.3798 54.0748C20.3798 54.2709 20.3306 54.4664 20.1837 54.5648C20.1345 54.614 20.0367 54.614 19.9882 54.614C19.9882 54.7609 20.1351 54.9078 20.282 55.0055C20.5759 55.201 21.0658 55.1525 21.4088 55.0055C21.5558 54.9078 21.7519 54.7117 21.8004 54.5156C21.8496 54.4179 21.8004 54.3201 21.7512 54.2218C21.6043 54.0257 21.3597 53.9765 21.1636 54.0257C21.0043 54.078 20.8667 54.1812 20.772 54.3195C20.6251 53.781 20.6742 53.0949 21.1636 52.7519C21.4088 52.6542 21.7512 52.6542 21.9965 52.8011C22.0457 52.8011 22.0943 52.8995 22.192 52.948C22.1428 52.1642 22.2412 51.3319 22.9758 50.8911C23.4166 50.6458 24.0528 50.695 24.4936 50.9889L24.788 51.2341C25.0564 51.2565 25.3254 51.1986 25.5608 51.0678C25.7963 50.937 25.9875 50.7392 26.1103 50.4995C26.2087 50.4012 26.2573 50.2057 26.2573 50.0588C26.5403 50.2673 26.753 50.5572 26.8668 50.8899C26.9806 51.2225 26.9901 51.582 26.8941 51.9202C26.8449 51.9688 26.8941 52.0179 26.9433 52.0665C27.4824 52.1649 27.874 51.8218 28.2656 51.4788C28.3148 52.3112 28.0203 53.1441 27.2371 53.5357C26.7964 53.7312 26.2087 53.6334 25.8171 53.3402C25.4255 53.0464 25.1802 52.6542 24.9848 52.2626C24.8378 52.0665 24.544 52.1157 24.2502 52.1649C23.8586 52.214 23.4664 52.5079 23.2703 52.8509C23.2217 52.9978 23.1725 53.0956 23.1725 53.2425C23.2217 53.2425 23.3194 53.1933 23.3686 53.1441C23.7117 52.9972 24.1524 53.0949 24.3971 53.3402C24.6424 53.5855 24.6909 53.9765 24.5926 54.2709C24.4948 54.614 24.1518 54.9564 23.858 55.0547C23.8088 54.7117 23.6127 54.5648 23.4172 54.5648C22.9272 54.4664 22.7311 54.9564 22.3887 55.201C22.0457 55.544 21.458 55.7887 21.5066 56.3278C21.5066 56.5725 21.6535 56.8178 21.8496 56.9641C21.9474 57.0133 22.0457 57.0618 22.1435 57.0618C21.5066 57.3071 20.6251 57.3557 20.0866 56.8663C19.9396 57.0618 20.1357 57.454 20.1843 57.5026C20.3312 57.7964 20.5273 58.0417 20.5273 58.3847C20.2335 58.0909 19.8911 57.9931 19.4503 58.0909C19.4503 58.0909 19.205 58.0909 18.0788 58.7769C17.785 58.9724 17.5403 59.0708 17.5403 59.0708C17.5403 59.0708 17.4426 59.0216 17.3934 59.0216C17.0504 58.7769 16.6588 58.5808 16.3158 58.4339C16.1894 58.3022 16.1192 58.1265 16.1203 57.944C16.1431 57.8489 16.1917 57.762 16.2608 57.6929C16.33 57.6238 16.4168 57.5752 16.5119 57.5524V57.454L16.2672 57.0624C16.0858 57.02 15.906 56.971 15.7281 56.9155C15.0912 57.2094 14.2097 57.3071 13.5243 57.0624C13.7689 57.0139 14.0142 56.867 14.112 56.6217C14.2097 56.377 14.2097 56.034 14.0142 55.8379C13.6712 55.4463 13.2304 55.2016 12.9372 54.7609C12.7411 54.614 12.4473 54.5156 12.2026 54.5654C12.1047 54.6059 12.0204 54.6736 11.9597 54.7604C11.8989 54.8472 11.8642 54.9495 11.8596 55.0553C11.468 54.9084 11.0758 54.4185 11.0758 53.9777C11.0758 53.6347 11.2227 53.39 11.468 53.1939C11.8104 53.047 12.2518 53.047 12.4964 53.2431C12.4964 52.9001 12.301 52.6062 12.0557 52.4101C11.7126 52.1655 11.1741 52.0186 10.7826 52.2147C10.4887 52.6554 10.2441 53.0962 9.80329 53.39C9.41109 53.6347 8.82402 53.6839 8.38264 53.4392C7.69721 53.0476 7.40337 52.2638 7.45192 51.4801C7.69721 51.6762 7.99043 51.9208 8.28427 52.0192C8.43119 52.0677 8.72504 52.1169 8.87196 51.97C8.77422 51.8231 8.72504 51.5292 8.72504 51.4315C8.77422 50.893 9.01888 50.3545 9.45964 50.0115C9.45964 50.5014 9.90041 50.9907 10.3412 51.1377C10.5373 51.1868 10.7328 51.236 10.9289 51.236C11.3204 50.8444 11.8104 50.6483 12.3489 50.7461C12.7897 50.8444 13.2304 51.236 13.3773 51.6282C13.5243 52.0198 13.5243 52.5097 13.5243 52.9505C13.7197 52.7052 14.0142 52.6075 14.3566 52.7052C14.6996 52.7544 14.8951 53.146 14.9443 53.4398C14.9935 53.7337 14.9935 54.0761 14.9443 54.3214C14.7974 54.1253 14.6019 53.9783 14.3074 54.0275C14.1605 54.0275 14.0136 54.0767 13.9158 54.2236C13.8175 54.3705 13.8667 54.6152 13.965 54.7621C14.3074 55.2029 14.9443 55.2521 15.4342 55.1537C15.5812 55.1045 15.6795 55.056 15.8258 55.0068C15.7281 55.1537 15.7281 55.3984 15.875 55.5453C16.365 56.0352 17.1973 55.9861 17.8335 55.8391C18.3265 55.6941 18.8027 55.4974 19.2542 55.2521C18.9112 55.6928 19.3526 56.1822 19.4503 56.6229C19.5966 56.3783 19.7933 56.133 19.8911 55.8391C19.9396 56.3291 20.2335 56.7698 20.7234 56.9168C20.9189 56.9659 21.1642 56.9659 21.4088 56.9168C21.2134 56.6721 21.115 56.3783 21.2134 56.0844C21.2619 55.6928 21.6541 55.4967 21.7033 55.1537C21.3117 55.3984 20.724 55.4961 20.2827 55.3006C19.9888 55.2029 19.7442 54.909 19.5966 54.6152C18.8134 55.2521 17.8335 55.5945 16.7074 55.4967C16.8051 55.2521 16.9526 55.056 17.0504 54.8113H16.6588L16.3158 55.4482C16.1819 55.3702 16.0784 55.2494 16.0219 55.1051C16.0219 54.9582 16.0705 54.7621 16.1682 54.6644C16.1197 54.6152 16.0219 54.6152 15.9727 54.6152C15.8689 54.5833 15.7744 54.5265 15.6975 54.4497C15.6207 54.3728 15.5638 54.2783 15.532 54.1744C15.532 53.9298 15.6789 53.6851 15.9242 53.6851C15.9242 53.5874 15.875 53.3913 15.9242 53.2935C15.9493 53.2224 15.9957 53.1607 16.0571 53.1169C16.1184 53.073 16.1918 53.049 16.2672 53.0483C16.2672 53.0483 16.2672 52.9991 16.3158 52.9991V52.656L15.7281 52.5091L15.1404 50.9907C15.1404 50.9907 15.5812 50.6969 15.7773 50.55C15.6303 50.4522 15.8265 50.3545 15.8265 50.2069L16.0711 49.9131C16.0226 49.6678 16.0711 49.4232 15.9734 49.2271C16.2187 49.3248 16.4141 49.5209 16.6594 49.5209L17.0024 49.4717V49.1779L16.7572 48.9326V47.4136H17.1487V47.8058H17.1463ZM17.8317 48.5398C17.4893 48.6867 17.5378 49.0297 17.5378 49.3721H18.1255C18.1255 49.1766 18.1741 49.0291 18.1255 48.8336C18.077 48.7359 17.9786 48.5398 17.8317 48.5398ZM16.2647 49.6666L16.3133 50.0096C16.2155 50.1565 16.068 50.2549 16.068 50.4504L16.3133 50.7934C16.3133 50.9403 16.2155 51.0872 16.1664 51.2341L16.4608 51.8218H16.7547L17.0485 52.1649L17.3424 51.8218H17.587L17.93 51.2341C17.8317 51.0872 17.7339 50.9403 17.7339 50.7934L18.0284 50.4504C17.9792 50.2549 17.8815 50.1565 17.7831 50.0096V49.6666L17.4893 49.8135C17.1867 49.7158 16.8611 49.7158 16.5586 49.8135L16.2647 49.6666ZM19.7417 50.352C19.6931 50.4006 19.6439 50.4497 19.5462 50.4989C19.3009 50.5481 18.9093 50.4497 18.6647 50.5481C18.5663 50.5973 18.5177 50.695 18.4685 50.7934C18.4685 50.8911 18.4194 51.038 18.5177 51.0872C18.7138 51.3811 19.1546 51.2833 19.4484 51.2833L19.5462 51.3811C19.5462 51.4302 19.497 51.4788 19.4484 51.4788H18.077C17.9792 51.6749 17.8317 51.8218 17.8317 52.0665H17.4401L17.0485 52.5564L16.6569 52.0665H16.2162V51.9202L15.8731 51.2341C15.9277 51.1058 15.9767 50.9751 16.0201 50.8426L15.9223 50.7442L15.4816 51.0872L15.9223 52.3118L16.3139 52.4095V52.3118H16.5592L16.51 53.1441C16.51 53.291 16.3637 53.1933 16.2653 53.2425C16.1184 53.3402 16.2162 53.5855 16.167 53.6833C16.2718 53.6073 16.3939 53.5586 16.5223 53.5416C16.6506 53.5245 16.7812 53.5396 16.9022 53.5855L17.1961 52.7525C17.7837 52.8017 18.4206 52.6548 18.8614 52.214C19.0083 52.5079 19.2044 52.7525 19.4491 52.9978V53.1447C19.4491 53.2917 19.3021 53.1447 19.2038 53.2431C19.106 53.2431 19.106 53.4386 19.106 53.537L19.3015 53.6839C19.4484 53.5861 19.6445 53.5861 19.7915 53.5861L19.9378 52.9984L19.6931 52.7046C19.7908 52.6554 19.8394 52.5577 19.8886 52.4599C19.9371 52.2147 19.8886 51.97 19.6931 51.7739C19.8886 51.6762 19.9378 51.5286 19.9378 51.3331C19.8892 50.8432 19.3015 51.0393 18.9585 50.9901C18.763 50.9901 18.763 50.7448 18.9585 50.7448C19.3015 50.7448 19.7423 50.794 20.0361 50.6471C20.183 50.5979 20.2808 50.4516 20.2808 50.3532H19.7417V50.352ZM9.31023 50.5967L9.26167 50.6458C8.96783 51.0866 8.96783 51.7235 9.26167 52.1642C9.16393 52.2134 9.11475 52.262 9.01639 52.3112C8.62481 52.4581 8.13486 52.3603 7.79184 52.1157C7.88958 52.5073 8.13486 52.948 8.52644 53.1927C8.86947 53.3396 9.26105 53.3396 9.55489 53.1435C10.2409 52.7519 10.3387 52.0659 10.7303 51.5274C10.1426 51.5274 9.55489 51.1358 9.31023 50.5967ZM26.3538 50.5967C26.1576 51.1843 25.57 51.5274 24.9823 51.5274C25.3247 52.0173 25.423 52.605 25.9615 53.0458C26.2554 53.2419 26.5978 53.3888 26.99 53.2419C27.4799 53.0949 27.8223 52.605 27.9207 52.1151C27.7738 52.2128 27.5783 52.3105 27.3822 52.3597C27.0392 52.4089 26.6962 52.3597 26.4515 52.1642C26.5007 52.1151 26.5007 52.0659 26.5499 52.0173C26.7453 51.5765 26.6962 50.9889 26.3538 50.5967ZM18.7624 52.5558L18.4194 52.8005C18.4194 52.8988 18.5171 52.9474 18.5663 52.9966C18.5663 53.0458 18.5663 53.1921 18.5171 53.1921C18.4679 53.2412 18.3216 53.1921 18.2724 53.2412C18.1741 53.2412 18.1255 53.339 18.1255 53.4367C18.2724 53.4367 18.4194 53.4367 18.5171 53.5836C18.6155 53.5345 18.7132 53.4367 18.8601 53.4853C18.8601 53.3384 18.8601 53.2406 18.9579 53.0937C18.9579 53.0445 19.0562 52.996 19.1048 52.996C18.9755 52.8617 18.8608 52.7141 18.7624 52.5558ZM18.2731 53.6826C18.1747 53.6334 17.9792 53.6334 17.8815 53.7312C18.1268 53.8781 18.1753 54.2211 18.4692 54.2703C18.5669 54.3195 18.6653 54.2703 18.7145 54.2211C18.5663 54.0742 18.4685 53.8289 18.2731 53.6826ZM17.4893 53.6826C17.3424 53.6334 17.244 53.6826 17.1463 53.7804L17.5378 54.1719C17.6848 54.2703 17.8809 54.3189 18.0278 54.2211C17.8317 54.025 17.6854 53.7804 17.4893 53.6826ZM18.6647 53.7312C18.8116 53.9273 18.9093 54.1228 19.1054 54.3189C19.1593 54.3432 19.2178 54.3558 19.2769 54.3558C19.3361 54.3558 19.3945 54.3432 19.4484 54.3189C19.3015 54.1228 19.2032 53.9273 19.0569 53.7804C18.9585 53.6826 18.7624 53.6826 18.6647 53.7312ZM16.8032 53.7804C16.6563 53.7312 16.5094 53.7312 16.4116 53.8289C16.6077 53.9758 16.7547 54.1719 16.9508 54.3189C17.0485 54.3681 17.2446 54.3189 17.3424 54.2697C17.1463 54.0742 16.9993 53.8781 16.8032 53.7804ZM19.3993 53.8781C19.5462 54.025 19.6445 54.2697 19.84 54.3681C19.9378 54.4172 20.0361 54.4172 20.0853 54.3189C20.1345 54.2697 20.1345 54.172 20.1345 54.0736C19.9869 53.8289 19.6439 53.7804 19.3993 53.8781ZM16.1178 53.9273C16.0686 53.8781 15.9709 53.9273 15.8725 53.9273C15.8233 53.9765 15.8233 54.0742 15.8233 54.1719C15.8725 54.2703 15.9217 54.3681 16.0194 54.3681C16.2149 54.4172 16.4602 54.4172 16.6071 54.3189C16.4608 54.1719 16.3139 53.9765 16.1178 53.9273ZM14.0117 55.2004C14.3547 55.6412 14.648 56.1797 14.4033 56.7188C14.3547 56.8165 14.3056 56.8657 14.257 56.9143C14.7955 56.9635 15.2363 56.8651 15.6285 56.6204C15.8731 56.7188 16.167 56.7673 16.4608 56.7673C16.7547 57.355 17.0485 57.8935 17.244 58.5304C17.2932 58.0896 17.244 57.5997 17.1463 57.1589C17.0971 57.0126 17.0485 56.8651 16.9993 56.7673C17.3909 56.7182 17.7831 56.5712 18.1261 56.4243C18.3708 56.2774 18.6647 56.1305 18.8608 55.8366C18.2245 56.2282 17.4893 56.4243 16.6569 56.4735C16.167 56.4735 15.6285 56.4735 15.3838 55.9836C15.2861 55.7875 15.433 55.5428 15.4816 55.3959C14.9916 55.5434 14.4033 55.4457 14.0117 55.2004ZM12.4448 58.4333L11.0733 59.364L9.751 60.2941H9.70244L9.01639 59.4617C9.11413 59.364 9.26167 59.2656 9.35941 59.1679L9.751 59.6087C9.99628 59.4617 10.2409 59.2656 10.4862 59.0702C10.437 58.9724 10.2901 58.8249 10.2409 58.7271L10.7309 58.3356L11.0247 58.7271C11.27 58.5317 11.5632 58.3847 11.8079 58.2372L11.7102 58.0417C11.8571 57.9433 12.004 57.8456 12.2001 57.7964L12.4448 58.4333ZM24.003 58.0411L23.9053 58.2366L24.6891 58.7265C24.7874 58.6288 24.8852 58.4818 24.9829 58.3841L25.4728 58.7265L25.2276 59.0695L25.9622 59.6572C26.1091 59.5103 26.2075 59.3634 26.3538 59.2165C26.4515 59.265 26.5984 59.3634 26.6962 59.4611V59.5103L25.9615 60.2935L24.1985 59.0695L23.2678 58.4818L23.5131 57.7958C23.7092 57.8456 23.8561 57.9433 24.003 58.0411ZM15.1871 60.9795L15.7748 60.0494L16.3631 60.9795H15.1871ZM20.4769 60.9795H19.3507C19.5116 60.6591 19.6914 60.3485 19.8892 60.0494C20.0847 60.3439 20.2808 60.6857 20.4769 60.9795ZM16.0686 62.9885C15.9709 63.184 15.9223 63.4772 15.8731 63.7716C15.9709 63.8202 16.1184 63.7716 16.2162 63.7231H16.2653V64.0163C16.167 63.9677 16.0692 63.9677 15.9223 63.9677C15.9223 64.1147 15.9709 64.2622 15.9223 64.4577H15.6285C15.6285 64.2622 15.6285 64.1147 15.6777 63.9677C15.5307 63.9677 15.3838 63.9677 15.2861 64.0163V63.7231C15.3838 63.7716 15.5307 63.8202 15.6777 63.7716C15.6777 63.4772 15.5799 63.2331 15.4816 62.9885C15.5799 62.8415 15.7268 62.6454 15.7754 62.4985C15.824 62.6454 15.9709 62.8409 16.0686 62.9885Z" fill="currentColor"></path>
                        <path fill-rule="evenodd" clip-rule="evenodd" d="M20.5254 58.7267H21.1131C21.3086 59.0205 21.5539 59.3143 21.7985 59.5104C21.5047 59.9512 21.3578 60.4897 21.0154 60.9311H21.5539C21.6024 61.421 21.6516 61.911 21.8963 62.3026H18.664V64.6527H21.6516C21.5047 66.8073 19.8394 68.9134 17.831 69.6978C15.8233 68.9134 14.2072 66.8073 14.0603 64.6527H16.9987V62.3026H13.815C14.0603 61.911 14.1088 61.421 14.1088 60.9311H14.6473V60.8825C14.3043 60.4897 14.2066 60.0004 13.9127 59.5596C13.9127 59.5596 13.8635 59.5104 13.9127 59.5104C14.1509 59.2715 14.3641 59.0089 14.549 58.7267H16.2635C16.7042 58.9221 17.0958 59.1182 17.4874 59.4127C18.0751 59.1189 18.6142 58.7765 19.2013 58.4334C19.4951 58.3357 19.8873 58.2373 20.1805 58.4334C20.2808 58.5306 20.4277 58.6283 20.5254 58.7267ZM20.7215 59.7551H14.991V59.9506H15.5787L14.8926 61.078C14.9418 61.2249 15.0395 61.421 15.1864 61.5182C15.4317 61.7136 15.7741 61.7641 16.068 61.6651C16.3133 61.568 16.5579 61.3706 16.6557 61.078L16.0194 59.9506H17.4886V60.392H17.7825L17.3909 60.8819L17.8317 61.3221L18.2724 60.8819L17.8808 60.392H18.1747L18.2239 59.9506H19.6931C19.6931 59.9506 19.2523 60.735 19.007 61.078C19.0562 61.1751 19.1539 61.3227 19.2025 61.421C19.4478 61.7143 19.8388 61.7641 20.1818 61.6657C20.4271 61.6171 20.7209 61.3227 20.7695 61.0786L20.0834 59.9512H20.7203V59.7551H20.7215ZM16.9993 65.9756H14.6977C15.0401 67.1018 15.9223 68.2274 16.9993 68.9134V65.9756ZM18.6646 65.9756V68.9134C19.3507 68.4733 19.9377 67.885 20.4277 67.2002C20.673 66.8073 20.8684 66.4157 21.0154 65.9756H18.6646ZM26.2554 68.6202C26.2068 68.9775 26.2068 69.3398 26.2554 69.6972H26.0107C26.1084 69.4513 26.0599 69.1089 26.0599 68.8157C25.9621 69.0603 25.913 69.3056 25.8644 69.5503H25.6677C25.6677 69.3056 25.6185 69.1089 25.5208 68.9134V69.6493L25.5699 69.6978C25.4722 69.7464 25.3738 69.7464 25.3247 69.7464L25.3738 69.6493C25.3738 69.3548 25.3738 69.0124 25.3247 68.7179C25.423 68.6694 25.5208 68.6694 25.6677 68.6694C25.6677 68.8163 25.7654 69.0124 25.7654 69.1593C25.8146 69.0124 25.9123 68.8163 25.9123 68.6208H26.2554V68.6202ZM10.6325 68.8642V69.6972L10.6817 69.7943C10.5839 69.7943 10.4862 69.7458 10.3878 69.7458L10.437 69.6486C10.437 69.3056 10.4862 68.9626 10.3878 68.6687L10.6817 68.7173L10.6325 68.8642ZM25.0806 68.8642C25.0314 69.2072 25.1784 69.6486 24.8851 69.8441C24.7382 69.8927 24.5907 69.9412 24.4929 69.8441L24.4444 69.7458V69.0111L24.3952 68.9626C24.4444 68.9128 24.5907 68.8642 24.689 68.8642L24.5907 68.9626L24.6398 69.6972C24.7376 69.8441 24.8353 69.6972 24.8851 69.6486V68.9128L24.836 68.8157C24.9337 68.7671 25.0314 68.7671 25.1298 68.7173L25.0806 68.8642ZM10.1426 68.8157C10.2403 69.0603 10.2403 69.3056 10.0934 69.5017C9.94645 69.7464 9.65261 69.6972 9.35876 69.6972C9.55425 69.4513 9.4565 69.0603 9.4565 68.7173C9.4565 68.6687 9.40732 68.6687 9.40732 68.6202C9.70179 68.6202 9.99563 68.5704 10.1426 68.8157ZM9.70179 68.7671L9.65261 69.5503C9.75035 69.5503 9.84871 69.5503 9.89789 69.4519C9.99563 69.3062 9.99563 69.0603 9.94707 68.8648C9.89789 68.7671 9.80015 68.7671 9.70179 68.7671ZM11.514 68.9626V69.2073C11.4157 69.1587 11.3671 69.0118 11.2202 69.0603C11.0247 69.2073 11.0733 69.4034 11.1224 69.5988C11.1224 69.6972 11.1716 69.7943 11.2694 69.8447C11.3671 69.8447 11.4157 69.8447 11.514 69.7949V70.0408C11.2694 70.0408 11.0733 69.9923 10.9263 69.7464C10.828 69.5509 10.828 69.2079 10.9749 69.0603C11.0726 68.9134 11.2202 68.8648 11.3671 68.9134C11.4157 68.9128 11.4655 68.9626 11.514 68.9626ZM24.2968 69.1587V69.2073C24.1991 69.1587 24.1499 69.1587 24.0515 69.2073L24.0024 69.2558C24.0515 69.5017 24.0024 69.8441 24.1007 70.0888L23.8069 70.2357C23.9046 69.9412 23.8069 69.5988 23.8561 69.3056C23.7583 69.3056 23.66 69.4513 23.6108 69.5503C23.5616 69.4519 23.6108 69.3548 23.6108 69.2558C23.8069 69.1587 24.0024 69.1089 24.2476 68.9626C24.2968 69.0118 24.2968 69.1089 24.2968 69.1587ZM12.2978 69.5988C12.2486 69.5017 12.1509 69.4034 12.0525 69.4034C12.0034 69.6978 12.0034 70.0402 12.0525 70.2849L11.8072 70.1878C11.8564 69.8933 11.8072 69.5995 11.8564 69.2564C11.7581 69.2564 11.7095 69.2079 11.6111 69.2564V69.061L12.2972 69.3554V69.5988H12.2978ZM23.4639 69.5988C23.4639 69.5503 23.3661 69.5503 23.3169 69.5503C23.259 69.5873 23.2109 69.6379 23.1768 69.6976C23.1428 69.7574 23.1238 69.8246 23.1215 69.8933C23.1215 70.0402 23.1215 70.2363 23.2678 70.2849C23.3661 70.3347 23.4639 70.2363 23.513 70.138V70.3839C23.4153 70.4324 23.2678 70.5308 23.17 70.481C23.0939 70.4487 23.0296 70.3938 22.9858 70.3238C22.9419 70.2538 22.9206 70.1719 22.9247 70.0894C22.8762 69.7949 22.9739 69.5509 23.2678 69.4034C23.3169 69.3548 23.4147 69.4034 23.4639 69.3548V69.5988ZM12.6894 69.5503L12.6402 69.6486V70.3832C12.6402 70.4318 12.738 70.4804 12.7871 70.5302C12.8363 70.5302 12.9341 70.4804 12.9341 70.4318C12.8849 70.1871 12.9826 69.8933 12.8849 69.6486L13.1302 69.7943C13.0324 69.9412 13.081 70.1373 13.081 70.3341C13.081 70.8228 12.6894 70.6758 12.5917 70.5787C12.4933 70.4804 12.4447 70.4318 12.4447 70.2843C12.3956 69.991 12.4939 69.6486 12.3956 69.4027L12.6894 69.5503ZM13.6693 69.9917C13.6693 70.1871 13.7185 70.3347 13.767 70.5302C13.8654 70.3832 13.914 70.2357 13.9631 70.0888C14.0123 70.0888 14.1586 70.0888 14.257 70.1373L14.2078 70.2843L14.257 71.0687V71.1658C14.2078 71.2143 14.0609 71.1658 14.0117 71.1658C13.9625 71.1172 14.0609 71.0687 14.0609 71.0687V70.2843C13.9631 70.5302 13.8654 70.7256 13.8156 70.9211L13.6687 70.8713C13.6687 70.6267 13.5709 70.3826 13.5217 70.1367C13.4725 70.4122 13.4725 70.6942 13.5217 70.9697C13.4234 70.9697 13.3748 70.9211 13.3256 70.9211H13.2765L13.3256 70.8713C13.3748 70.5781 13.3256 70.2357 13.3256 69.9412L13.2765 69.8441L13.6693 69.9917ZM22.6315 69.7943C22.6807 70.0888 22.7784 70.3341 22.8768 70.5787L22.9254 70.6758C22.8276 70.6758 22.7299 70.7742 22.6315 70.7742C22.6807 70.6758 22.6315 70.6273 22.6315 70.5295C22.5338 70.5295 22.436 70.5781 22.3377 70.6267C22.3377 70.725 22.3377 70.8221 22.3868 70.9211C22.2885 70.9697 22.1907 71.0182 22.093 71.0182C22.2399 70.6752 22.2885 70.3334 22.3377 69.991V69.8927C22.436 69.8441 22.5338 69.7943 22.6315 69.7943ZM22.5823 70.3832L22.4846 69.9917L22.3868 70.4318L22.5823 70.3832ZM22.0438 70.1871C22.093 70.2843 22.093 70.4804 21.9946 70.5787C21.9455 70.6758 21.7985 70.6758 21.6516 70.7256C21.6516 70.8713 21.6516 71.0189 21.7008 71.1172C21.6024 71.1658 21.5047 71.1172 21.407 71.1658C21.5047 70.8713 21.4561 70.5302 21.4561 70.1871L21.407 70.0888C21.6522 70.1373 21.8969 69.9419 22.0438 70.1871ZM21.6522 70.1871V70.5787C21.7014 70.5787 21.7992 70.5787 21.7992 70.5302C21.8483 70.4318 21.8483 70.3347 21.8483 70.2843C21.8477 70.1871 21.7008 70.1871 21.6522 70.1871Z" fill="currentColor"></path>
                        <path fill-rule="evenodd" clip-rule="evenodd" d="M13.7671 60.8823C13.8162 61.4208 13.6693 61.9107 13.3263 62.3509C13.3755 62.4492 13.4732 62.5463 13.5224 62.5955C13.7179 62.5955 13.8654 62.6453 13.9632 62.547C14.1101 62.4499 14.2078 62.547 14.257 62.6453C14.3547 62.6453 14.4033 62.6453 14.5017 62.5955C14.5017 62.6453 14.4531 62.7424 14.4039 62.7424C14.3554 62.7923 14.3554 62.7923 14.3062 62.7923C14.2084 62.8894 14.1593 62.9877 14.0123 62.9379C13.9632 62.8408 13.8654 62.8894 13.7671 62.8894C13.914 63.0363 14.0609 63.1838 14.257 63.2324H14.5509C14.6486 63.281 14.6 63.4279 14.6978 63.4771H14.8441C14.7955 63.624 14.5994 63.5754 14.501 63.6738C14.2564 63.7223 14.1586 63.4771 14.0117 63.4279L13.7664 63.2324C13.7664 63.4771 13.8648 63.6738 14.0117 63.8693C14.1095 63.9178 14.2072 63.9178 14.257 63.9664C14.3547 64.0149 14.257 64.1619 14.4033 64.1619H14.5502C14.4525 64.3088 14.2564 64.2602 14.1586 64.3573C14.0609 64.4071 13.9632 64.3573 13.8648 64.3088C13.8156 64.2117 13.8156 64.1133 13.8156 64.0143C13.571 63.7697 13.4726 63.4273 13.3749 63.134C13.3257 63.1826 13.2771 63.2312 13.3257 63.2797C13.3257 63.3295 13.4234 63.4266 13.3257 63.5256C13.2765 63.5742 13.3257 63.6725 13.3257 63.7211C13.2765 63.6725 13.2279 63.6227 13.1302 63.5742C13.081 63.5742 12.9347 63.4758 13.081 63.2312C13.081 63.0842 13.1794 62.9367 13.2279 62.791C13.2279 62.7412 13.1302 62.6441 13.081 62.5943C12.4933 63.134 11.7587 63.3787 11.0727 63.6725C10.9264 63.7697 10.7303 63.9658 10.6811 64.1612C10.6811 64.2596 10.7303 64.3082 10.828 64.4071C11.4157 64.5541 11.9056 64.0143 12.4933 64.3573C12.8849 64.6032 12.6894 65.2401 13.2279 65.3858C12.9827 65.4842 12.6894 65.6317 12.5917 65.9243C12.5425 66.2188 12.5425 66.6602 12.738 66.9042C13.1788 67.3941 14.1095 66.9042 14.3056 67.6874C14.3056 67.8343 14.3056 67.9818 14.1586 68.0802C14.1592 68.1684 14.137 68.2553 14.0941 68.3324C14.0513 68.4095 13.9892 68.4742 13.914 68.5203L13.7671 68.5689C13.8162 68.4718 13.8654 68.3734 13.8162 68.2757C13.778 68.1883 13.7082 68.1185 13.6208 68.0802C13.6208 68.1773 13.5716 68.3248 13.523 68.4232C13.4247 68.5689 13.2777 68.5689 13.1314 68.6187C13.2292 68.4718 13.2292 68.3728 13.1806 68.2259C13.1806 68.1773 13.1314 68.0802 13.0823 68.0802C12.9845 68.2757 12.7884 68.4718 12.5438 68.5203C12.5929 68.4232 12.6415 68.3248 12.5929 68.1773C12.5929 67.9818 12.2991 68.0304 12.2499 67.8343C12.0538 67.5398 11.76 67.3443 11.4169 67.3941C11.613 67.0997 11.9069 66.8058 11.76 66.4142C11.7108 66.2188 11.5153 66.0227 11.3192 65.9741H11.0254C10.9276 65.6796 10.7315 65.3372 10.4377 65.2881C10.3885 65.2881 10.3885 65.2395 10.3399 65.2881C10.6338 65.6796 10.683 66.3651 10.4377 66.8556C10.2422 67.4427 9.55614 67.5902 9.21312 68.0802C10.8293 67.9818 12.103 68.6672 13.3761 69.3047C13.6214 69.4019 13.9152 69.5002 14.2085 69.5494C14.2576 69.4025 14.2085 69.2549 14.3554 69.2064C14.8447 69.0595 15.4324 69.2064 15.8246 69.5494C16.0207 69.6963 15.9229 69.9908 15.9715 70.1863C16.167 70.2834 16.4123 70.2834 16.6576 70.3817C17.5883 70.4789 18.6659 70.4789 19.5474 70.2834C19.596 70.2348 19.6943 70.2348 19.7429 70.1863C19.7429 69.9908 19.6943 69.7934 19.7921 69.6478C20.2329 69.2549 20.8205 69.0595 21.3597 69.2064C21.506 69.3047 21.4574 69.4019 21.4574 69.5494C22.3389 69.451 23.0244 68.9125 23.8082 68.6193C24.6405 68.2763 25.522 68.031 26.5019 68.0808C26.1103 67.5909 25.3751 67.3948 25.1796 66.7093C25.0327 66.2679 25.0819 65.6809 25.3751 65.2893C25.2742 65.2873 25.1749 65.3137 25.0883 65.3656C25.0018 65.4175 24.9316 65.4926 24.8858 65.5825C24.788 65.7294 24.7389 65.877 24.6897 65.9753C24.445 65.9753 24.1512 66.0239 24.0036 66.2686C23.8567 66.464 23.8567 66.8071 24.0036 67.053L24.2489 67.396C23.9059 67.3462 23.612 67.5915 23.4166 67.8847C23.3188 68.0814 23.025 68.0316 23.0735 68.2775C23.0735 68.3747 23.0735 68.4245 23.1713 68.473C23.0244 68.473 22.8774 68.4245 22.7797 68.2775C22.6813 68.2277 22.6813 68.0821 22.5836 68.0821C22.4367 68.1792 22.4859 68.3753 22.5344 68.5222V68.5708C22.4367 68.6206 22.3383 68.5708 22.2406 68.5222C22.1488 68.3934 22.0976 68.2401 22.0937 68.0821C21.9959 68.0821 21.9467 68.1306 21.8975 68.2277C21.8484 68.2775 21.8484 68.3746 21.8484 68.4736L21.8975 68.5708C21.7506 68.5222 21.5551 68.3753 21.506 68.2277V68.0821C21.4082 67.9837 21.3597 67.7876 21.4082 67.6407C21.6535 66.7591 23.0244 67.5423 23.1227 66.4647C23.1713 66.1216 23.1227 65.7786 22.7797 65.5346C22.6813 65.486 22.5836 65.4375 22.4367 65.3877C22.9752 65.242 22.7797 64.5559 23.3182 64.3107C23.8567 64.066 24.3467 64.6051 24.8858 64.3592C25.0321 64.3106 25.0321 64.2135 25.0321 64.066C24.6897 63.576 24.102 63.5275 23.612 63.233C23.269 63.0375 22.926 62.89 22.6328 62.5961C22.535 62.646 22.4859 62.7431 22.4859 62.7929C22.4859 62.9386 22.5836 63.0861 22.6328 63.2816C22.7305 63.3799 22.682 63.5275 22.5836 63.5275C22.5344 63.6246 22.4367 63.6744 22.3383 63.723C22.3875 63.6744 22.3875 63.6246 22.3875 63.576C22.2891 63.5275 22.2891 63.4291 22.3383 63.3314C22.3875 63.2816 22.3383 63.233 22.3383 63.1845V63.1359C22.2416 63.4673 22.0929 63.7813 21.8975 64.066C21.8975 64.1631 21.8975 64.2615 21.7998 64.3107C21.7021 64.3598 21.6037 64.3592 21.506 64.3592C21.4082 64.2621 21.2121 64.3107 21.1144 64.1637C21.2121 64.1637 21.3099 64.1637 21.3597 64.1152C21.3597 64.0168 21.4574 63.9683 21.506 63.9197C21.5551 63.8711 21.6037 63.9197 21.6529 63.8711C21.7998 63.6757 21.8975 63.4783 21.9467 63.2828H21.8975C21.7506 63.4297 21.5551 63.4783 21.359 63.6258C21.2607 63.6757 21.1629 63.6757 21.0646 63.5773C21.016 63.6258 20.8691 63.5773 20.8199 63.4789C20.8691 63.4789 20.9668 63.5287 21.016 63.4304C21.016 63.3818 21.0646 63.2834 21.1138 63.2349C21.2115 63.1863 21.3092 63.2349 21.359 63.2834C21.4076 63.2834 21.5053 63.2834 21.5545 63.1863C21.6523 63.1378 21.7992 62.9908 21.8969 62.8919C21.75 62.7947 21.6031 63.0388 21.4562 62.8919L21.407 62.7947C21.3565 62.7954 21.3068 62.7819 21.2635 62.756C21.2202 62.7301 21.185 62.6926 21.1617 62.6478V62.598C21.2109 62.598 21.3086 62.6478 21.407 62.6478C21.4562 62.5495 21.5047 62.5495 21.6025 62.5495C21.6516 62.5495 21.7494 62.5495 21.7986 62.598C21.9455 62.598 22.0924 62.6964 22.1901 62.5495L22.3862 62.354C22.0432 61.9624 21.8471 61.4239 21.9455 60.8854C22.2393 60.8854 22.4846 60.8854 22.7785 60.8356C22.7293 61.2284 22.7293 61.6686 22.6801 62.0601C22.6801 62.0601 23.317 61.9145 24.1007 61.5714C24.1499 62.1585 24.4438 62.6484 24.6393 63.139C24.9331 62.8445 25.2755 62.6491 25.57 62.306C26.1576 62.9417 26.7945 63.6277 27.0392 64.4607C27.1375 64.9506 27.1375 65.5377 27.676 65.7824C27.7738 65.8322 27.8721 65.8322 27.9699 65.8322C28.0676 65.8322 28.1168 65.7338 28.1168 65.6852C28.166 65.2451 27.8721 64.9506 27.7252 64.559C27.5297 64.216 27.4806 63.6277 27.7252 63.3345C28.0683 62.8931 28.7537 63.2361 29.0967 62.8445C29.1459 62.7462 29.1951 62.6491 29.2436 62.5501C29.2928 62.7456 29.1944 62.9417 29.1944 63.1384C29.2922 63.0886 29.4391 63.04 29.5375 62.9915L29.8313 62.697C29.586 63.2355 29.6844 64.0187 28.9498 64.1656C28.7537 64.1656 28.5582 64.1656 28.3621 64.117C28.2644 64.117 28.2158 64.1656 28.1666 64.2154V64.3611C28.3621 64.9494 28.9504 65.5371 28.5582 66.1739C28.3621 66.4186 28.0683 66.4672 27.8236 66.4186C27.5789 66.3215 27.3828 66.1739 27.1873 65.9785L27.1382 66.1241C27.089 66.86 27.1873 67.7415 27.8728 68.1331C27.9213 68.1331 28.0191 68.1817 28.0683 68.1817L27.9705 68.28V68.3286C28.3135 68.3771 28.7051 68.3771 29.0475 68.3286L29.0967 70.4832C28.5582 70.5816 27.9705 70.4832 27.4806 70.3861C27.0884 70.6308 26.9414 71.0722 26.5499 71.2178C26.4515 71.2676 26.4515 71.3648 26.5007 71.4637C26.5007 71.5123 26.5499 71.5609 26.5984 71.6107C26.4029 71.6107 26.2068 71.4637 26.1576 71.3162C26.1085 71.2676 26.1085 71.2178 26.1085 71.1207C25.9615 71.1693 25.913 71.3162 25.913 71.4637V71.5609C25.7169 71.5123 25.57 71.2676 25.57 71.0722C25.4722 71.0722 25.3739 71.2178 25.3739 71.3168L25.3247 71.4152C25.1778 71.2185 25.1292 70.7291 25.2755 70.4353L25.3732 70.3382C25.0794 70.3382 24.8347 70.4353 24.5894 70.4838C23.2672 70.8269 22.1901 72.0022 20.7209 71.6598V71.1213C20.574 71.0728 20.4756 71.1699 20.3779 71.2185V72.0514C19.888 72.4928 19.2025 72.4928 18.6149 72.5899H17.1419C16.5194 72.5463 15.9286 72.4256 15.4311 72.1498L15.3334 72.1012V71.2185C15.2357 71.1213 15.1373 71.1213 14.9904 71.0728V71.6598L14.9412 71.7084C14.3535 71.8068 13.7658 71.6598 13.2273 71.4637L11.6597 70.6793C11.2682 70.5336 10.8274 70.3861 10.3374 70.3375C10.5827 70.5822 10.5827 71.0722 10.3866 71.3648V71.4146C10.3374 71.2676 10.2889 71.1201 10.142 71.0217C10.0928 71.1686 10.0928 71.3162 9.99504 71.4146C9.94586 71.4631 9.8973 71.5117 9.79956 71.5602C9.79956 71.4146 9.79956 71.2172 9.65264 71.1201C9.60408 71.3156 9.40735 71.5602 9.16332 71.61H9.11413C9.21187 71.5117 9.26106 71.3641 9.21187 71.267C8.82029 71.0715 8.62419 70.581 8.2326 70.3855C7.74266 70.4826 7.20415 70.581 6.66503 70.4826V68.328C7.00805 68.3765 7.39963 68.3765 7.74266 68.2794L7.6443 68.181C8.0365 68.1325 8.33034 67.7409 8.47727 67.3979C8.62419 66.9565 8.62419 66.4665 8.52645 65.9778L8.2326 66.2711C7.98732 66.418 7.59636 66.4665 7.30189 66.3209C7.20514 66.2486 7.13078 66.1505 7.08738 66.0378C7.04398 65.9251 7.03332 65.8025 7.05661 65.684C7.10579 65.194 7.39963 64.8025 7.59574 64.3125C7.59574 64.2154 7.54656 64.1656 7.498 64.117C7.05723 64.1656 6.61585 64.2154 6.322 63.8724C6.02816 63.5294 6.07734 63.0394 5.93042 62.6964C6.07734 62.941 6.322 63.0394 6.51811 63.1378C6.51811 62.941 6.42037 62.7449 6.46892 62.5495C6.56666 62.7449 6.76277 62.941 6.95887 62.9908C7.35045 63.088 7.79122 62.9908 8.0365 63.3824C8.47727 64.1656 7.69348 64.8025 7.59574 65.5371C7.59574 65.6354 7.59574 65.684 7.6443 65.7817C7.74266 65.8315 7.8404 65.8801 7.93876 65.8315C8.77111 65.5856 8.47727 64.607 8.82029 64.0187C9.16332 63.4316 9.65264 62.8439 10.1426 62.3054C10.4364 62.5986 10.7303 62.8439 11.0727 63.1384C11.2688 62.6484 11.5626 62.1585 11.6118 61.5708C12.0526 61.7663 12.5425 61.9138 12.9833 62.0595C12.9833 61.6679 12.9833 61.2278 12.9347 60.835C13.1794 60.8823 13.4732 60.8325 13.7671 60.8823ZM9.06558 68.4245C8.91865 68.7177 8.96783 69.1093 9.01639 69.4517C9.06558 69.6484 9.21187 69.893 9.40798 69.9416C10.3387 69.9416 11.2202 70.1371 11.9548 70.4801C12.8364 70.8717 13.6201 71.5086 14.6978 71.4114V69.8439C14.2078 69.8924 13.7179 69.7941 13.2771 69.598C11.9548 68.9132 10.6817 68.2277 9.06558 68.4245ZM24.0516 68.816L22.4846 69.5506C22.0438 69.7461 21.5539 69.8937 21.0154 69.8451V71.4127C21.4562 71.4612 21.8477 71.3629 22.2393 71.216L23.7577 70.4814C24.394 70.2367 25.0308 70.0412 25.7163 69.9927C25.9124 69.9429 26.2062 70.0412 26.4023 69.8943C26.4922 69.8482 26.5673 69.7779 26.6193 69.6913C26.6712 69.6047 26.6978 69.5053 26.6962 69.4043C26.7453 69.1099 26.7945 68.7183 26.6476 68.4257C25.763 68.3262 24.8678 68.4608 24.0516 68.816ZM7.93876 68.5708C7.59574 68.6206 7.3019 68.6691 6.95887 68.6691V70.2367C7.20415 70.2367 7.498 70.2367 7.79122 70.1383C8.0365 69.7467 8.13424 69.2082 8.0365 68.7183L7.93876 68.5708ZM27.7738 68.5708C27.5291 69.0607 27.6269 69.7467 27.9207 70.1881C28.2152 70.2367 28.5084 70.2367 28.8029 70.2367V68.6691C28.4107 68.6691 28.1168 68.6206 27.7738 68.5708ZM15.6285 70.3836V71.9512C15.7262 72.0483 15.9223 72.0981 16.0692 72.1467C16.9514 72.3422 17.9792 72.3913 18.9099 72.2438C19.3015 72.1952 19.7423 72.1467 20.0853 71.9008V70.383C19.7915 70.5299 19.4491 70.5785 19.106 70.6277C17.9786 70.7752 16.6563 70.7752 15.6285 70.3836Z" fill="currentColor"></path>
                        <path fill-rule="evenodd" clip-rule="evenodd" d="M16.3138 70.8719C16.3138 71.0686 16.363 71.2149 16.4116 71.3618C16.4607 71.2149 16.5093 71.0686 16.5093 70.9217C16.6077 70.9217 16.7546 70.9217 16.8523 70.9702L16.8031 71.0686C16.8523 71.4116 16.8031 71.7042 16.8523 71.9987H16.6077C16.6568 71.754 16.6568 71.4116 16.6568 71.1657C16.5591 71.3612 16.4614 71.5573 16.4614 71.8026C16.4614 71.8026 16.3636 71.8026 16.3144 71.754C16.3144 71.5081 16.2167 71.3126 16.1675 71.0679C16.1189 71.3431 16.1189 71.6246 16.1675 71.8997L15.972 71.8026C16.0698 71.5567 16.0212 71.2641 16.0212 70.9696C15.972 70.921 15.972 70.8227 15.972 70.7741L16.3138 70.8719ZM19.7416 70.8233C19.6438 71.0692 19.693 71.4116 19.693 71.7546V71.8032C19.6256 71.8641 19.5385 71.8986 19.4477 71.9003C19.4963 71.6071 19.4963 71.3618 19.4963 71.0686C19.4477 71.3132 19.35 71.5087 19.3008 71.7546C19.2516 71.8032 19.2031 71.8032 19.1539 71.8032C19.1539 71.5573 19.0562 71.3618 19.007 71.1663C19.007 71.4122 18.9578 71.7546 19.0562 71.9993C18.9578 71.9993 18.86 71.9993 18.7623 72.0478C18.86 71.7546 18.8115 71.4122 18.86 71.0692L18.7623 70.9702C18.9092 70.9702 19.0076 70.9702 19.1053 70.9217C19.1545 70.9702 19.1545 71.0686 19.1545 71.1171L19.2523 71.4116C19.3014 71.2149 19.3506 71.0686 19.3506 70.8719C19.4969 70.8719 19.5947 70.8233 19.7416 70.8233ZM17.6361 71.2149C17.5384 71.1178 17.4406 71.1178 17.3423 71.1663V71.4122C17.3915 71.4608 17.4892 71.4608 17.5869 71.4122V71.6077C17.4892 71.5579 17.44 71.5579 17.3423 71.5579V71.9009C17.3915 71.9507 17.5378 71.9507 17.6361 71.9009H17.6853V72.0976C17.4892 72.0976 17.2445 72.0478 17.0484 72.0478C17.0976 71.9507 17.1462 71.8524 17.1462 71.7048C17.097 71.4602 17.1954 71.2149 17.0484 70.9702L17.6361 71.0188V71.2149ZM18.6154 70.9702C18.517 71.2647 18.5662 71.6071 18.517 71.9003C18.517 71.9501 18.4678 72.0472 18.3701 72.097C17.9785 72.1941 17.8802 71.9003 17.8802 71.9003C17.8802 71.6071 17.9293 71.2647 17.831 71.0188H18.1254C18.0277 71.2647 18.0763 71.5573 18.0763 71.8517C18.1254 71.9003 18.174 71.9003 18.2232 71.9501C18.2724 71.9501 18.3701 71.9003 18.4187 71.8517C18.4187 71.5573 18.4187 71.3132 18.3695 71.0686V71.0188C18.4193 70.9702 18.5176 71.0188 18.6154 70.9702ZM41.7319 68.6686C41.7319 68.8156 41.7319 68.9631 41.781 69.0602C41.928 69.3547 42.271 69.4518 42.6134 69.4518C42.8587 69.4518 43.2994 69.3547 43.2994 68.9631C43.2994 68.6686 43.0542 68.5703 42.1241 68.3262C41.2425 68.0816 40.2633 67.8363 40.2633 66.7587C40.2633 65.4856 41.3403 64.947 42.4671 64.947C43.6425 64.947 44.7201 65.3872 44.7687 66.7101H43.1525C43.2017 66.5146 43.1033 66.3671 42.9564 66.2687C42.8095 66.176 42.6401 66.1252 42.4665 66.1218C42.2212 66.1218 41.8302 66.2202 41.8302 66.5146C41.8788 66.9062 42.6626 67.0046 43.4464 67.2007C44.2302 67.3968 44.9648 67.7877 44.9648 68.7683C44.9648 70.1883 43.6917 70.677 42.4671 70.677C41.8309 70.677 40.0678 70.4323 40.0678 68.6693H41.7319V68.6686ZM46.6786 66.4642H45.1111V65.0435H49.8617V66.4642H48.344V70.5301H46.6786V66.4642ZM51.7232 67.7871C51.7232 66.5626 52.3594 66.2687 52.8002 66.2687C53.2409 66.2687 53.8778 66.5632 53.8778 67.7871C53.8778 69.011 53.2409 69.3055 52.8002 69.3055C52.3594 69.3055 51.7232 69.0117 51.7232 67.7871ZM50.0093 67.7871C50.0093 69.4518 51.1355 70.6764 52.8008 70.6764C54.4661 70.6764 55.5437 69.4518 55.5437 67.7871C55.5437 66.1212 54.4661 64.947 52.8008 64.947C51.1355 64.947 50.0093 66.1212 50.0093 67.7871ZM59.7553 67.1011C59.7061 66.9056 59.5592 66.2681 58.8737 66.2681C58.09 66.2681 57.7961 67.0525 57.7961 67.7865C57.7961 68.5205 58.09 69.3049 58.8737 69.3049C59.4123 69.3049 59.6569 68.9121 59.7553 68.3736H61.4206C61.4206 69.501 60.4893 70.6751 58.9223 70.6751C57.1107 70.6751 56.1308 69.402 56.1308 67.7859C56.1308 66.0714 57.2084 64.9458 58.9223 64.9458C60.3921 64.9458 61.2251 65.729 61.3708 67.1004H59.7553V67.1011ZM62.1066 65.0435H63.8199V66.9541L65.3383 65.0435H67.3958L65.4367 67.1994L67.7388 70.5301H65.6328L64.2613 68.3742L63.8199 68.9127V70.5301H62.1066V65.0435ZM69.9906 65.0435H74.4966V66.4642H71.6565V67.1496H74.252V68.424H71.6565V69.1088H74.595V70.5301H69.9906V65.0435ZM76.848 67.6396L75.0837 65.0435H77.0441L77.8758 66.5626L78.6602 65.0435H80.5702L78.8071 67.6396L80.7657 70.5301H78.7088L77.7787 68.9127L76.7982 70.5301H74.8882L76.848 67.6396ZM84.3895 67.1011C84.341 66.9056 84.1941 66.2681 83.508 66.2681C82.6763 66.2681 82.431 67.0525 82.431 67.7865C82.431 68.5205 82.6769 69.3049 83.508 69.3049C84.0478 69.3049 84.2924 68.9121 84.3895 68.3736H86.0069C86.0069 69.501 85.1254 70.6751 83.508 70.6751C81.7449 70.6751 80.7663 69.402 80.7663 67.7859C80.7663 66.0714 81.8433 64.9458 83.508 64.9458C85.0264 64.9458 85.8594 65.729 86.0069 67.1004H84.3895V67.1011ZM86.7895 65.0435H88.4554V66.9541H90.0217V65.0435H91.7356V70.5301H90.0217V68.3742H88.4554V70.5301H86.7895V65.0435ZM94.4306 68.5703L94.9691 66.9056L95.4578 68.5703H94.4306ZM92.1272 70.5301H93.7931L94.0378 69.7457H95.8008L96.0468 70.5301H97.7613L95.8015 65.0442H94.1368L92.1272 70.5301ZM98.2493 65.0435H99.9638L101.531 67.9826H101.58V65.0435H103.148V70.5301H101.531L99.8667 67.5412H99.8169V70.5301H98.2493V65.0435ZM108.045 69.9916C107.702 70.4317 107.115 70.6764 106.478 70.6764C104.861 70.6764 103.882 69.4033 103.882 67.8363C103.882 65.7788 105.351 64.947 106.576 64.947C107.996 64.947 108.877 65.6817 109.122 66.9548H107.506C107.408 66.5632 107.114 66.2687 106.673 66.2687C105.547 66.2687 105.596 67.4933 105.596 67.8849C105.596 68.3748 105.792 69.3061 106.821 69.3061C107.212 69.3061 107.605 69.1094 107.702 68.6693H106.919V67.4933H109.172V70.5307H108.094L108.045 69.9916ZM110.102 65.0435H114.657V66.4642H111.817V67.1496H114.363V68.424H111.817V69.1088H114.706V70.5301H110.102V65.0435Z" fill="currentColor"></path>
                    </svg>
