<svg xmlns="http://www.w3.org/2000/svg" width="111" height="26" viewBox="0 0 111 26" fill="none">
                        <g clip-path="url(#clip0)">
                            <path d="M0 13.7667L2.41371 0.362305H7.6045C11.4149 0.362305 13.569 2.78668 12.7758 7.19853C11.8658 12.2459 8.88597 13.7667 5.09183 13.7667H0Z" fill="currentColor"></path>
                            <path d="M4.4397 10.6409H5.26049C7.06753 10.6409 8.24681 9.56192 8.70425 7.02833C9.2071 4.23492 8.53555 3.49023 6.46735 3.49023H5.72604L4.4397 10.6409Z" fill="#EFF6FE"></path>
                            <path d="M25.9684 6.99162C25.146 11.5524 21.9748 14.1224 18.4759 14.1224C14.7645 14.1224 12.753 11.516 13.5755 6.95521C14.3314 2.7469 17.3388 0.00976562 21.0177 0.00976562C25.2385 0.00976562 26.6059 3.45353 25.9684 6.99162Z" fill="currentColor"></path>
                            <path d="M17.4443 6.99188C17.1361 8.70467 17.2107 10.8461 19.0664 10.8461C20.7421 10.8461 21.6943 9.20774 22.0933 6.99188C22.421 5.16657 22.1128 3.23204 20.3949 3.28831C18.6366 3.28665 17.7493 5.29731 17.4443 6.99188Z" fill="#EFF6FE"></path>
                            <path d="M37.7808 7.76859H37.8132L40.7363 0.364746H44.2271L38.5188 13.7675H34.7085L34.3403 5.98631H34.3078L31.1561 13.7675H27.4965L26.7163 0.364746H30.259L30.7051 7.76859H30.7392L33.7433 0.364746H37.2504L37.7808 7.76859Z" fill="currentColor"></path>
                            <path d="M92.6603 12.024C93.481 11.6385 93.9531 10.9037 94.2061 9.50535C95.0853 4.62848 88.0599 5.87624 88.4217 3.86559C88.5092 3.38072 88.9375 3.1027 89.7907 3.1027C90.1687 3.1027 90.5012 3.17717 90.7494 3.34431C90.9992 3.5131 91.1614 3.79278 91.1436 4.25779H94.8225C94.9637 1.90789 93.812 0.00976562 90.5272 0.00976562C87.5717 0.00976562 84.84 1.08046 84.3274 3.93013C83.4061 9.05027 90.1411 7.77437 90.1411 9.83632C90.1411 10.8706 88.3405 10.629 88.3405 10.629C86.1101 10.629 86.308 8.80535 86.308 8.80535H82.595C82.5285 10.1938 82.741 11.0642 83.1676 11.6087C82.6788 11.5972 82.19 11.5867 81.7012 11.5772L81.8618 10.2236H77.3393L77.7189 7.91338H82.1911L82.6015 5.14811H78.2802L78.6257 3.02327H83.2763L83.7386 0.362251H75.3149L73.3051 11.5292L71.5808 11.5425L73.7447 0.362251H70.4891L69.1671 7.00817L66.416 0.363906H62.7857L60.6639 12.1432C59.6955 12.2458 58.7369 12.3633 57.7847 12.4891C59.2446 11.2777 60.346 9.41599 60.7824 6.99162C61.4215 3.45353 60.0524 0.00976562 55.8317 0.00976562C52.1527 0.00976562 49.1469 2.7469 48.3894 6.95356C47.7762 10.3609 48.743 12.6761 50.8177 13.6293C48.962 13.99 47.1517 14.3839 45.3917 14.8059C46.3552 13.2255 46.7397 10.7614 47.1306 8.59187L48.6132 0.362251H44.9391L42.8904 11.5326C42.8904 11.5326 42.5676 13.525 41.4029 13.525H39.6283L38.5301 16.6428C26.3026 19.5321 15.0938 25.9878 15.0938 25.9878H21.4817C21.4817 25.9878 57.2689 5.35331 110.598 15.2825L111.003 14.8175C111 14.8191 106.748 12.9458 92.6603 12.024Z" fill="currentColor"></path>
                            <path d="M52.2599 6.99188C52.5648 5.29896 53.4521 3.28831 55.2105 3.28831C56.9283 3.23204 57.2365 5.16823 56.9089 6.99188C56.5098 9.20774 55.5576 10.8461 53.882 10.8461C52.0263 10.8461 51.9517 8.70466 52.2599 6.99188ZM65.0211 6.23892L67.584 11.6338C66.4242 11.6801 65.2709 11.7463 64.1273 11.8323L65.0211 6.23892Z" fill="#EFF6FE"></path>
                        </g>
                    </svg>
