<svg xmlns="http://www.w3.org/2000/svg" width="114" height="34" viewBox="0 0 114 34" fill="none">
                        <g clip-path="url(#clip0)">
                            <path d="M84.3761 22.2412C80.4423 22.2412 77.9536 19.9049 77.9536 16.2795C77.9536 12.4124 80.2015 10.076 83.8142 10.076H84.1353C84.7775 10.076 85.4198 10.076 86.062 10.1566V5.48389H88.6311V21.7578C87.2663 22.0801 85.8212 22.2412 84.3761 22.2412ZM84.2958 12.0901C81.8071 12.0901 80.6029 13.4597 80.6029 16.1989C80.6029 18.6964 82.048 20.2271 84.4564 20.2271C84.9381 20.2271 85.4198 20.2271 86.1423 20.1466V12.2513C85.5001 12.1707 84.9381 12.0901 84.2958 12.0901ZM49.1325 21.919L42.148 9.67322V21.919H39.7395V6.45066H43.1113L50.0958 18.5353V6.45066H52.5846V21.919H49.1325ZM71.2902 22.1607C70.0057 22.1607 68.7212 21.9995 67.4367 21.7578H67.2761V19.5826L67.517 19.6632C68.6409 19.9854 69.8451 20.1466 70.9691 20.1466C71.8522 20.1466 73.9395 19.9854 73.9395 18.6964C73.9395 17.5685 72.4944 17.3268 71.3705 17.0851H71.2902L70.648 16.8434C68.962 16.4406 67.1156 15.7155 67.1156 13.4597C67.1156 11.2039 68.8818 9.99548 71.9325 9.99548C73.0564 9.99548 74.1804 10.076 75.3043 10.3177L75.7057 10.3983V12.493H75.4649C74.4212 12.2513 73.2973 12.1707 72.2536 12.0901C71.0494 12.0901 69.6043 12.3318 69.6043 13.3792C69.6043 14.2654 70.8085 14.5071 72.1733 14.8293C74.1001 15.2321 76.4282 15.7961 76.4282 18.3741C76.5085 20.7911 74.5818 22.1607 71.2902 22.1607ZM95.9367 22.1607C93.2874 22.1607 90.7987 21.6773 90.7987 18.2936C90.7987 14.5876 94.6522 14.5876 96.9001 14.5876C97.1409 14.5876 98.1846 14.6682 98.5057 14.6682C98.5057 12.5735 98.5057 12.0901 95.455 12.0901C94.2508 12.1707 92.9663 12.2513 91.7621 12.5735H91.5212V10.5594H91.6818C92.9663 10.3177 94.3311 10.1566 95.6958 10.1566C98.586 10.1566 101.075 10.4789 101.075 14.1042V21.9995H100.914C99.2282 21.9995 97.6226 22.0801 95.9367 22.1607ZM96.8198 16.36C94.6522 16.36 93.2874 16.6823 93.2874 18.2936C93.2874 20.1466 95.0536 20.3077 96.6592 20.3077C97.3015 20.3077 98.3451 20.2271 98.6663 20.2271V16.4406L96.8198 16.36ZM59.8099 22.1607C57.1606 22.1607 54.6719 21.6773 54.6719 18.2936C54.6719 14.5876 58.5254 14.5876 60.7733 14.5876C61.0142 14.5876 62.0578 14.6682 62.3789 14.6682C62.3789 12.5735 62.3789 12.0901 59.3282 12.0901C58.124 12.1707 56.8395 12.2513 55.6353 12.5735H55.3944V10.5594H55.555C56.8395 10.3177 58.2043 10.1566 59.5691 10.1566C62.4592 10.1566 64.948 10.4789 64.948 14.1042V21.9995H64.7874C63.1818 21.9995 61.4958 22.0801 59.8099 22.1607ZM60.693 16.36C58.5254 16.36 57.1606 16.6823 57.1606 18.2936C57.1606 20.1466 58.9268 20.3077 60.5325 20.3077C61.1747 20.3077 62.2184 20.2271 62.5395 20.2271V16.4406L60.693 16.36ZM111.351 27.1556V22.0801C110.709 22.1607 110.066 22.2412 109.424 22.2412C108.38 22.2412 107.337 21.9995 106.373 21.6773C104.447 20.8716 103.242 18.777 103.242 16.1184C103.242 14.7488 103.563 12.3318 105.731 11.0428C107.016 10.3177 108.541 9.99548 110.066 10.1566C110.789 10.1566 111.672 10.2372 112.555 10.2372L114 10.3177V26.0277L111.351 27.1556ZM109.825 12.0901C107.176 12.0901 105.892 13.4597 105.892 16.0378C105.892 19.4215 107.899 20.1466 109.504 20.1466C110.147 20.1466 110.789 20.066 111.351 19.9854V12.0901H109.825Z" fill="currentColor"></path>
                        </g>
                    </svg>
