<svg xmlns="http://www.w3.org/2000/svg" width="64" height="64" fill="none"><path d="M62.352 11.262H1.648C.737 11.262 0 12 0 12.91v38.18c0 .91.737 1.648 1.648 1.648h60.704A1.646 1.646 0 0064 51.09V12.91c0-.91-.736-1.648-1.648-1.648zM4.955 23.796h6.83c.922.035 1.664.329 1.92 1.313l1.486 7.145c-1.46-3.737-4.977-6.847-10.292-8.134l.056-.324zM13.22 40.09L9.275 26.61c2.836 1.816 5.252 4.696 6.103 6.7l.46 1.665 4.315-11.024h4.669l-6.939 16.136-4.663.003zm15.033.012h-4.406l2.755-16.168h4.408l-2.757 16.168zm7.666.242c-1.974-.02-3.877-.411-4.908-.863l.62-3.618.567.257c1.447.604 2.384.849 4.149.849 1.265 0 2.622-.495 2.634-1.579.008-.708-.567-1.213-2.283-2.007-1.672-.772-3.887-2.069-3.86-4.39.024-3.143 3.093-5.335 7.448-5.335 1.706 0 3.074.35 3.946.678l-.595 3.505-.397-.187a8.128 8.128 0 00-3.298-.618c-1.724 0-2.524.718-2.524 1.39-.01.757.933 1.256 2.474 2.006 2.542 1.153 3.717 2.553 3.701 4.392-.034 3.354-3.04 5.52-7.674 5.52zm19.094-.235s-.402-1.859-.536-2.423l-5.643-.007c-.171.436-.926 2.43-.926 2.43h-4.626l6.541-14.816c.465-1.053 1.252-1.342 2.308-1.342h3.404l3.566 16.157h-4.088z" fill="currentColor"/><path d="M52.739 29.705l-.297-1.393c-.224.608-.61 1.586-.586 1.543l-1.755 4.519h3.659l-1.021-4.669z" fill="currentColor"/></svg>