<svg xmlns="http://www.w3.org/2000/svg" width="128" height="128" fill="none"><path fill-rule="evenodd" clip-rule="evenodd" d="M97.266 86.117h.787v-4.072h-2.89v.854h1.906v.591c0 1.248-.79 1.97-2.037 1.97-1.444 0-2.364-1.247-2.364-3.547 0-2.231.853-3.48 2.364-3.48.985 0 1.643.591 1.97 1.839l.92-.197c-.46-1.641-1.38-2.43-2.89-2.43-2.035 0-3.283 1.576-3.283 4.335 0 2.692 1.248 4.268 3.284 4.268.92 0 1.642-.328 2.167-1.05l.066.919zm3.02 0h.853v-3.349c.328-1.248.986-1.905 1.84-1.905h.066v-.853h-.197c-.789 0-1.314.458-1.708 1.444v-1.38h-.854v6.043zm3.679-3.02c0 2.035.919 3.15 2.495 3.15s2.496-1.115 2.496-3.15c0-2.037-.92-3.154-2.496-3.154s-2.495 1.116-2.495 3.153zm.853 0c0-1.577.592-2.431 1.642-2.431 1.051 0 1.642.854 1.642 2.43s-.591 2.43-1.642 2.43c-1.05 0-1.642-.854-1.642-2.43zm10.244-3.023h-.787v4.533c-.592.59-1.117.918-1.708.918-.723 0-.984-.393-.984-1.248v-4.203h-.855v4.467c0 1.117.592 1.707 1.577 1.707.723 0 1.379-.328 2.035-1.05v.919h.722v-6.043zm2.431 8.276h.789v-2.89c.393.525.92.788 1.576.788 1.642 0 2.496-1.116 2.496-3.086 0-2.036-.92-3.219-2.496-3.219-.722 0-1.183.328-1.576.853l-.197-.722h-.592v8.276zm.789-3.743v-3.022c.393-.592.919-.92 1.575-.92 1.117 0 1.643.855 1.643 2.497 0 1.576-.592 2.363-1.576 2.363-.658 0-1.184-.262-1.642-.918zM5.647 77.71h1.97c1.117 0 1.97.13 2.627.656.92.722 1.51 1.903 1.51 3.546 0 2.758-1.445 4.203-4.334 4.203H5.647V77.71zm.92.787v6.765h.722c1.051 0 1.84-.066 2.43-.591.723-.525 1.117-1.51 1.117-2.759 0-1.378-.394-2.298-1.116-2.89-.657-.458-1.38-.525-2.3-.525h-.853zm11.558 6.305c-.526.92-1.314 1.38-2.43 1.38-1.576 0-2.43-1.051-2.43-3.153 0-1.97.92-3.087 2.365-3.087 1.445 0 2.364 1.05 2.364 3.022v.263H14.12v.197c0 1.314.657 2.036 1.642 2.036.722 0 1.38-.328 1.707-1.05l.656.392zm-1.05-2.299c0-1.181-.591-1.839-1.445-1.839-.92 0-1.445.657-1.51 1.84h2.955zm6.962 3.613h-.723v-.92c-.657.657-1.314.986-2.036.986-.985 0-1.576-.592-1.576-1.643V80.01h.854v4.203c0 .854.263 1.248.985 1.248.591 0 1.116-.263 1.707-.92V80.01h.789v6.108zm4.794-.067c-.329.133-.59.133-.92.133-.92 0-1.379-.395-1.379-1.183V80.73h-.92v-.722h.92v-1.97h.854v1.97h1.38v.722h-1.38v3.94c0 .592.132.79.854.79.197 0 .394-.067.591-.067v.656zm1.445-1.509c.525.656 1.05.984 1.772.984s1.182-.459 1.182-1.05c0-.788-.656-.854-1.838-1.248-1.052-.262-1.577-.853-1.577-1.642 0-.984.788-1.642 1.839-1.642.92 0 1.642.328 2.233.985l-.59.592c-.46-.592-.986-.92-1.577-.92-.592 0-.985.393-.985.92 0 .262.066.459.262.59.395.328.986.394 1.642.592.985.328 1.445.853 1.445 1.707 0 1.051-.788 1.774-2.167 1.774-.92 0-1.773-.395-2.298-1.117l.657-.525zm7.487 1.642c-1.577 0-2.496-1.051-2.496-3.153 0-1.97.986-3.087 2.496-3.087 1.05 0 1.84.592 2.167 1.577l-.854.328c-.196-.789-.722-1.182-1.38-1.182-.984 0-1.51.788-1.51 2.364 0 1.642.526 2.43 1.577 2.43.656 0 1.182-.394 1.576-1.182l.723.394c-.526 1.05-1.249 1.51-2.3 1.51zm3.94-8.472h.788v3.218c.723-.723 1.314-.986 2.102-.986 1.05 0 1.642.592 1.642 1.642v4.532h-.854v-4.204c0-.853-.263-1.247-1.05-1.247-.591 0-1.248.263-1.84.92v4.53h-.788V77.71zm11.165 7.092c-.526.92-1.314 1.38-2.43 1.38-1.576 0-2.495-1.051-2.495-3.153 0-1.97.984-3.087 2.43-3.087 1.444 0 2.364 1.05 2.364 3.022v.263h-3.875v.197c0 1.314.657 2.036 1.642 2.036.723 0 1.38-.328 1.708-1.05l.656.392zm-1.05-2.299c0-1.181-.592-1.839-1.446-1.839-.92 0-1.445.657-1.51 1.84h2.955zm6.764-4.793h2.298c2.168 0 3.218.59 3.218 2.1 0 .92-.46 1.511-1.379 1.84.986.395 1.642 1.117 1.642 2.168 0 1.509-1.117 2.298-3.218 2.298H58.58V77.71h.001zm.919.722v2.89h1.774c1.248 0 1.904-.527 1.904-1.51 0-.92-.722-1.38-2.167-1.38H59.5zm0 3.677v3.218h1.708c1.51 0 2.167-.459 2.167-1.576s-.722-1.642-2.167-1.642h-1.708zm7.356-4.268h.92v1.05h-.92v-1.05zm1.838 0h.92v1.05h-.92v-1.05zm-.458 2.101c1.575 0 2.56 1.117 2.56 3.087 0 2.036-.985 3.153-2.56 3.153-1.578 0-2.562-1.117-2.562-3.153 0-1.97.984-3.087 2.562-3.087zm0 5.582c1.05 0 1.642-.853 1.642-2.429 0-1.642-.592-2.43-1.642-2.43-1.05 0-1.642.788-1.642 2.364 0 1.642.591 2.495 1.642 2.495zm4.268-5.516h.855v1.378c.459-.984.984-1.445 1.773-1.445h.197v.854h-.066c-.854 0-1.511.657-1.904 1.905v3.415h-.855V80.01zm4.137 4.532c.46.656 1.05.984 1.708.984.79 0 1.248-.459 1.248-1.05 0-.788-.656-.854-1.84-1.248-1.05-.262-1.575-.853-1.575-1.642 0-.984.787-1.642 1.84-1.642.919 0 1.641.328 2.167.985l-.526.592c-.46-.592-.985-.92-1.577-.92-.656 0-1.05.393-1.05.92 0 .262.13.459.328.59.394.328.985.394 1.577.592 1.05.328 1.51.853 1.51 1.707 0 1.051-.854 1.774-2.168 1.774-.984 0-1.84-.395-2.299-1.117l.657-.525zm9.919.262c-.526.92-1.315 1.38-2.43 1.38-1.577 0-2.496-1.051-2.496-3.153 0-1.97.984-3.087 2.429-3.087 1.445 0 2.364 1.05 2.364 3.022v.263h-3.874v.197c0 1.314.656 2.036 1.642 2.036.723 0 1.379-.328 1.707-1.05l.657.392zm-1.052-2.299c0-1.181-.59-1.839-1.445-1.839-.92 0-1.445.657-1.51 1.84h2.955zm-67.58-23.116L5.647 66.348v7.487l18.85-10.77-6.568-3.678zm19.702 2.627l-5.583-3.218H18.914l12.15 6.897 6.567-3.679zm19.834-10.246L32.048 66.283H45.25l18.652-10.705-6.437-3.81zm19.703 2.692l-5.713-3.217h-13.07l12.15 7.027 6.633-3.81zm45.185-17.206L84.655 58.796H71.52l50.833-28.963v7.421z" fill="currentColor"/></svg>