<svg xmlns="http://www.w3.org/2000/svg" width="124" height="124" fill="none"><path d="M56.267 53.727c.056-.195.112-.405.909-.405 2.474 0 2.949 1.72 2.949 3.131 0 .853-.462 5.157-4.864 5.157-.657 0-.993-.083-.993-.544 0-.224.182-.84.308-1.3l1.69-6.038zm-2.557-.6c.712.055 1.076.125 1.076.6 0 .28-.112.713-.154.867l-1.719 6.178c-.237.867-.447.909-1.132 1.034v.224h3.536c4.11 0 6.36-2.586 6.36-5.409 0-1.467-.867-3.718-4.081-3.718H53.71v.223zm10.86 7.463c-.546.825-1.16 1.594-1.943 1.594-.657 0-.657-.615-.657-.867 0-.657 1.104-4.123 1.104-4.514 0-.294-.112-.364-.881-.364v-.224c.531-.028 1.691-.251 2.236-.35l.042.029-1.23 4.5c-.056.196-.224.755-.224.922 0 .098.098.21.224.21.168 0 .573-.28 1.146-1.09l.182.154zm-.28-6.22c-.35 0-.67-.238-.67-.727s.32-.754.656-.754c.461 0 .699.46.699.768 0 .28-.224.713-.685.713zm6.807 6.206c-.699.937-1.188 1.58-1.943 1.58-.643 0-.67-.42-.67-.825 0-.336 1.034-3.746 1.034-4.305 0-.252-.084-.447-.35-.447-.67 0-1.551 1.202-2.055 1.984-.642.965-.824 1.566-1.397 3.466h-1.048c.433-1.579 1.37-4.85 1.37-5.144 0-.21-.14-.363-.894-.363v-.224c.754-.14 1.509-.279 2.264-.433l.042.028-.895 2.921.028.028c.657-1.035 1.943-2.977 3.102-2.977.644 0 .965.335.965.922 0 .6-1.118 4.053-1.118 4.473 0 .21.195.238.224.238.28 0 .629-.447 1.146-1.105l.195.183zm1.789-2.069c.517-1.244 1.467-2.32 2.223-2.32.349 0 .488.266.488.56 0 .111-.07 1.789-2.948 2.376l.237-.616zm2.879 1.999c-.699.573-1.286 1.048-2.04 1.048-.588 0-1.314-.321-1.314-1.272 0-.28.07-.559.14-.852l.39-.056c2.265-.322 3.578-1.454 3.578-2.558 0-.615-.433-.95-1.146-.95-1.97 0-4.179 2.347-4.179 4.346 0 .88.447 1.97 1.915 1.97 1.398 0 2.67-1.285 2.824-1.51l-.168-.166zm.853 1.523l1.132-4.08c.14-.518.223-.993.223-1.119 0-.195-.07-.419-.503-.419-.154 0-.308.042-.461.07v-.238c.713-.097 1.537-.28 2.166-.377l.042.028-.684 2.781.027.028.112-.28c.462-.922 1.524-2.558 2.404-2.558.322 0 .671.21.671.685 0 .727-.503.727-.656.727-.601 0-.392-.503-.727-.503-.433 0-1.272 1.551-1.384 1.76-.532 1.007-.727 1.636-1.3 3.495h-1.062zm4.416-2.04c.098.615.322 1.9 1.454 1.9.782 0 1.006-.67 1.006-1.132 0-.922-1.663-2.264-1.663-3.34 0-.433.195-1.552 1.677-1.552.63 0 .908.238 1.328.238.238 0 .321-.14.39-.252h.197l-.28 1.944h-.224c-.07-.798-.406-1.608-1.314-1.608-.307 0-.754.125-.754.81 0 .881 1.704 2.125 1.704 3.313 0 1.523-1.3 1.873-2.082 1.873-.42 0-.978-.266-1.384-.266-.195 0-.251.14-.335.294h-.224l.28-2.222h.224zm15.948-4.5c-.028-.392-.154-2.265-2.153-2.265-2.795 0-4.22 3.382-4.22 5.437 0 1.831.768 2.991 2.431 2.991 1.58 0 2.558-.992 3.23-1.65l.237.197c-.518.614-1.762 2.082-3.802 2.082-1.622 0-3.662-.979-3.662-3.774 0-2.697 2.473-5.786 5.674-5.786 1.007 0 1.86.335 2.18.335.406 0 .49-.168.56-.308h.293l-.517 2.782-.251-.042zm2.571 4.947c-.713 1.076-1.258 1.747-2.125 1.747-.615 0-.67-.475-.67-.867 0-.294 2.026-7.59 2.026-7.883 0-.362-.587-.362-.95-.349v-.224a19.81 19.81 0 002.18-.377l.07.07-2.11 8.093c-.028.126-.14.503-.14.656 0 .084 0 .28.21.28.349 0 .643-.39 1.327-1.272l.182.126zm6.458.084c-.881 1.272-1.244 1.635-1.943 1.635-.629 0-.657-.517-.657-.727 0-.251.28-1.425.601-2.571h-.042c-.951 1.579-1.984 3.326-3.243 3.326-.503 0-.769-.21-.769-.825s1.063-4.137 1.063-4.514c0-.406-.266-.406-.839-.406v-.195a18.408 18.408 0 002.097-.377l.042.028-1.273 5.073c-.042.182 0 .475.294.475.601 0 1.482-1.314 1.957-2.04.685-1.035.993-1.916 1.538-3.411h1.034l-1.104 4.18c-.083.279-.266.894-.266 1.104 0 .07.014.224.168.224.266 0 .657-.49 1.147-1.105l.195.126zm5.073-2.782c0 1.175-1.327 4.124-3.243 4.124-.656 0-.656-.363-.656-.461 0-1.468 1.342-4.85 2.879-4.85.881 0 1.02.755 1.02 1.188zm-3.885-4.696c.81.015.908.084.908.406 0 .195-.125.545-.223.936l-1.901 7.003v.056c0 .307 1.076.74 1.817.74 2.139 0 4.473-2.417 4.473-4.626 0-1.02-.685-1.691-1.663-1.691-1.258 0-2.139 1.3-2.6 2.026l-.028-.013c.476-1.58 1.118-4.18 1.426-5.325l-.07-.07c-.727.14-1.439.237-2.138.322v.236h-.001zM51.786 72.697c.685-.126.895-.168 1.132-1.034l1.719-6.178c.083-.28.154-.615.154-.867 0-.489-.377-.53-.979-.6v-.225h3.453v.224c-.685.126-.909.154-1.147 1.035L54.4 71.243c-.083.28-.153.56-.153.895 0 .447.349.49.95.56v.223h-3.41v-.224z" fill="currentColor"/><path d="M61.919 71.468c-.7.936-1.188 1.58-1.944 1.58-.642 0-.67-.42-.67-.825 0-.335 1.034-3.746 1.034-4.305 0-.252-.084-.447-.35-.447-.67 0-1.551 1.202-2.054 1.984-.643.965-.825 1.565-1.398 3.466H55.49c.433-1.579 1.37-4.85 1.37-5.144 0-.21-.14-.363-.895-.363v-.224c.755-.14 1.51-.28 2.265-.433l.042.028-.894 2.921.027.028c.657-1.034 1.943-2.977 3.103-2.977.643 0 .965.336.965.923 0 .601-1.118 4.054-1.118 4.473 0 .21.195.238.224.238.28 0 .629-.448 1.145-1.104l.196.18zm3.732-4.082h-1.174l-1.23 4.654c-.014.042-.014.07-.014.112 0 .125.069.237.223.237.28 0 .77-.656 1.118-1.104l.182.098c-.713 1.077-1.258 1.692-1.985 1.692-.28 0-.67-.14-.67-.56 0-.21.265-1.062.321-1.285l1.006-3.844h-1.034c-.014-.084-.014-.154.028-.224.084-.126.475-.224.713-.35.461-.237 1.132-.866 1.523-1.355.056-.07.112-.196.237-.168.098-.028.127.098.098.21l-.39 1.44h1.117l-.07.447zm1.243 2.013c.517-1.245 1.468-2.32 2.223-2.32.35 0 .49.265.49.558 0 .112-.07 1.79-2.95 2.377l.237-.615zm2.88 1.998c-.699.574-1.286 1.048-2.04 1.048-.588 0-1.314-.321-1.314-1.271 0-.28.069-.56.14-.853l.39-.056c2.265-.322 3.578-1.454 3.578-2.558 0-.615-.433-.951-1.146-.951-1.97 0-4.18 2.348-4.18 4.347 0 .88.447 1.97 1.916 1.97 1.397 0 2.67-1.286 2.823-1.509l-.167-.167zm1.132 1.524l1.132-4.081c.14-.518.224-.993.224-1.118 0-.196-.07-.42-.503-.42-.154 0-.308.042-.461.07v-.238c.712-.098 1.537-.28 2.166-.377l.042.028-.684 2.782.027.027.112-.28c.462-.922 1.523-2.558 2.404-2.558.322 0 .671.21.671.685 0 .727-.503.727-.657.727-.6 0-.39-.503-.726-.503-.434 0-1.272 1.552-1.384 1.761-.531 1.006-.727 1.636-1.3 3.495h-1.063z" fill="currentColor"/><path d="M81.64 71.467c-.699.937-1.188 1.58-1.943 1.58-.643 0-.67-.42-.67-.825 0-.335 1.034-3.745 1.034-4.304 0-.252-.084-.448-.35-.448-.67 0-1.551 1.203-2.054 1.985-.643.964-.825 1.565-1.398 3.466H75.21c.433-1.58 1.37-4.85 1.37-5.144 0-.21-.14-.363-.895-.363v-.224c.754-.14 1.51-.28 2.264-.434l.042.029-.895 2.92.028.03c.656-1.035 1.942-2.978 3.103-2.978.643 0 .964.336.964.923 0 .601-1.118 4.054-1.118 4.473 0 .21.196.237.224.237.28 0 .63-.447 1.147-1.103l.195.18z" fill="currentColor"/><path d="M82.716 71.397c0-1.258 1.259-4.333 2.894-4.333.405 0 .797.266.797.937 0 1.37-1.37 4.389-2.852 4.389-.377 0-.839-.252-.839-.993zm5.074-.014c-.63.615-.909.965-1.118.965-.112 0-.196-.084-.196-.182 0-.433 1.286-5.2 1.328-5.367l-.098-.042-.852.098-.042.042-.14.615h-.027c-.042-.392-.503-.755-1.104-.755-1.86 0-3.997 2.614-3.997 4.668 0 .406.041 1.65 1.44 1.65.838 0 1.579-.42 2.738-2.125l.028.028c-.224.852-.293 1.16-.293 1.481 0 .237 0 .601.587.601.6 0 1.076-.503 1.915-1.538l-.169-.14zm4.151-3.998h-1.174l-1.23 4.655c-.014.041-.014.07-.014.112 0 .125.07.237.224.237.28 0 .769-.657 1.118-1.104l.181.098c-.712 1.076-1.257 1.691-1.984 1.691-.28 0-.671-.14-.671-.559 0-.21.265-1.062.322-1.286l1.006-3.844h-1.035c-.013-.083-.013-.153.029-.223.083-.127.474-.224.712-.35.462-.238 1.133-.866 1.524-1.356.056-.07.112-.195.238-.167.097-.028.125.098.097.21l-.39 1.44h1.117l-.07.447zm2.684 4.096c-.546.825-1.16 1.594-1.943 1.594-.657 0-.657-.615-.657-.867 0-.656 1.104-4.123 1.104-4.514 0-.294-.112-.364-.88-.364v-.224c.53-.027 1.69-.251 2.236-.349l.042.028-1.23 4.5c-.056.196-.224.755-.224.923 0 .098.098.21.224.21.168 0 .573-.28 1.145-1.09l.183.153zm-.28-6.22c-.35 0-.67-.237-.67-.727 0-.489.32-.754.656-.754.461 0 .699.461.699.769 0 .279-.224.712-.685.712zm4.85 1.79c.671 0 .979.614.979 1.341 0 1.496-1.104 4.389-2.697 4.389-.699 0-1.118-.503-1.118-1.3 0-1.65 1.27-4.43 2.837-4.43zm.099-.295c-2.041 0-4.11 2.251-4.11 4.305 0 1.16.63 2.012 2.11 2.012 2.14 0 4.054-2.529 4.054-4.248 0-.922-.433-2.069-2.055-2.069z" fill="currentColor"/><path d="M107.442 71.468c-.699.936-1.188 1.58-1.943 1.58-.643 0-.671-.42-.671-.825 0-.335 1.035-3.746 1.035-4.305 0-.252-.084-.447-.35-.447-.67 0-1.551 1.202-2.054 1.984-.644.965-.825 1.566-1.398 3.466h-1.048c.434-1.579 1.37-4.85 1.37-5.143 0-.21-.14-.364-.895-.364v-.224c.754-.14 1.51-.28 2.264-.433l.042.028-.895 2.921.028.029c.657-1.035 1.943-2.978 3.103-2.978.643 0 .964.336.964.923 0 .601-1.118 4.054-1.118 4.473 0 .21.196.238.224.238.28 0 .629-.447 1.147-1.104l.195.18zm1.356-.07c0-1.259 1.258-4.333 2.893-4.333.405 0 .797.266.797.936 0 1.37-1.37 4.39-2.852 4.39-.377 0-.838-.252-.838-.994zm5.073-.015c-.629.615-.909.965-1.118.965-.112 0-.195-.083-.195-.182 0-.433 1.286-5.2 1.327-5.367l-.097-.042-.853.098-.042.042-.14.616h-.027c-.042-.392-.504-.756-1.104-.756-1.86 0-3.998 2.614-3.998 4.669 0 .405.042 1.649 1.44 1.649.838 0 1.579-.42 2.739-2.125l.028.028c-.224.853-.294 1.16-.294 1.482 0 .237 0 .6.587.6.602 0 1.076-.503 1.915-1.537l-.168-.14zm3.173-.056c-.713 1.077-1.258 1.748-2.124 1.748-.615 0-.671-.475-.671-.867 0-.293 2.026-7.59 2.026-7.883 0-.363-.587-.363-.951-.35v-.223a19.677 19.677 0 002.181-.378l.07.07-2.111 8.093c-.028.126-.14.503-.14.657 0 .084 0 .28.21.28.349 0 .643-.391 1.328-1.272l.182.125zm1.96-7.637h.144c.133 0 .241.066.241.265 0 .185-.066.318-.238.318h-.147v-.583zm-.391-.015c.171.018.168.015.168.168v.835c0 .15.003.15-.168.168v.052h.559v-.052c-.174-.017-.168-.017-.168-.168v-.342h.164c.22.325.308.562.42.562h.22v-.031a1.514 1.514 0 01-.262-.294l-.2-.272a.381.381 0 00.276-.363c0-.217-.192-.315-.398-.315h-.612v.052h.001zm1.74.605a1.18 1.18 0 00-1.636-1.108 1.195 1.195 0 00-.645.65c-.06.145-.089.3-.088.458 0 .66.521 1.191 1.191 1.191.665 0 1.178-.531 1.178-1.191zm-.192 0c0 .555-.437 1.045-.986 1.045-.559 0-.999-.49-.999-1.045 0-.556.437-1.052.999-1.052.553 0 .986.493.986 1.052zM34.42 76.605c7.995.039 14.551-6.518 14.495-14.496.056-8.197-6.5-14.753-14.496-14.75H18.398c-8.092-.003-14.648 6.553-14.751 14.75.103 7.978 6.66 14.534 14.75 14.496H34.42z" fill="currentColor"/><path d="M4.665 62.109c.08-7.647 6.19-13.759 13.733-13.733 7.534-.026 13.645 6.086 13.732 13.733-.087 7.43-6.198 13.541-13.732 13.479-7.543.062-13.654-6.05-13.733-13.48z" fill="#EFF6FE"/><path d="M15.345 53.97c-3.16 1.427-5.531 4.476-5.595 8.139.064 3.524 2.322 6.629 5.595 7.883V53.971zm6.104 16.023c3.266-1.255 5.523-4.36 5.595-7.884-.072-3.741-2.33-6.846-5.595-8.138v16.022z" fill="currentColor"/></svg>