<svg xmlns="http://www.w3.org/2000/svg" width="64" height="64" fill="none"><path d="M35.846 25h-7.487c-.478.905-.795 1.59-.885 1.76h9.081a16.13 16.13 0 00-.71-1.76zm-11.282 4.359c-.72 0-1.346.092-2.32.339l-.255 1.449.162-.042.279-.07c.416-.111 1.043-.178 1.6-.178.905 0 1.254.159 1.254.584 0 .117-.024.206-.07.418a8.018 8.018 0 00-.79-.05c-2.157 0-3.41.916-3.41 2.48 0 1.04.72 1.758 1.765 1.758.881 0 1.555-.248 2.041-.778l-.046.667h1.624l.022-.175.024-.22.047-.327.069-.408.418-2.287c.117-.716.14-.957.14-1.275 0-1.23-.882-1.885-2.554-1.885zm-.973 5.323c-.44 0-.696-.258-.696-.656 0-.65.558-.979 1.648-.979.14 0 .232.004.442.025-.048.952-.605 1.61-1.394 1.61zm-5.129-6.657l-2.158 4.9-.14-4.9h-3.04l-1.51 7.914h1.764l1.16-6.047.325 6.047h1.765l2.668-6.085-1.16 6.085h1.949l1.532-7.914h-3.155zm35.439 7.321a.182.182 0 00-.046-.11.267.267 0 00-.116-.026h-.185v.445h.093v-.174h.069l.07.174h.115l-.069-.193c.047-.02.07-.067.07-.116zm-.139.05c-.023.01-.046.01-.046.01h-.07v-.116h.048c.023 0 .07 0 .07.01.023.009.023.027.023.044 0 .02-.002.042-.025.052zm4.214 5.609a.176.176 0 00-.047-.11.268.268 0 00-.117-.026h-.185v.444h.093v-.174h.07l.07.174h.116l-.07-.193c.046-.017.07-.065.07-.115zm-.14.05c-.024.009-.047.009-.047.009h-.07v-.114h.046c.024 0 .07 0 .07.009.024.009.024.028.024.044 0 .02 0 .04-.023.052z" fill="currentColor"/><path d="M62.352 11.262H1.648C.737 11.262 0 12 0 12.91v38.18c0 .91.737 1.648 1.648 1.648h60.704A1.646 1.646 0 0064 51.09V12.91c0-.91-.736-1.648-1.648-1.648zM58.254 41.38a.494.494 0 01-.196.198.538.538 0 01-.528 0 .531.531 0 01.002-.924.56.56 0 01.262-.067c.09 0 .175.024.26.068a.483.483 0 01.198.197.54.54 0 01.002.528zm1.187-9.379c.003 9.07-7.347 16.427-16.419 16.43a16.358 16.358 0 01-11.025-4.249 16.357 16.357 0 01-11.011 4.244C11.919 48.426 4.56 41.068 4.56 32c0-9.031 7.3-16.367 16.32-16.426h.105a16.36 16.36 0 0111.012 4.244 16.365 16.365 0 0111.016-4.247c9.072-.004 16.427 7.35 16.43 16.421-.003.002-.003.004-.003.008z" fill="currentColor"/><path d="M33.624 21.515h-3.12a23.1 23.1 0 00-1.172 1.759H34.9a16.616 16.616 0 00-1.276-1.759zm3.451 9.363c.396 0 .906.034 1.417.094l.279-1.488a15.257 15.257 0 00-1.742-.127c-2.18 0-2.949.99-2.947 2.175 0 .811.464 1.372 1.508 1.794.787.32.905.416.905.71 0 .399-.347.58-1.113.58a6.266 6.266 0 01-1.765-.254l-.278 1.485.093.017.348.063c.116.023.302.042.534.058.463.034.81.053 1.066.053 2.09 0 3.041-.678 3.041-2.146 0-.884-.394-1.4-1.392-1.791-.813-.325-.906-.4-.906-.7 0-.346.325-.523.952-.523zm10.169-1.39c-.094-.023-.164-.035-.164-.038a1.44 1.44 0 00-.21-.016c-.627 0-1.091.285-1.694 1.046l.186-.977h-1.764l-1.184 6.436h1.95c.697-3.935.997-4.627 1.925-4.627.07 0 .14.006.232.016l.233.048.699-1.818c-.162-.062-.186-.062-.209-.07zm-5.852 1.58h.998l.279-1.567h-.998l.28-1.477h-1.927l-.906 4.913-.093.509-.116.633c-.024.204-.047.397-.047.577 0 .913.534 1.414 1.532 1.414.441 0 .86-.063 1.393-.21l.255-1.427c-.137.042-.3.062-.51.062-.463 0-.674-.142-.674-.476 0-.058 0-.148.024-.266l.51-2.685zm12.324 3.865a.51.51 0 00-.511.5.51.51 0 00.51.505.51.51 0 00.512-.505.51.51 0 00-.511-.5zm0 .885a.395.395 0 01-.395-.384c0-.211.186-.381.395-.381.21 0 .371.17.371.38 0 .214-.16.385-.371.385zm-3.249-6.499c-2.32 0-3.83 1.547-3.83 3.825 0 1.633.881 2.968 3.089 2.968 1.994 0 3.48-.95 3.782-3.09.047-.374.047-.4.047-.799 0-1.634-1.068-2.904-3.088-2.904zm.952 3.647c-.162 1.003-1.067 1.578-1.485 1.578-.697.013-1.114-.575-1.114-1.448 0-1.034.603-2.207 1.602-2.207.788 0 1.066.638 1.066 1.31 0 .278-.023.532-.07.767zm-18.176.304c.164-.652.235-1.115.235-1.59 0-1.427-1.023-2.337-2.623-2.337-1.95 0-3.388 1.626-3.388 3.832 0 1.898 1.137 2.885 3.318 2.885.673 0 1.323-.085 1.973-.26l.324-1.61a5.141 5.141 0 01-2.02.408c-1.113 0-1.693-.38-1.693-1.125 0-.06 0-.104.024-.203h3.85zm-2.411-2.454c.58 0 .905.305.905.827v.33l-2.159-.001c.186-.748.628-1.156 1.254-1.156zm-2.71 8.121c.285.61.617 1.19.97 1.759h5.828a16.35 16.35 0 00.956-1.759h-7.754zm2.193 3.446c.52.638 1.07 1.246 1.68 1.795.013-.013.028-.023.041-.036h.003a16.43 16.43 0 001.668-1.76h-3.392z" fill="currentColor"/></svg>