<svg xmlns="http://www.w3.org/2000/svg" width="64" height="64" fill="none"><path d="M6.727 23.858c-.019.046-.043.091-.057.139-.178.598-.041 1.145.44 1.618.42.412.997.276 1.548.282v-2.954c-1.1-.138-1.572.092-1.93.915zm.374 9.384c.002.205.004.39.002.575-.01 1.205-.007 2.413-.348 3.59-.17.587-.449 1.151-.68 1.724h2.686v-5.89h-1.66zm8.453.238c-.162-.274-.402-.486-.805-.505-.412-.02-.658.193-.843.453-.434.61-.56 1.29-.629 2.012h2.691c.004-.685-.055-1.346-.414-1.96zm13.394 3.589c-.183-.885-.894-1.24-1.958-1.015-.078.017-.187.118-.187.18-.013.941-.009 1.884-.009 2.84 1.063.252 1.945-.157 2.148-1.016a2.36 2.36 0 00.006-.99z" fill="currentColor"/><path d="M62.352 11.262H1.648C.737 11.262 0 12 0 12.91v38.18c0 .91.737 1.649 1.648 1.649h60.704C63.264 52.739 64 52 64 51.09V12.91c0-.91-.736-1.648-1.648-1.648zM26.114 26.608c.054-.567.22-1.108.638-1.575.546-.605 1.545-.72 2.275-.24l-.278.35c-.032.004-.051.012-.068.007-.884-.24-1.415-.025-1.683.7a2.874 2.874 0 00-.124 1.617c.217 1.047 1.046 1.41 2.249 1.009.111.487.047.547-.52.68-.804.189-1.587-.092-2.036-.69-.431-.573-.512-1.206-.453-1.858zm-19.563-3.81c.37-.328.821-.498 1.365-.496.385.002.77 0 1.156 0 .42.002.42 0 .42.337v6.459h-.811V26.61c-.478-.092-.503-.083-.706.23-.44.682-.89 1.36-1.313 2.047-.111.178-.235.255-.475.234-.181-.016-.367-.004-.609-.004l1.727-2.6c-1.693-.456-2.027-2.595-.754-3.72zm4.494 18.9h-1.19V40.03H5.419v1.663H4.194v-2.52c.03-.007.059-.028.082-.023.454.075.632-.134.78-.449.449-.96.673-1.956.756-2.97.093-1.144.12-2.292.177-3.458h4.103v6.869h.953V41.7zm.455-12.585h-.722v-4.429h.7v1.795h1.34V24.69h.717v4.425h-.712V27.13H11.5v1.983zm2.001 10.854a2.415 2.415 0 01-1.205-1.316c-.728-1.792-.646-3.569.303-5.295.325-.588.806-1.084 1.596-1.298.76-.207 1.37-.058 1.876.452.573.578.85 1.267.988 1.984.11.573.116 1.164.17 1.77h-3.916c.012.73.001 1.419.265 2.087.343.87 1.127 1.201 2.327.956.37-.075.72-.214 1.108-.332.075.18.159.388.241.59-1.047.735-2.718.91-3.753.402zm4.623-10.027h-.632v-.901h-2.507v.905h-.668v-1.393c.36.047.429-.18.521-.394.377-.863.41-1.766.448-2.668.011-.26.001-.518.001-.806h2.315v3.841l.521.02v1.396zm.979-4.577c.122-.215.296-.427.504-.593.552-.443 1.246-.357 1.647.183.457.614.545 1.29.498 2.01h-2.193c-.016.482-.028.942.231 1.37.221.366.636.495 1.217.377.209-.042.408-.114.616-.174.235.251.226.36-.115.478a4.312 4.312 0 01-.956.232c-.673.072-1.253-.216-1.507-.78a4.211 4.211 0 01-.337-1.203 3.005 3.005 0 01.395-1.9zm4.524 14.727h-1.271v-3.54h-1.738c-.601 0-.601-.003-.601.5v3.04H18.75v-7.82h1.251v3.197h2.346v-3.202c.399 0 .762-.007 1.124.008.059.002.119.09.166.145.02.023.004.063.004.096v7.346c0 .07-.008.144-.014.23zm1.483-11.08c-.077-.01-.158-.106-.206-.178-.365-.54-.722-1.082-1.083-1.625a.7.7 0 00-.244-.234c-.045.172-.124.345-.131.517-.018.502-.007 1.004-.007 1.517h-.703v-4.323h.693v1.904c.109-.105.165-.152.21-.205.4-.475.813-.942 1.186-1.431.17-.222.36-.323.669-.281.076.01.156 0 .293 0-.073.096-.118.16-.17.224-.425.51-.843 1.023-1.28 1.525-.118.135-.111.234-.02.37.485.726.959 1.455 1.467 2.229-.255 0-.467.017-.674-.01zm5.39 9.549c-.413.942-1.293 1.402-2.448 1.486-.77.058-1.551.011-2.36.011V32.27h1.093v2.802c.543 0 1.055-.032 1.558.007 1.277.103 2.077.743 2.29 1.796.113.572.108 1.14-.133 1.684zm5.988-5.509h-3.526v7.04h-1.16v-7.828h4.689c0 .261 0 .51-.003.788zm4.259 7.04v-5.14l-2.377 5.147h-1.244v-7.832h1.268v4.826l.06.01c.221-.472.447-.943.666-1.415.498-1.079 1-2.154 1.494-3.234.07-.155.161-.213.365-.205.392.017.786.006 1.196.006v7.837h-1.428zm18.72-.15c-.271.223-.606.299-.968.299-1.672.002-3.34 0-5.009 0-1.68 0-3.359.002-5.037 0-.84-.002-1.448-.383-1.683-1.047a.912.912 0 01-.04-.288c-.002-1.953.003-3.906-.005-5.86-.003-.688.388-1.171 1.09-1.506 2.381-1.135 4.763-2.269 7.144-3.405.39-.186.786-.314 1.235-.153.39.141.557.414.56.742.006 2.068.027 4.136-.012 6.201-.012.638-.421 1.146-1.18 1.4-1.681.564-3.366 1.117-5.049 1.676-.42.14-.842.275-1.26.422a1.311 1.311 0 00-.37.198c-.077.066-.177.203-.145.26a.448.448 0 00.318.168c.26.001.53-.027.784-.083 2.268-.492 4.532-.996 6.798-1.496.729-.162 1.337-.8 1.34-1.423.006-1.189.01-2.377-.005-3.565-.002-.243.078-.344.383-.312.157.017.315 0 .474.002.52.007.875.262.951.686.022.118.024.245.024.365.002 1.905.002 3.808.001 5.714 0 .359.016.72-.339 1.005z" fill="currentColor"/><path d="M53.914 31.462c-.562.07-.93.346-1.1.784-.184.472.113.847.645.85.637 0 1.284-.599 1.204-1.117-.053-.334-.377-.564-.75-.517zm-37.968-6.235c-.05 1.123.043 2.25-.634 3.295h1.56v-3.295h-.926zm4.85.085c-.22-.32-.628-.33-.874-.023-.283.354-.366.755-.389 1.188h1.528c.009-.414-.02-.808-.265-1.165z" fill="currentColor"/></svg>