<svg xmlns="http://www.w3.org/2000/svg" width="64" height="64" fill="none"><path d="M62.352 11.262H1.648C.737 11.262 0 12 0 12.91v38.18c0 .91.737 1.648 1.648 1.648h60.704A1.646 1.646 0 0064 51.09V12.91c0-.91-.736-1.648-1.648-1.648zm-3.22 18.488l-.883.796-.796-.885.883-.797.796.886zm-4.546-.772L53.39 27.65l1.328-1.196 1.196 1.328-1.328 1.196zm1.355.146l1.197 1.327-1.328 1.195-1.196-1.327 1.327-1.195zm-2.435-.44l-1.77 1.593-1.592-1.77 1.77-1.593 1.592 1.77zm-.328 1.25l1.594 1.77-1.77 1.592-1.594-1.77 1.77-1.592zm1.26 3.06l1.593 1.77-1.77 1.595-1.594-1.77 1.77-1.595zm1.31.13l1.329-1.197 1.196 1.328-1.328 1.196-1.197-1.327zm2.255-6.006l-.885.797-.796-.885.885-.797.796.885zM9.28 34.953h-.917l-1.155-4.237h-.06l-1.12 4.237h-.919l-1.375-6.02h.952l.95 4.492h.06L6.8 28.934h.756l1.18 4.491h.06l.867-4.491h.994L9.28 34.953zm5.267-1.96H11.78c0 1.018.416 1.47 1.29 1.47.459 0 .883-.162 1.35-.442v.645c-.381.22-.891.391-1.502.391-1.427 0-2.013-.883-2.013-2.225 0-1.291.654-2.224 1.928-2.224 1.062 0 1.715.688 1.715 2.074v.312zm2.429 2.063c-.45 0-1.147-.145-1.657-.416v-5.926l.883-.212v2.42c.256-.136.688-.314 1.148-.314 1.052 0 1.621.731 1.621 2.09 0 1.587-.764 2.358-1.995 2.358zm8.774-.103h-.919v-4.365h-.076l-1.733 4.365h-.543l-1.732-4.263h-.076v4.263h-.764v-6.02h1.027l1.902 4.747h.043l1.818-4.746h1.053v6.019zm2.869.103c-1.163 0-1.937-.774-1.937-2.225 0-1.487.816-2.224 1.937-2.224 1.12 0 1.936.74 1.936 2.224 0 1.454-.773 2.225-1.936 2.225zm6.309-.103h-.883v-2.88c0-.67-.33-.788-.764-.788-.34 0-.773.153-1.036.306v3.362h-.883v-3.72c.382-.228 1.189-.627 2.166-.627 1.018 0 1.4.399 1.4 1.274v3.073zm4.433-1.96h-2.768c0 1.018.415 1.47 1.293 1.47.457 0 .882-.162 1.348-.442v.645c-.383.22-.89.391-1.504.391-1.426 0-2.01-.883-2.01-2.225 0-1.291.654-2.224 1.927-2.224 1.062 0 1.716.688 1.716 2.074l-.002.312zm2.674 2.004c-.425 1.17-.943 1.782-1.917 1.782v-.695c.578 0 .932-.458 1.137-1.087l-1.629-4.247h.934l1.087 3.125h.05l.968-3.125h.909l-1.539 4.247zm14.399 3.475a7.383 7.383 0 01-3.668.97c-4.099 0-7.442-3.342-7.442-7.441s3.343-7.442 7.442-7.442c1.167 0 2.275.271 3.261.754.155.074.31.155.462.244l-.684.613-1.029-1.064-1.737 1.55-1.03-1.126-3.237 2.916 2.075 2.288-.816.716 2.044 2.29-.812.716 2.922 3.252 1.731-1.596 1.498 1.711a8.21 8.21 0 01-.98.65zm1.678-1.341l-1.196-1.326 1.328-1.197 1.195 1.327-1.327 1.196zm1.267-3.957l-.797-.885.885-.797.797.885-.885.797z" fill="currentColor"/><path d="M28.619 31.202c-.56 0-1.045.483-1.045 1.63 0 1.163.442 1.63 1.045 1.63s1.044-.467 1.044-1.63c0-1.148-.468-1.63-1.044-1.63zm-11.499.068c-.338 0-.585.093-.925.28v2.778c.272.119.568.136.78.136.63 0 1.105-.391 1.105-1.767 0-1.079-.392-1.427-.96-1.427zm20.5-.094c-.518 0-.917.4-1.013 1.248h1.947c-.042-.89-.476-1.248-.934-1.248zm-24.813 0c-.518 0-.918.4-1.011 1.248h1.945c-.042-.89-.475-1.248-.934-1.248z" fill="currentColor"/></svg>