<svg xmlns="http://www.w3.org/2000/svg" width="64" height="42" fill="none"><rect width="64" height="42" rx="2" fill="currentColor"/><g clip-path="url(#clip0)" fill="#F0F6FE"><path d="M27.411 31.271c-.091-.256-.257-.43-.377-.658-.29-.39-.633-.728-.976-1.066-.12-.041-.171-.158-.285-.204-.075-.1-.194-.152-.291-.227a5.766 5.766 0 00-.623-.408c-.41-.268-.919-.437-1.421-.612a16.509 16.509 0 00-1.707-.315c-.588-.087-1.176-.169-1.622-.408-.256-.075-.445-.221-.667-.338-.206-.14-.429-.256-.6-.43-.211-.129-.342-.345-.508-.52-.057-.116-.154-.186-.2-.314-.057-.023-.074-.093-.108-.134-.04-.047-.04-.14-.109-.157a3.465 3.465 0 000 .769c.029.105.04.233.069.338.017.093.103.244.068.314-1.78-.093-3.082-.67-4.213-1.427-.56-.379-1.039-.84-1.484-1.335-.194-.273-.405-.536-.577-.839-.177-.297-.325-.635-.485-.95-.263-.681-.508-1.38-.6-2.237-.12-.798-.09-1.818.086-2.558.063-.408.194-.752.308-1.107.075-.163.155-.326.223-.495.097-.14.149-.332.269-.455.325-.623.81-1.09 1.307-1.538a5.466 5.466 0 011.884-.927c.708-.163 1.672-.192 2.437-.023 1.553.326 2.724 1.037 3.705 1.946.994.892 1.759 2.022 2.284 3.397.542 1.306.73 3.34.245 4.82-.2-.117-.4-.228-.599-.339-.24-.07-.474-.151-.754-.18-.336-.006-.668 0-.884.11.44-.046.793.076 1.067.18.16.065.251.106.377.182.245.145.462.28.645.477.52.466.89 1.084 1.068 1.9 0 .023.028.017.022-.023.023-.006.035-.024.046-.047.029-.035.063-.07.091-.11.058-.07.115-.14.155-.228.12-.146.216-.309.308-.478.211-.314.37-.676.554-1.02a11 11 0 00.73-2.423c.32-1.993-.063-3.881-.73-5.274-.686-1.404-1.645-2.529-2.883-3.373-1.25-.84-2.712-1.457-4.722-1.515-.011-.041-.028.005-.068 0-1.062-.035-1.918.116-2.769.338-.394.133-.805.25-1.153.43-.4.135-.72.356-1.085.52-.131.127-.33.192-.468.314-.177.087-.308.227-.485.315-.286.256-.588.483-.868.745-.274.257-.514.548-.776.816-.04.093-.109.158-.177.227a.756.756 0 01-.177.228c-.029.104-.12.145-.154.25-.075.059-.092.175-.177.227-.075.187-.206.32-.291.496-.103.169-.183.355-.286.518-.16.38-.331.746-.462 1.154a8.22 8.22 0 00-.331 1.27c-.086.426-.166.98-.155 1.428-.057.163-.011.466 0 .658 0 .035-.022.047-.022.07 0 .216.057.478.068.612.046.495.131.956.268 1.358.086.448.269.798.4 1.2.2.338.337.74.577 1.043.177.355.428.635.668.927.256.28.513.565.822.792.565.501 1.227.903 1.952 1.247 1.353.67 3.374 1.107 5.19.996.462-.064.93-.122 1.352-.227.389-.146.84-.233 1.308-.291 1.067-.07 1.992.029 2.814.274a6.675 6.675 0 012.175 1.02c.331.197.605.454.885.699.285.25.514.559.776.839.035.105.103.18.155.274.068.075.034.25.2.227.102-.105-.018-.257-.023-.385-.103-.11-.126-.256-.206-.35z"/><path d="M23.265 25.072c-.022 0-.028.017-.045.023-.04.087-.023.227 0 .315.12.25.16.576.422.681.126-.04.114-.227.109-.408-.057-.221-.137-.42-.269-.565-.09-.035-.154-.093-.216-.046zm-1.552.635c0-.012-.017-.024-.023 0-.217-.03-.291.093-.4.18-.188.507.114 1.003.645.997.212-.053.343-.193.377-.431-.028-.426-.205-.7-.6-.746zm12.799-1.614c.085.367.268.63.474.874.205.245.445.449.736.6.274.175.571.32.914.42.165.058.325.128.53.151.143.082.315.122.326.332-.006.25-.171.344-.383.39-.21-.046-.473-.04-.65-.122-.446-.052-.805-.198-1.182-.332A5.306 5.306 0 0133.45 25.2c-.103-.175-.245-.315-.354-.484-.108-.169-.183-.373-.297-.542-.879-.116-1.478-.524-2.004-.996-.485-.565-.873-1.241-1.033-2.139-.188-.862-.131-1.94.091-2.773.486-1.614 1.502-2.686 3.42-2.832.531.018.993.082 1.416.245.428.157.833.449 1.153.751.029.024.04.03.057.059.069.099.234.239.325.361.018.023.012.064.03.093.033.053.085.076.119.123.017.029.011.064.029.087.022.035.05.087.085.152.012.023.051.04.057.058.052.099.074.221.12.332.046.116.109.215.148.332.115.344.189.752.235 1.171.114 1.212-.12 2.296-.56 3.1-.205.42-.49.763-.828 1.055-.308.332-.73.53-1.147.74zm-1.416-7.587c-.257.018-.411.14-.622.21-.137.128-.308.227-.411.39-.172.1-.217.32-.354.45a5.696 5.696 0 00-.297.995 7.37 7.37 0 00-.12 1.207c-.006 1.037.211 2.068.617 2.68.24.297.53.542.885.723.205.017.365.087.588.093.125-.047.33 0 .41-.094.183.012.223-.11.383-.122a.919.919 0 01.297-.21c.108-.122.211-.244.325-.36.057-.088.092-.21.177-.275.514-1.002.571-2.837.234-4.003a3.589 3.589 0 00-.502-1.055 2.913 2.913 0 00-.765-.57c-.234-.053-.457-.117-.765-.088-.017 0-.034.006-.029.03h-.05zm6.228-.845c.463.018 1.005-.04 1.416.03.092.145.057.32.057.483.035 2.209 0 4.58 0 6.835 0 .18.006.367 0 .542-.005.151.035.315-.057.454-.205.053-.502.03-.765.03-.28 0-.553.04-.736-.059a219.203 219.203 0 010-8.221.127.127 0 01.085-.094zm3.54 0h1.387c.126.175.166.437.206.694.416 1.62.828 3.245 1.21 4.906.091.012.063-.1.091-.152.04-.04.017-.14.057-.18.018-.134.098-.204.092-.361.103-.204.137-.484.234-.694.12-.49.28-.944.417-1.416.13-.49.308-.932.41-1.445.195-.414.24-.979.474-1.352h.588c.212.408.292.95.474 1.387.12.49.286.932.411 1.416.291.938.594 1.865.857 2.832.12-.18.12-.484.205-.694.052-.238.097-.483.177-.693.228-.956.445-1.917.708-2.832.097-.478.194-.967.354-1.387a4.67 4.67 0 011.21 0c.029.356-.131.74-.234 1.055-.057.385-.194.682-.268 1.055-.211.681-.371 1.404-.588 2.08-.166.723-.388 1.387-.56 2.11-.114.331-.194.699-.297 1.054-.114.326-.154.728-.325.996h-.828c-.21-.378-.285-.891-.474-1.293-.41-1.329-.867-2.605-1.267-3.945-.137.146-.137.443-.234.63a7.497 7.497 0 01-.205.664c-.115.46-.286.85-.383 1.322-.166.414-.285.874-.411 1.329-.171.396-.234.903-.445 1.264-.217.07-.56.012-.828.03-.206-.24-.228-.67-.354-.997-.097-.338-.166-.71-.291-1.026-.16-.734-.4-1.38-.56-2.109-.21-.676-.394-1.38-.588-2.08-.108-.332-.188-.688-.297-1.026-.05-.36-.29-.687-.205-1.083.011-.03.046-.047.08-.059zm11.652 0c.462.018.999-.04 1.416.03.102.314.057.652.057.99v6.322c0 .344.04.676-.057.997-.32.035-.788.052-1.182.029-.114-.006-.251.029-.326-.059-.102-.314-.057-.646-.057-.996v-6.258c0-.379-.034-.746.057-.996a.192.192 0 01.092-.059z"/></g></svg>