<svg xmlns="http://www.w3.org/2000/svg" width="64" height="64" fill="none"><path d="M62.352 11.262H1.648C.737 11.262 0 12 0 12.91v38.18c0 .91.737 1.649 1.648 1.649h60.704C63.264 52.739 64 52 64 51.09V12.91c0-.91-.736-1.648-1.648-1.648zM41.678 33.855h7.189v1.729h-5.185v2.054h4.762v1.727h-4.762v2.533h5.415v1.728h-7.419v-9.771zm-4.013-10.331c.266-.325.422-.695.598-1.04a4.68 4.68 0 00.401-1.017c.09-.328.225-.626.26-.905.044-.28.084-.524.114-.724.066-.407.102-.64.102-.64s.015.235.038.645c.014.208.027.462.046.75.025.293-.039.616-.061.979a5.092 5.092 0 01-.188 1.161c-.105.408-.193.856-.402 1.275-.09.217-.185.437-.282.66-.103.221-.246.422-.37.637-.245.442-.565.834-.894 1.227-.319.408-.715.728-1.076 1.09-.4.3-.777.645-1.186.891-.4.27-.797.513-1.189.715-.385.223-.77.38-1.12.547-.542.23-1.023.41-1.42.539.18.408.336.833.456 1.287.123.468.234.946.261 1.492-.533-.131-.98-.332-1.414-.542a9.23 9.23 0 01-1.206-.718c-.75-.52-1.396-1.128-1.985-1.782a1.525 1.525 0 01-.2-1.758l.063-.11a11.56 11.56 0 011.823-2.469 9.413 9.413 0 011.206-1.056c.227-.162.46-.318.703-.469.25-.146.517-.283.808-.404.03.312.035.613.02.902-.02.285-.048.565-.082.841a9.352 9.352 0 01-.37 1.56c-.018.054-.04.104-.056.157.173-.026.355-.055.55-.09.308-.075.656-.13 1.002-.243a8.97 8.97 0 001.094-.365c.387-.127.732-.338 1.125-.509.341-.226.746-.416 1.067-.69.341-.26.686-.525.961-.847.145-.157.31-.3.438-.466l.365-.511zm-13.16 1.204c.036-.362.085-.755.221-1.155.117-.405.218-.849.439-1.263.099-.213.198-.431.301-.651.11-.217.26-.413.391-.625.256-.435.59-.817.93-1.2.33-.4.738-.706 1.109-1.057.406-.288.794-.62 1.21-.855.408-.259.811-.491 1.21-.68.391-.211.78-.356 1.136-.514a18.265 18.265 0 011.436-.496 8.766 8.766 0 01-.419-1.3c-.109-.47-.205-.953-.216-1.5.527.147.97.363 1.398.586.427.227.818.48 1.183.754.734.542 1.362 1.17 1.932 1.84.432.51.47 1.22.147 1.763l-.065.109a11.754 11.754 0 01-1.897 2.413 9.627 9.627 0 01-1.238 1.021 14.96 14.96 0 01-.72.447c-.254.14-.524.267-.819.38a6.447 6.447 0 01.007-.903c.03-.285.066-.564.11-.84a9.473 9.473 0 01.415-1.548l.061-.154c-.174.02-.356.044-.553.073-.31.066-.66.111-1.01.213a9.202 9.202 0 00-1.103.332c-.392.115-.743.315-1.141.475-.35.216-.756.394-1.088.658-.348.252-.7.506-.986.82-.146.152-.316.29-.449.453l-.376.496c-.275.318-.443.682-.629 1.022-.205.334-.327.68-.434 1.006-.1.325-.243.62-.286.897l-.136.72-.12.636-.02-.646-.023-.75c-.019-.293.056-.614.091-.976zm-5.893 21.017h-1.407v3.827h-.97v-3.827h-1.404v-.824h3.782l-.001.824zm-1.46-2.12l-2.762-9.772h2.175c1.253 5.351 1.377 6.031 1.554 7.146h.027c.177-1.02.325-2.014 1.361-7.146h2.164c1.143 5.365 1.24 5.882 1.457 7.146h.027c.163-.925.325-1.77 1.593-7.146h2.069l-2.751 9.773h-1.96c-1.007-4.791-1.186-5.744-1.511-7.623h-.026c-.302 1.88-.462 2.586-1.512 7.623h-1.905zm4.86 5.943c-.065-.218-.103-.458-.103-.938 0-.632-.04-.88-.759-.88h-1.003v1.82h-.954v-4.652h2.353c1.237 0 1.463.915 1.463 1.316 0 .513-.26.952-.72 1.109.382.166.59.31.59 1.178 0 .679 0 .849.207.925v.122h-1.075zm4.732.004l-.299-.96H24.73l-.323.96h-1.025l1.658-4.65h1.122l1.637 4.65h-1.055zm1.155-15.72h2.04v9.774H27.9v-9.773zm3.299 15.72L29.3 46.256h-.014v3.316h-.905v-4.65h1.022l1.848 3.236h.012v-3.237h.906l.001 4.65h-.973zm3.66.124c-1.698 0-1.988-.979-1.988-1.554h.93c.006.259.137.75.986.75.458 0 .971-.11.971-.6 0-.365-.349-.46-.843-.578l-.497-.116c-.752-.175-1.477-.344-1.477-1.368 0-.518.277-1.431 1.786-1.431 1.426 0 1.807.932 1.813 1.502h-.929c-.03-.206-.104-.699-.954-.699-.367 0-.81.135-.81.556 0 .364.299.441.494.487l1.13.278c.638.157 1.22.416 1.22 1.25 0 1.399-1.425 1.523-1.832 1.523zm1.099-9.895h-2.109v3.825h-2.003V33.85h4.94c2.6 0 3.078 1.92 3.078 2.764 0 1.077-.544 2.001-1.512 2.328.804.354 1.239.656 1.239 2.479 0 1.429 0 1.784.436 1.946v.258H37.77c-.136-.462-.218-.965-.218-1.974 0-1.334-.082-1.85-1.594-1.852zm4.784 5.944h-2.337v1.05h2.046v.822h-2.046v1.956h-.97v-4.65h3.307v.822zm4.184 3.824h-3.53v-4.651h3.42v.825h-2.468v.978h2.266v.822h-2.266v1.205h2.578v.821zm4.686 0h-1.073c-.064-.22-.102-.459-.102-.94 0-.631-.042-.88-.759-.88h-1.003v1.82h-.954v-4.651h2.35c1.238 0 1.465.915 1.465 1.316 0 .513-.262.952-.72 1.109.38.166.59.31.59 1.178 0 .679 0 .849.205.925h.001v.123z" fill="currentColor"/><path d="M36.393 35.542H33.85v2.613h2.392c1.063 0 1.581-.367 1.581-1.334 0-.516-.23-1.279-1.43-1.279zm11.488 10.184h-1.208v1.244h1.138c.506 0 .752-.176.752-.636 0-.247-.11-.608-.682-.608zm-22.285.246h-.01l-.597 1.839h1.187l-.58-1.84zm-4.24-.246h-1.21v1.244h1.138c.506 0 .752-.175.752-.636 0-.247-.11-.608-.68-.608z" fill="currentColor"/></svg>