<svg xmlns="http://www.w3.org/2000/svg" width="120" height="120" fill="none"><path fill-rule="evenodd" clip-rule="evenodd" d="M50.548 58.335l-.93 4.114h-9.6l.147-.538h1.714l2.302-10.58h-1.812l.195-.587h5.78l-.148.587h-1.86l-2.302 10.58h1.86c1.225 0 1.715.048 2.498-.637.588-.49 1.323-1.568 1.666-2.938h.49zm3.967 4.407c-1.861 0-3.38-1.567-3.38-3.624 0-2.742 2.694-4.947 4.8-4.947 1.91 0 3.183 1.764 3.183 3.478 0 1.029-.391 2.008-.979 2.938-1.078 1.568-2.498 2.155-3.624 2.155zm2.84-6.366c0-.93-.391-1.714-1.371-1.714-.735 0-1.47.44-1.862 1.077-.538.93-1.273 3.232-1.273 4.555 0 1.371.833 1.813 1.519 1.813.538 0 1.126-.246 1.469-.637.588-.687.98-1.96 1.224-3.037.147-.784.294-1.372.294-2.057zm6.367-1.96l-.391 1.96c.684-1.665 2.106-2.302 3.28-2.302.882 0 1.763.294 1.763 1.518 0 .343-.048.636-.097.93L67.2 60.638c-.147.734-.098.538-.147.686-.098.441.196.441.392.441.294 0 .539-.195.686-.393.49-.635.44-.489.833-1.224l.538.294c-.392.833-1.175 2.302-2.694 2.302-.735 0-1.37-.49-1.37-1.372 0-.244.048-.44.097-.734l.98-4.31c.049-.245.097-.49.147-.686.097-.538-.442-.734-.736-.734-.489 0-1.077.44-1.715 1.126-.978 1.078-1.42 2.4-1.664 3.281l-.735 3.184h-1.764l1.813-7.543h-1.616l.049-.538h3.428zm15.82 6.123c-.637 1.224-1.372 2.056-2.596 2.106-.98.048-1.126-.735-1.176-1.225v-.245l-.146.195c-.393.588-1.323 1.372-2.499 1.372-1.322 0-2.89-1.274-2.89-3.33 0-2.89 2.597-5.29 4.605-5.29 1.224 0 1.763.391 2.057.882l.979-4.163h-1.812l.196-.54h3.526l-2.302 9.306c-.195.931-.343 1.47-.343 1.813 0 .293.099.391.343.343.392-.05.539-.295.833-.637.097-.147.539-.783.637-.93l.588.343zm-4.36-5.878c-.538 0-1.273.246-1.86 1.225-1.028 1.812-1.323 3.085-1.323 4.408 0 1.176.588 1.763 1.322 1.763.343 0 .785-.098 1.225-.539.784-.686 1.078-1.468 1.567-3.036 1.028-3.086-.196-3.82-.93-3.82zm8.523 7.984c-1.862 0-3.38-1.518-3.38-3.576 0-2.742 2.694-4.947 4.8-4.947 1.958 0 3.231 1.714 3.231 3.477 0 .98-.391 2.009-1.028 2.89-1.077 1.568-2.497 2.156-3.623 2.156zm2.84-6.318c0-.98-.391-1.714-1.371-1.714-.735 0-1.469.44-1.862 1.077-.538.881-1.273 3.232-1.273 4.506 0 1.42.833 1.86 1.519 1.86.538 0 1.126-.293 1.468-.686.587-.686.98-1.91 1.225-3.036.195-.734.294-1.371.294-2.007zm6.465-1.91l-.441 1.959c.686-1.665 2.106-2.302 3.281-2.302.93 0 1.812.294 1.812 1.518 0 .343-.098.636-.147.93l-1.029 4.115c-.145.734-.145.538-.145.686-.099.441.145.441.341.441.295 0 .54-.195.736-.393.49-.635.44-.489.832-1.224l.49.294c-.343.833-1.126 2.302-2.693 2.302-.686 0-1.323-.49-1.323-1.372 0-.244.05-.44.098-.734l.93-4.31c.099-.245.147-.49.147-.686.099-.538-.391-.734-.734-.734-.442 0-1.029.44-1.666 1.126-.979 1.078-1.42 2.4-1.665 3.281l-.785 3.184h-1.713l1.812-7.543h-1.665l.049-.538h3.478zm-76.158-3.772h.392l.05-.44h.39l-.49.832c0 .098.148.05.246.05l.05-.05v.392c-.392.146-.833 0-.833 0v-.392c.049.05.245.098.294 0l-.49-.832h.391v.44zm-8.326 6.857c.098.147.147.294.196.44.147.344.294.638.49.98l-.636.54c.343.44.734.832 1.077 1.273 1.028-.735 2.056-1.518 3.183-2.106.49-.245 1.176-.05 1.714-.294-.44.343-.685.832-1.078 1.175.246.294.344.687.54 1.03-.49 0-1.029.048-1.47-.099.098.245.098.882.147 1.176-.44-.195-.93-.294-1.322-.637.049.637-.196 1.128-.392 1.666-.343-.294-.636-.588-.832-.931-.197.441-.637.784-.931 1.224l-.636.932c.146-.393.196-.882.196-1.323-1.225-.196-2.596-.783-3.086-2.058a2.22 2.22 0 01-.147-.783c.342.686 1.077 1.077 1.763 1.176-1.078-.637-1.91-1.764-2.009-3.037.343.686 1.078 1.372 1.764 1.666v-.05c-1.127-1.077-1.813-2.4-1.665-3.967.21.965.79 1.809 1.616 2.35-.93-1.224-1.616-2.742-1.077-4.358.049 1.664 1.175 3.134 2.595 4.015zm20.178.392c.882-.539 1.42-1.47 1.666-2.351.098 1.568-.588 2.89-1.714 3.967.734-.294 1.42-.93 1.763-1.616-.05.832-.44 1.567-1.029 2.203-.293.295-.636.588-.979.785.323-.053.636-.152.93-.295.364-.215.667-.518.882-.881-.049 1.028-.832 2.008-1.763 2.4a7.72 7.72 0 01-1.518.44c0 .441.05.93.196 1.323-.392-.637-.882-1.275-1.371-1.861a.997.997 0 01-.196-.295c-.196.343-.49.637-.832.931-.196-.538-.441-1.028-.392-1.666-.391.392-.881.442-1.322.637 0-.391 0-.784.147-1.127-.539.098-1.077.05-1.47.05.147-.343.294-.736.54-1.03-.442-.343-.686-.832-1.079-1.175.441.196 1.127.098 1.617.245.54.298 1.063.625 1.567.98l1.322.93.343.245h.05l1.077-1.274-.587-.49c.244-.44.44-.93.587-1.42 1.42-.93 2.596-2.35 2.645-4.065.537 1.618-.149 3.186-1.08 4.41z" fill="currentColor"/><path fill-rule="evenodd" clip-rule="evenodd" d="M8.429 57.11c-.392-.196-.735-.587-.98-.93.049-.93.294-1.763.686-2.596-.196 1.224 0 2.449.294 3.527zm19.835-.882c-.245.343-.588.686-.98.883.294-1.078.49-2.303.294-3.478.405.809.638 1.692.686 2.595zM9.31 55.886c.098-.294.196-.588.392-.882 0 .343-.049.735.147 1.029.539-.098 1.176-.196 1.764-.098-.294.098-.637.343-.784.636-.05-.049-.05-.146-.098-.195-.147 0-.294.05-.44.05l.44.44c-.05.245-.098.588 0 .832.05-.637.392-1.224.93-1.518.295-.147.638-.245.931-.05a.554.554 0 01.147.54c0-.099-.098-.196-.196-.245-.44-.147-.784.195-1.028.538-.05.05-.147.147-.147.245.195.147.44.098.685.049.196-.049.343-.098.54-.245-.344.49-.883.686-1.323.882l.146.245a1.274 1.274 0 01-.293.245l-.294-.391c-.343.244-.686.44-.98.686l.245.342c-.098.098-.195.196-.294.196-.832-1.077-1.469-2.645-.832-4.016l.196-.294c0 .343 0 .685.146.979zm16.798 3.085l-.195.246c-.098 0-.196-.099-.294-.147.05-.147.196-.245.245-.392-.293-.245-.636-.44-.979-.686l-.294.392h-.049c-.098-.099-.196-.147-.294-.196.05-.098.147-.196.196-.294-.196-.098-.392-.147-.587-.294-.294-.098-.588-.294-.735-.587.294.245.783.342 1.224.245 0-.098-.098-.147-.098-.245-.245-.343-.637-.637-1.077-.588-.098 0-.147.098-.196.196v.049c-.049-.099-.049-.343.05-.44.146-.196.391-.196.636-.148.539.098 1.077.588 1.224 1.127.049.147.049.343.098.538.098-.293.049-.686 0-.881.147-.147.294-.294.44-.392-.146-.049-.293-.049-.44-.097a.37.37 0 01-.098.195c-.147-.245-.44-.538-.784-.588.539-.147 1.224-.049 1.764.098.195-.294.146-.686.097-1.028.245.244.343.538.441.881.147-.343.195-.637.147-1.028.88 1.273.342 2.987-.442 4.064z" fill="currentColor"/><path fill-rule="evenodd" clip-rule="evenodd" d="M17.146 47.806h.49v-.392h.441v.392h.44v-.392h.442v1.518l-.294.245v1.078h.832c.05-.099.147-.196.294-.147h.833c-.05.245-.147.539-.392.686a.373.373 0 01-.244.098c.195.147.244.391.195.636-.05.098-.098.196-.195.245.195.294.244.686 0 .98.44.245 0 .587.049.93.147.098.294.196.343.392 0 .196-.05.391-.196.49-.05.049-.147.049-.196.049 0 .147.147.294.294.392.294.195.784.147 1.127 0 .147-.098.343-.294.391-.49.05-.098 0-.196-.049-.294a.561.561 0 00-.587-.196.763.763 0 00-.392.293c-.147-.538-.098-1.224.392-1.567.245-.098.587-.098.832.05.05 0 .098.098.196.146-.05-.784.05-1.616.784-2.057.44-.245 1.077-.196 1.518.098l.294.245a1.359 1.359 0 001.322-.735c.099-.098.147-.293.147-.44a1.726 1.726 0 01.637 1.861c-.05.049 0 .098.05.146.538.099.93-.244 1.322-.587.049.832-.246 1.665-1.029 2.057-.44.195-1.028.097-1.42-.196-.392-.294-.637-.686-.832-1.077-.147-.197-.441-.147-.735-.098-.391.049-.784.343-.98.686-.048.147-.098.245-.098.392.05 0 .147-.05.197-.099a.98.98 0 011.028.196c.245.245.294.636.196.93-.098.344-.441.686-.735.785-.05-.343-.245-.49-.44-.49-.49-.099-.687.391-1.03.636-.342.343-.93.588-.881 1.127 0 .244.146.49.343.636.097.05.196.098.293.098-.636.245-1.518.294-2.056-.196-.147.196.049.588.097.637.147.293.343.539.343.882-.294-.294-.636-.392-1.077-.294 0 0-.245 0-1.371.686-.294.195-.539.294-.539.294s-.097-.05-.147-.05a5.86 5.86 0 00-1.077-.587.701.701 0 01-.196-.49.53.53 0 01.392-.392v-.098l-.245-.392a7.678 7.678 0 01-.539-.146c-.637.293-1.518.391-2.204.146.245-.048.49-.195.588-.44.098-.245.098-.588-.098-.784-.343-.392-.784-.636-1.077-1.077-.196-.147-.49-.245-.734-.196a.556.556 0 00-.343.49c-.392-.147-.784-.636-.784-1.077 0-.343.147-.588.392-.784.342-.147.784-.147 1.028.05 0-.344-.195-.638-.44-.834-.343-.244-.882-.391-1.273-.195-.294.44-.539.881-.98 1.175-.392.245-.979.294-1.42.05-.686-.392-.98-1.176-.931-1.96.245.196.538.44.832.54.147.048.441.097.588-.05-.098-.147-.147-.44-.147-.538.05-.539.294-1.078.735-1.42 0 .49.44.979.881 1.126.196.049.392.098.588.098.391-.392.881-.588 1.42-.49.44.098.881.49 1.028.882.147.392.147.882.147 1.322.196-.245.49-.343.833-.245.343.05.538.441.587.735.05.294.05.636 0 .881-.147-.196-.342-.343-.637-.293a.445.445 0 00-.391.196c-.098.147-.05.391.049.538.342.44.98.49 1.47.392.146-.05.245-.098.39-.147a.446.446 0 00.05.538c.49.49 1.322.441 1.959.294a7.302 7.302 0 001.42-.587c-.343.44.099.93.196 1.37.147-.244.343-.489.441-.783.049.49.343.93.832 1.078.196.049.441.049.686 0-.196-.245-.294-.539-.196-.833.049-.391.441-.587.49-.93-.391.244-.979.342-1.42.147-.294-.098-.539-.392-.686-.686a3.936 3.936 0 01-2.89.882c.098-.245.246-.441.343-.686h-.391l-.343.637a.687.687 0 01-.294-.343c0-.147.049-.343.146-.44-.048-.05-.146-.05-.195-.05a.667.667 0 01-.441-.44c0-.245.147-.49.392-.49 0-.098-.049-.294 0-.392a.367.367 0 01.343-.245s0-.049.049-.049v-.343l-.588-.147-.588-1.518s.441-.294.637-.441c-.147-.098.05-.195.05-.343l.244-.294c-.048-.245 0-.49-.098-.686.246.098.441.294.686.294l.343-.05v-.293l-.245-.245v-1.52h.392v.393h-.003zm.686.734c-.343.147-.294.49-.294.832h.587c0-.195.05-.343 0-.538-.048-.098-.146-.294-.293-.294zm-1.567 1.127l.048.343c-.098.147-.245.245-.245.44l.245.343c0 .147-.098.294-.147.441l.295.588h.294l.294.343.293-.343h.245l.343-.588c-.098-.147-.196-.294-.196-.44l.294-.344c-.049-.195-.146-.294-.245-.44v-.343l-.294.146a1.514 1.514 0 00-.93 0l-.294-.146zm3.477.685a.682.682 0 01-.196.147c-.245.05-.637-.05-.881.05-.099.048-.147.146-.197.244 0 .098-.049.245.05.294.196.294.637.196.93.196l.098.098c0 .05-.049.098-.098.098h-1.371c-.098.196-.245.343-.245.587h-.392l-.392.49-.391-.49h-.44v-.146l-.344-.686c.055-.128.104-.259.147-.391l-.098-.099-.44.343.44 1.225.392.098v-.098h.245l-.049.832c0 .147-.146.05-.245.099-.147.097-.049.343-.098.44a.78.78 0 01.735-.097l.294-.834c.588.05 1.225-.097 1.665-.538.147.294.343.538.588.784v.147c0 .147-.147 0-.245.098-.098 0-.098.196-.098.294l.195.147c.147-.098.344-.098.49-.098l.147-.588-.245-.293c.098-.05.146-.147.196-.245a.73.73 0 00-.196-.686c.196-.098.245-.245.245-.44-.049-.49-.636-.295-.98-.344-.195 0-.195-.245 0-.245.344 0 .784.049 1.078-.098.147-.05.245-.195.245-.294h-.54v-.001zm-10.432.245l-.048.049a1.418 1.418 0 000 1.518c-.098.05-.147.098-.246.147-.391.147-.881.05-1.224-.195.098.391.343.832.734 1.077.343.147.735.147 1.029-.05.686-.391.784-1.077 1.175-1.616-.587 0-1.175-.391-1.42-.93zm17.044 0c-.196.587-.784.93-1.372.93.343.49.441 1.078.98 1.519.293.196.636.343 1.028.196.49-.147.832-.637.93-1.127a1.818 1.818 0 01-.538.245c-.343.049-.686 0-.93-.196.049-.049.049-.098.098-.147.195-.44.146-1.028-.196-1.42zm-7.592 1.959l-.343.245c0 .098.098.146.147.196 0 .049 0 .195-.049.195-.05.05-.195 0-.245.05-.098 0-.146.097-.146.195.146 0 .293 0 .391.147.099-.05.196-.147.343-.099 0-.147 0-.244.098-.391 0-.05.098-.098.147-.098a2.657 2.657 0 01-.343-.44zm-.489 1.127c-.098-.05-.294-.05-.392.048.246.147.294.49.588.54.098.048.196 0 .245-.05-.148-.147-.245-.392-.44-.538zm-.784 0c-.147-.05-.245 0-.343.097l.392.392c.147.098.343.147.49.05-.196-.197-.343-.442-.539-.54zm1.176.048c.147.196.244.392.44.588a.417.417 0 00.343 0c-.146-.196-.245-.392-.391-.539-.098-.097-.295-.097-.392-.049zm-1.862.05c-.147-.05-.294-.05-.391.048.196.147.343.343.539.49.098.05.294 0 .391-.05-.196-.195-.343-.39-.539-.489zm2.596.097c.147.147.245.392.441.49.098.05.196.05.245-.05.05-.048.05-.146.05-.244-.148-.245-.491-.294-.736-.196zm-3.281.05c-.05-.05-.147 0-.245 0-.05.049-.05.146-.05.244.05.098.099.196.196.196.196.05.441.05.588-.05-.146-.146-.293-.341-.49-.39zM14.012 55.2c.343.441.636.98.391 1.519a.671.671 0 01-.146.195c.539.05.98-.049 1.372-.294.244.099.538.147.832.147.294.588.588 1.127.783 1.763.05-.44 0-.93-.098-1.371-.049-.146-.098-.294-.147-.392.392-.049.784-.196 1.127-.343.245-.147.539-.294.735-.587-.637.391-1.372.587-2.204.636-.49 0-1.028 0-1.273-.49-.098-.195.049-.44.098-.587-.49.147-1.079.05-1.47-.196zm-1.567 3.233l-1.372.931-1.322.93h-.049l-.686-.832c.098-.098.246-.196.343-.294l.392.44c.245-.146.49-.342.735-.538-.049-.098-.196-.245-.245-.343l.49-.391.294.391c.245-.195.538-.342.783-.49l-.098-.195c.147-.099.294-.196.49-.246l.245.637zm11.558-.392l-.098.196.784.49c.098-.098.196-.245.294-.343l.49.343-.245.343.734.587c.147-.147.245-.294.392-.44.098.048.244.146.342.244v.05l-.735.782L24.2 59.07l-.931-.587.245-.686c.196.05.343.147.49.245zm-8.816 2.939l.588-.93.588.93h-1.176zm5.29 0H19.35c.16-.32.34-.631.538-.93.196.294.392.636.588.93zm-4.408 2.009c-.098.195-.147.488-.196.783.098.048.245 0 .343-.049h.05v.293c-.099-.048-.197-.048-.344-.048 0 .147.049.294 0 .49h-.293c0-.196 0-.343.049-.49-.147 0-.294 0-.392.048v-.293c.098.049.245.097.392.049 0-.295-.098-.539-.196-.783.098-.147.245-.344.293-.49.049.146.196.342.294.49z" fill="currentColor"/><path fill-rule="evenodd" clip-rule="evenodd" d="M20.525 58.727h.588c.196.294.44.587.686.783-.294.441-.441.98-.784 1.421h.539c.048.49.098.98.342 1.372h-3.232v2.35h2.988c-.147 2.154-1.813 4.26-3.821 5.045-2.008-.785-3.624-2.89-3.77-5.045h2.938v-2.35h-3.184c.245-.392.294-.882.294-1.372h.538v-.048c-.343-.393-.44-.883-.734-1.323 0 0-.05-.05 0-.05a4.96 4.96 0 00.636-.783h1.715c.44.195.832.391 1.223.686.588-.294 1.127-.636 1.714-.98.294-.097.686-.196.98 0 .1.098.247.195.344.294zm.197 1.028H14.99v.196h.588l-.686 1.127c.049.147.146.343.293.44a.948.948 0 00.882.147c.245-.097.49-.294.588-.587l-.637-1.127h1.47v.441h.293l-.391.49.44.44.441-.44-.391-.49h.294l.049-.441h1.47s-.442.784-.687 1.127c.05.097.147.245.195.343.246.293.637.343.98.245.245-.049.539-.343.588-.587l-.687-1.128h.637v-.196h.002zm-3.723 6.22h-2.301c.342 1.127 1.224 2.252 2.301 2.938v-2.937zm1.666 0v2.938c.686-.44 1.273-1.028 1.763-1.713a5.66 5.66 0 00.587-1.224h-2.35zm7.59 2.645c-.048.358-.048.72 0 1.077h-.244c.097-.246.049-.588.049-.881-.098.244-.147.49-.196.734h-.196c0-.244-.05-.441-.147-.637v.736l.049.049c-.098.048-.196.048-.245.048l.049-.097c0-.294 0-.637-.05-.931.099-.049.197-.049.344-.049 0 .147.097.343.097.49.05-.147.147-.343.147-.538h.343zm-15.622.244v.833l.049.097c-.098 0-.196-.048-.294-.048l.049-.097c0-.343.05-.686-.05-.98l.295.048-.05.147zm14.448 0c-.05.343.097.785-.196.98-.147.049-.294.097-.392 0l-.049-.098v-.735l-.049-.048a.519.519 0 01.294-.099l-.098.099.049.734c.098.147.195 0 .245-.048v-.736l-.049-.097c.098-.049.195-.049.294-.099l-.05.147zm-14.938-.048c.097.244.097.49-.05.686-.147.244-.44.195-.734.195.195-.246.098-.637.098-.98 0-.048-.05-.048-.05-.097.295 0 .589-.05.736.196zm-.441-.049l-.05.783c.098 0 .197 0 .246-.098.098-.146.098-.392.05-.587-.05-.098-.148-.098-.246-.098zm1.812.196v.244c-.098-.048-.147-.195-.294-.147-.195.147-.147.343-.098.539 0 .098.05.195.147.246.098 0 .147 0 .245-.05v.246c-.245 0-.44-.049-.588-.295-.098-.195-.098-.538.049-.686.098-.147.245-.195.392-.147.049 0 .098.05.147.05zm12.783.196v.048c-.098-.048-.147-.048-.245 0l-.05.049c.05.246 0 .588.099.833l-.294.147c.098-.295 0-.637.05-.93-.099 0-.197.145-.246.244-.05-.098 0-.195 0-.294.196-.097.391-.147.637-.293.049.049.049.146.049.196zm-12 .44c-.048-.097-.146-.196-.245-.196a2.66 2.66 0 000 .882l-.245-.097c.05-.295 0-.588.05-.932-.099 0-.147-.048-.246 0v-.195l.686.294v.244zm11.167 0c0-.049-.098-.049-.147-.049a.425.425 0 00-.195.343c0 .147 0 .343.146.392.098.05.196-.049.245-.147v.246c-.098.048-.245.147-.343.097a.403.403 0 01-.245-.392c-.049-.294.049-.538.343-.686.049-.048.147 0 .196-.048v.244zm-10.775-.049l-.049.099v.734c0 .049.098.097.147.147.05 0 .147-.05.147-.098-.05-.245.049-.539-.05-.783l.246.145c-.098.147-.049.343-.049.54 0 .489-.392.342-.49.245-.098-.099-.146-.147-.146-.295-.05-.293.049-.635-.05-.881l.294.147zm.98.442c0 .195.05.343.098.538a1.74 1.74 0 00.196-.441c.05 0 .196 0 .294.048l-.05.147.05.785v.097c-.05.048-.196 0-.245 0-.05-.049.049-.097.049-.097v-.785c-.098.246-.196.442-.245.637l-.147-.05c0-.244-.098-.488-.147-.734-.05.275-.05.557 0 .833-.099 0-.147-.049-.196-.049h-.05l.05-.05c.049-.293 0-.635 0-.93l-.05-.097.393.148zm8.962-.198c.05.295.147.54.246.785l.048.097c-.097 0-.195.098-.294.098.05-.098 0-.147 0-.245-.097 0-.195.05-.293.098 0 .098 0 .195.049.294-.099.049-.196.097-.294.097.147-.343.195-.685.245-1.027v-.098c.098-.049.196-.099.293-.099zm-.049.59l-.097-.392-.098.44.195-.049zm-.538-.197c.049.097.049.293-.05.392-.049.097-.195.097-.342.147 0 .145 0 .293.049.391-.099.049-.196 0-.294.049.098-.295.05-.636.05-.979l-.05-.098c.245.048.49-.147.637.098zm-.392 0v.392c.05 0 .147 0 .147-.049.05-.098.05-.195.05-.246-.001-.097-.148-.097-.197-.097z" fill="currentColor"/><path fill-rule="evenodd" clip-rule="evenodd" d="M13.767 60.882a2.016 2.016 0 01-.44 1.469c.049.098.146.195.195.245.196 0 .343.05.441-.049.147-.097.245 0 .294.098.098 0 .146 0 .245-.05 0 .05-.049.147-.098.147-.049.05-.049.05-.098.05-.098.097-.147.196-.294.146-.049-.097-.147-.049-.245-.049.147.147.294.295.49.343h.294c.098.049.049.196.147.245h.146c-.048.147-.245.098-.343.197-.245.048-.342-.197-.49-.246l-.245-.196c0 .245.099.442.246.637.098.049.195.049.245.097.098.049 0 .196.146.196h.147c-.098.147-.294.098-.391.195-.098.05-.196 0-.294-.048-.05-.097-.05-.196-.05-.295-.244-.244-.342-.587-.44-.88-.05.049-.098.097-.05.146 0 .05.098.147 0 .246-.048.048 0 .146 0 .195-.048-.048-.097-.098-.195-.147-.049 0-.195-.098-.049-.343 0-.147.098-.294.147-.44 0-.05-.098-.147-.147-.197-.588.54-1.322.785-2.008 1.078-.147.098-.343.294-.392.49 0 .098.05.146.147.245.588.147 1.078-.393 1.665-.05.392.246.196.883.735 1.029-.245.098-.539.246-.636.538-.05.295-.05.736.146.98.44.49 1.372 0 1.568.783 0 .147 0 .295-.147.393a.512.512 0 01-.245.44l-.147.049c.05-.097.098-.196.05-.293a.38.38 0 00-.196-.196c0 .097-.05.245-.098.343-.098.146-.245.146-.392.196.098-.147.098-.246.05-.393 0-.049-.05-.146-.099-.146-.098.196-.294.392-.538.44.049-.097.098-.195.049-.343 0-.195-.294-.147-.343-.343-.196-.294-.49-.49-.833-.44.196-.294.49-.588.343-.98a.662.662 0 00-.44-.44h-.295c-.097-.294-.293-.637-.587-.686-.05 0-.05-.048-.098 0 .294.392.343 1.077.098 1.568-.196.587-.882.734-1.225 1.224 1.616-.098 2.89.587 4.163 1.225.245.097.54.195.833.244.049-.147 0-.294.146-.343.49-.147 1.077 0 1.47.343.196.147.098.442.147.637.195.097.44.097.686.196.93.097 2.008.097 2.89-.099.048-.048.146-.048.195-.097 0-.195-.049-.393.05-.538.44-.393 1.027-.588 1.567-.442.146.099.097.196.097.343.882-.098 1.567-.637 2.351-.93.832-.343 1.714-.588 2.694-.538-.392-.49-1.127-.686-1.322-1.372-.147-.441-.098-1.028.195-1.42a.537.537 0 00-.49.293c-.097.147-.146.295-.195.393-.245 0-.539.049-.686.294-.147.195-.147.538 0 .784l.245.343c-.343-.05-.637.195-.832.489-.098.196-.392.147-.344.392 0 .098 0 .147.098.196a.444.444 0 01-.391-.195c-.099-.05-.099-.196-.196-.196-.147.097-.098.293-.05.44v.049c-.097.05-.196 0-.293-.049a.792.792 0 01-.147-.44c-.098 0-.147.049-.197.146-.049.05-.049.147-.049.246l.05.097c-.147-.049-.343-.196-.392-.343v-.146a.473.473 0 01-.098-.441c.245-.882 1.616-.099 1.715-1.176.048-.343 0-.686-.343-.93a2.563 2.563 0 00-.343-.147c.538-.146.343-.832.881-1.077.539-.245 1.029.294 1.568.048.146-.048.146-.145.146-.293-.342-.49-.93-.538-1.42-.833-.343-.195-.686-.343-.98-.637-.097.05-.146.147-.146.197 0 .146.098.293.147.489.098.098.049.246-.05.246-.049.097-.146.146-.245.195.05-.049.05-.098.05-.147-.099-.048-.099-.147-.05-.245.05-.05 0-.098 0-.147v-.048a3.255 3.255 0 01-.44.93c0 .097 0 .195-.098.245-.098.049-.196.048-.294.048-.098-.097-.294-.048-.392-.195.098 0 .196 0 .246-.049 0-.098.097-.147.146-.195.05-.049.098 0 .147-.049a1.66 1.66 0 00.294-.588h-.05c-.146.147-.342.195-.538.343-.098.05-.196.05-.294-.049-.049.049-.196 0-.245-.098.05 0 .147.05.196-.049 0-.048.049-.147.098-.195.098-.049.195 0 .245.048.049 0 .146 0 .195-.097.098-.048.245-.195.343-.294-.147-.097-.294.147-.44 0l-.05-.097a.272.272 0 01-.245-.147v-.05c.049 0 .147.05.245.05.05-.099.098-.099.195-.099.05 0 .147 0 .197.049.146 0 .293.098.391-.048l.196-.196c-.343-.392-.539-.93-.44-1.469.293 0 .539 0 .832-.05-.049.393-.049.834-.098 1.225 0 0 .637-.146 1.42-.489.05.587.344 1.077.54 1.568.293-.295.636-.49.93-.833.588.636 1.224 1.322 1.47 2.155.098.49.098 1.077.636 1.321a.61.61 0 00.294.05c.098 0 .147-.098.147-.147.049-.44-.245-.734-.392-1.126-.195-.343-.244-.931 0-1.224.343-.442 1.029-.099 1.372-.49l.147-.295c.049.196-.05.392-.05.588.098-.05.245-.098.344-.146l.293-.295c-.245.538-.147 1.322-.881 1.469-.196 0-.392 0-.588-.049-.098 0-.146.049-.195.098v.146c.195.588.783 1.176.391 1.813-.196.245-.49.293-.734.245a1.853 1.853 0 01-.637-.44l-.049.145c-.049.736.05 1.618.735 2.01.048 0 .146.048.195.048l-.098.098v.049c.344.048.735.048 1.078 0l.049 2.154c-.539.099-1.127 0-1.616-.097-.393.245-.54.686-.931.832-.099.05-.099.147-.05.246 0 .048.05.097.098.147-.195 0-.391-.147-.44-.295-.05-.048-.05-.098-.05-.195-.146.048-.195.195-.195.343v.097c-.196-.049-.343-.293-.343-.489-.098 0-.196.146-.196.245l-.05.098c-.146-.197-.195-.686-.049-.98l.098-.097c-.294 0-.538.097-.784.146-1.322.343-2.399 1.518-3.868 1.176v-.539c-.147-.048-.245.049-.343.098v.832c-.49.442-1.175.442-1.763.539h-1.473c-.623-.044-1.213-.164-1.71-.44l-.099-.049v-.882c-.097-.098-.196-.098-.343-.146v.587l-.049.048c-.588.099-1.175-.048-1.714-.244l-1.567-.785c-.392-.145-.833-.293-1.323-.341.246.244.246.734.05 1.027v.05c-.05-.147-.098-.295-.245-.393-.05.147-.05.294-.147.393-.05.048-.098.097-.195.145 0-.145 0-.343-.147-.44-.049.196-.246.44-.49.49h-.049c.098-.098.147-.246.098-.343-.392-.195-.588-.686-.98-.882-.49.098-1.028.196-1.567.098v-2.155c.343.048.735.048 1.078-.049l-.099-.098c.393-.049.686-.44.833-.783.147-.441.147-.931.05-1.42l-.294.293c-.246.147-.637.195-.931.05a.641.641 0 01-.245-.637c.049-.49.343-.882.539-1.371 0-.098-.05-.147-.098-.196-.44.049-.882.098-1.176-.245-.294-.343-.245-.833-.392-1.176.147.245.392.343.588.442 0-.197-.098-.393-.05-.588.099.195.295.391.49.44.392.098.833 0 1.079.392.44.784-.344 1.42-.441 2.155 0 .098 0 .147.048.245.099.05.196.098.295.05.832-.246.538-1.225.881-1.813.343-.587.833-1.175 1.323-1.714.293.294.587.539.93.833.196-.49.49-.98.539-1.567.44.195.93.343 1.371.489 0-.392 0-.832-.048-1.225.244.047.538-.002.832.047zm-4.701 7.542c-.147.294-.098.685-.05 1.028.05.196.196.441.392.49.93 0 1.812.195 2.547.538.881.392 1.665 1.029 2.743.931v-1.567c-.49.048-.98-.05-1.42-.246-1.323-.685-2.596-1.37-4.212-1.174zm14.986.392l-1.567.735c-.441.195-.931.343-1.47.294v1.568c.441.048.833-.05 1.224-.197l1.519-.735c.636-.244 1.273-.44 1.958-.488.196-.05.49.048.686-.099a.541.541 0 00.294-.49c.05-.294.098-.686-.048-.978-.885-.1-1.78.035-2.596.39zm-16.113-.245c-.343.05-.637.098-.98.098v1.568c.245 0 .539 0 .832-.099.245-.391.343-.93.245-1.42l-.097-.147zm19.835 0c-.245.49-.147 1.176.147 1.617.294.049.587.049.882.049v-1.568c-.392 0-.686-.048-1.03-.098zm-12.146 1.813v1.567c.098.097.294.147.441.196.882.195 1.91.244 2.84.097.393-.049.833-.097 1.176-.343v-1.518c-.294.147-.636.196-.979.245-1.127.147-2.45.147-3.478-.244z" fill="currentColor"/><path fill-rule="evenodd" clip-rule="evenodd" d="M16.314 70.872c0 .197.049.343.098.49.049-.147.097-.293.097-.44.099 0 .246 0 .343.048l-.049.099c.05.343 0 .635.05.93h-.245c.049-.245.049-.587.049-.833-.098.195-.196.391-.196.637 0 0-.097 0-.147-.049 0-.246-.097-.441-.146-.686a2.391 2.391 0 000 .832l-.196-.097c.098-.246.05-.539.05-.833-.05-.049-.05-.147-.05-.196l.342.098zm3.428-.049c-.098.246-.049.589-.049.932v.048a.376.376 0 01-.245.097c.048-.293.048-.538.048-.831-.048.244-.146.44-.195.686-.05.048-.098.048-.147.048 0-.246-.098-.441-.147-.637 0 .246-.05.589.05.833-.1 0-.197 0-.295.049.098-.293.05-.636.098-.979l-.098-.099c.147 0 .246 0 .343-.048.05.048.05.147.05.195l.097.295c.05-.197.099-.343.099-.54.146 0 .244-.049.39-.049zm-2.106.392c-.098-.097-.195-.097-.294-.049v.246c.05.049.147.049.245 0v.196c-.098-.05-.147-.05-.245-.05v.343c.05.05.196.05.294 0h.05v.197c-.197 0-.442-.05-.638-.05a.701.701 0 00.098-.343c-.049-.245.05-.49-.098-.735l.588.049v.196zm.98-.245c-.099.295-.05.637-.099.93 0 .05-.05.147-.147.197-.392.097-.49-.197-.49-.197 0-.293.05-.635-.049-.881h.294c-.097.246-.049.538-.049.833.05.048.098.048.147.098.05 0 .147-.05.196-.098 0-.295 0-.539-.05-.783v-.05c.05-.049.149 0 .246-.049zm23.116-2.301c0 .147 0 .294.049.391.147.295.49.392.832.392.246 0 .686-.097.686-.489 0-.294-.245-.393-1.175-.637-.882-.244-1.86-.49-1.86-1.567 0-1.273 1.076-1.812 2.203-1.812 1.175 0 2.253.44 2.302 1.763h-1.616c.049-.195-.05-.343-.197-.441a.953.953 0 00-.49-.147c-.245 0-.636.098-.636.393.049.391.833.49 1.616.686.784.196 1.519.587 1.519 1.567 0 1.42-1.273 1.909-2.498 1.909-.636 0-2.4-.245-2.4-2.008h1.665zm4.947-2.205H45.11v-1.42h4.75v1.42h-1.517v4.066h-1.665v-4.066zm5.044 1.323c0-1.224.636-1.518 1.077-1.518.44 0 1.078.294 1.078 1.518s-.637 1.518-1.078 1.518c-.44 0-1.077-.293-1.077-1.518zm-1.714 0c0 1.665 1.127 2.89 2.792 2.89 1.665 0 2.743-1.225 2.743-2.89 0-1.666-1.078-2.84-2.743-2.84-1.666 0-2.792 1.174-2.792 2.84zm9.746-.686c-.049-.195-.196-.833-.881-.833-.784 0-1.078.784-1.078 1.519 0 .733.294 1.518 1.078 1.518.538 0 .783-.393.881-.931h1.666c0 1.127-.932 2.301-2.499 2.301-1.811 0-2.791-1.273-2.791-2.89 0-1.714 1.077-2.84 2.791-2.84 1.47 0 2.303.784 2.449 2.155h-1.616v.001zm2.352-2.058h1.713v1.911l1.518-1.91h2.058l-1.96 2.155 2.303 3.331h-2.106l-1.372-2.156-.441.539v1.617h-1.713v-5.487zm7.884 0h4.506v1.421h-2.84v.686h2.595v1.274h-2.596v.685h2.939v1.421h-4.604v-5.487zm6.857 2.597l-1.764-2.597h1.96l.832 1.52.784-1.52h1.91l-1.763 2.597 1.959 2.89h-2.057l-.93-1.617-.98 1.617h-1.91l1.959-2.89zm7.541-.539c-.048-.195-.195-.833-.881-.833-.832 0-1.077.784-1.077 1.519 0 .733.246 1.518 1.077 1.518.54 0 .784-.393.882-.931h1.617c0 1.127-.882 2.301-2.499 2.301-1.763 0-2.742-1.273-2.742-2.89 0-1.714 1.077-2.84 2.742-2.84 1.518 0 2.351.784 2.499 2.155h-1.618v.001zm2.4-2.058h1.666v1.911h1.567v-1.91h1.714v5.486h-1.714v-2.156h-1.567v2.156H86.79v-5.487zm7.642 3.527l.538-1.664.489 1.664H94.43zm-2.304 1.96h1.666l.245-.784H95.8l.246.784h1.714l-1.96-5.486h-1.664l-2.01 5.486zm6.122-5.487h1.715l1.567 2.94h.049v-2.94h1.568v5.487h-1.617l-1.664-2.989h-.05v2.99h-1.568v-5.488zm9.796 4.949c-.343.44-.93.684-1.567.684-1.617 0-2.596-1.273-2.596-2.84 0-2.057 1.469-2.889 2.694-2.889 1.42 0 2.301.735 2.546 2.008h-1.616c-.098-.392-.392-.686-.833-.686-1.126 0-1.077 1.224-1.077 1.616 0 .49.196 1.421 1.225 1.421.391 0 .784-.197.881-.637h-.783v-1.176h2.253v3.038h-1.078l-.049-.54zm2.057-4.949h4.555v1.421h-2.84v.686h2.546v1.274h-2.546v.685h2.889v1.421h-4.604v-5.487z" fill="currentColor"/></svg>