<svg xmlns="http://www.w3.org/2000/svg" width="111" height="26" fill="none"><g clip-path="url(#clip0)"><path d="M0 13.767L2.414.362h5.19c3.81 0 5.965 2.425 5.172 6.837-.91 5.047-3.89 6.568-7.684 6.568H0z" fill="currentColor"/><path d="M4.44 10.64h.82c1.808 0 2.987-1.078 3.444-3.612.503-2.793-.168-3.538-2.237-3.538h-.741L4.44 10.64z" fill="#EFF6FE"/><path d="M25.968 6.992c-.822 4.56-3.993 7.13-7.492 7.13-3.711 0-5.723-2.606-4.9-7.167C14.33 2.747 17.338.01 21.017.01c4.22 0 5.588 3.444 4.95 6.982z" fill="currentColor"/><path d="M17.444 6.992c-.308 1.713-.233 3.854 1.622 3.854 1.676 0 2.628-1.638 3.027-3.854.328-1.825.02-3.76-1.698-3.704-1.758-.001-2.646 2.01-2.95 3.704z" fill="#EFF6FE"/><path d="M37.78 7.769h.033L40.736.365h3.491L38.52 13.767h-3.81l-.369-7.78h-.032l-3.152 7.78h-3.66L26.716.366h3.543l.446 7.404h.034L33.743.365h3.507l.53 7.404z" fill="currentColor"/><path d="M92.66 12.024c.821-.385 1.293-1.12 1.546-2.519.88-4.877-6.146-3.629-5.784-5.64.087-.484.516-.762 1.369-.762.378 0 .71.074.958.241.25.17.412.449.395.914h3.678c.142-2.35-1.01-4.248-4.295-4.248-2.955 0-5.687 1.07-6.2 3.92-.92 5.12 5.814 3.844 5.814 5.906 0 1.035-1.8.793-1.8.793-2.23 0-2.033-1.824-2.033-1.824h-3.713c-.067 1.389.146 2.26.573 2.804-.49-.012-.978-.022-1.467-.032l.16-1.353H77.34l.38-2.31h4.472l.41-2.766h-4.32l.345-2.125h4.65l.463-2.66h-8.424l-2.01 11.166-1.724.014L73.745.363h-3.256l-1.322 6.645L66.416.364h-3.63l-2.122 11.78c-.968.102-1.927.22-2.88.345 1.46-1.211 2.562-3.073 2.998-5.497.64-3.538-.73-6.982-4.95-6.982-3.68 0-6.685 2.737-7.443 6.944-.613 3.407.354 5.722 2.429 6.675-1.856.361-3.666.755-5.426 1.177.963-1.58 1.348-4.045 1.739-6.214l1.482-8.23H44.94l-2.049 11.17s-.322 1.993-1.487 1.993h-1.775l-1.098 3.118c-12.227 2.89-23.436 9.345-23.436 9.345h6.388S57.27 5.353 110.599 15.283l.405-.465c-.003.001-4.255-1.872-18.343-2.794z" fill="currentColor"/><path d="M52.26 6.992c.305-1.693 1.192-3.704 2.95-3.704 1.718-.056 2.026 1.88 1.699 3.704-.4 2.216-1.351 3.854-3.027 3.854-1.856 0-1.93-2.141-1.622-3.854zm12.761-.753l2.563 5.395a98.52 98.52 0 00-3.457.198l.894-5.593z" fill="#EFF6FE"/></g></svg>