<svg xmlns="http://www.w3.org/2000/svg" width="114" height="34" fill="none"><g clip-path="url(#clip0)"><path d="M84.376 22.241c-3.934 0-6.422-2.336-6.422-5.962 0-3.867 2.248-6.203 5.86-6.203h.321c.642 0 1.285 0 1.927.08V5.485h2.57v16.274a18.65 18.65 0 01-4.256.483zm-.08-10.15c-2.489 0-3.693 1.369-3.693 4.108 0 2.497 1.445 4.028 3.853 4.028.482 0 .964 0 1.686-.08V12.25c-.642-.08-1.204-.16-1.846-.16zm-35.164 9.828L42.148 9.673V21.92h-2.409V6.451h3.372l6.985 12.084V6.451h2.489v15.468h-3.453zm22.158.242c-1.284 0-2.569-.162-3.853-.403h-.16v-2.175l.24.08a12.76 12.76 0 003.452.484c.883 0 2.97-.162 2.97-1.45 0-1.128-1.445-1.37-2.568-1.612h-.08l-.643-.242c-1.686-.402-3.532-1.127-3.532-3.383 0-2.256 1.766-3.465 4.817-3.465 1.123 0 2.247.081 3.371.323l.402.08v2.095h-.241c-1.044-.242-2.168-.322-3.211-.403-1.205 0-2.65.242-2.65 1.29 0 .885 1.204 1.127 2.57 1.45 1.926.402 4.254.966 4.254 3.544.08 2.417-1.846 3.787-5.138 3.787zm24.647 0c-2.65 0-5.138-.484-5.138-3.867 0-3.706 3.853-3.706 6.101-3.706.24 0 1.285.08 1.606.08 0-2.095 0-2.578-3.051-2.578-1.204.08-2.489.161-3.693.483h-.24V10.56h.16c1.284-.241 2.65-.402 4.014-.402 2.89 0 5.379.322 5.379 3.947V22h-.161c-1.686 0-3.291.08-4.977.16zm.883-5.801c-2.168 0-3.533.322-3.533 1.934 0 1.853 1.767 2.014 3.372 2.014.642 0 1.686-.08 2.007-.08V16.44l-1.846-.081zm-37.01 5.8c-2.65 0-5.138-.483-5.138-3.866 0-3.706 3.853-3.706 6.101-3.706.241 0 1.285.08 1.606.08 0-2.095 0-2.578-3.05-2.578-1.205.08-2.49.161-3.694.483h-.24V10.56h.16c1.285-.241 2.65-.402 4.014-.402 2.89 0 5.379.322 5.379 3.947V22h-.16c-1.606 0-3.292.08-4.978.16zm.883-5.8c-2.168 0-3.532.322-3.532 1.934 0 1.853 1.766 2.014 3.371 2.014.643 0 1.686-.08 2.008-.08V16.44l-1.847-.081zm50.658 10.796V22.08c-.642.08-1.285.161-1.927.161-1.044 0-2.087-.241-3.051-.564-1.926-.805-3.131-2.9-3.131-5.559 0-1.37.321-3.786 2.489-5.075a7.293 7.293 0 014.335-.886c.723 0 1.606.08 2.489.08l1.445.08v15.71l-2.649 1.129zm-1.526-15.066c-2.649 0-3.933 1.37-3.933 3.948 0 3.384 2.007 4.109 3.612 4.109.643 0 1.285-.081 1.847-.162V12.09h-1.526z" fill="currentColor"/></g></svg>